<mxfile host="app.diagrams.net" agent="Mozilla/5.0 (Macintosh; Intel Mac OS X 10_15_7) AppleWebKit/537.36 (KHTML, like Gecko) Chrome/135.0.0.0 Safari/537.36" version="26.2.10">
  <diagram name="Seite-1" id="r95zw7-B-S0A9r7h02m8">
    <mxGraphModel dx="1107" dy="1247" grid="0" gridSize="10" guides="1" tooltips="1" connect="1" arrows="1" fold="1" page="0" pageScale="1" pageWidth="827" pageHeight="1169" math="0" shadow="0">
      <root>
        <mxCell id="0" />
        <mxCell id="1" value="BG" parent="0" />
        <mxCell id="7EFssaYVpA_n2hoAjp4g-147" value="" style="rounded=0;whiteSpace=wrap;html=1;strokeColor=none;fillColor=none;movable=0;resizable=0;rotatable=0;deletable=0;editable=0;locked=1;connectable=0;" parent="1" vertex="1">
          <mxGeometry x="-119" y="282" width="515" height="188" as="geometry" />
        </mxCell>
        <mxCell id="7EFssaYVpA_n2hoAjp4g-146" value="" style="rounded=0;whiteSpace=wrap;html=1;strokeColor=none;fillColor=none;movable=0;resizable=0;rotatable=0;deletable=0;editable=0;locked=1;connectable=0;" parent="1" vertex="1">
          <mxGeometry x="-119" y="16" width="515" height="238" as="geometry" />
        </mxCell>
        <mxCell id="7EFssaYVpA_n2hoAjp4g-39" value="event stream" style="line;strokeWidth=1;html=1;dashed=1;dashPattern=1 1;labelPosition=left;verticalLabelPosition=middle;align=right;verticalAlign=middle;spacingTop=0;spacingRight=2;strokeColor=#808080;" parent="1" vertex="1">
          <mxGeometry y="344" width="380" height="10" as="geometry" />
        </mxCell>
        <mxCell id="7EFssaYVpA_n2hoAjp4g-26" value="stream &quot;student-s1&quot;" style="line;strokeWidth=1;html=1;dashed=1;dashPattern=1 1;labelPosition=left;verticalLabelPosition=middle;align=right;verticalAlign=middle;spacingTop=0;spacingRight=2;strokeColor=#808080;" parent="1" vertex="1">
          <mxGeometry y="141" width="380" height="10" as="geometry" />
        </mxCell>
        <mxCell id="4i42DCcgcJVJZAV1I3oW-11" style="edgeStyle=none;curved=1;rounded=0;orthogonalLoop=1;jettySize=auto;html=1;exitX=1;exitY=0.25;exitDx=0;exitDy=0;entryX=0;entryY=1;entryDx=0;entryDy=0;fontSize=12;startSize=5;endSize=5;fillColor=#fff2cc;strokeColor=#d6b656;endArrow=open;endFill=0;" parent="1" source="7EFssaYVpA_n2hoAjp4g-28" target="4i42DCcgcJVJZAV1I3oW-7" edge="1">
          <mxGeometry relative="1" as="geometry" />
        </mxCell>
        <mxCell id="7EFssaYVpA_n2hoAjp4g-28" value="student&lt;div&gt;subscribed&lt;/div&gt;&lt;div&gt;to course&lt;/div&gt;" style="whiteSpace=wrap;aspect=fixed;rounded=1;fillColor=#FFB570;strokeColor=#CF935B;fontColor=#000000;fontFamily=Helvetica;fontSize=8;html=1;fontStyle=0;arcSize=5;imageHeight=24;" parent="1" vertex="1">
          <mxGeometry x="130" y="125" width="42" height="42" as="geometry" />
        </mxCell>
        <mxCell id="7EFssaYVpA_n2hoAjp4g-27" value="student&lt;div&gt;registered&lt;/div&gt;" style="whiteSpace=wrap;html=1;aspect=fixed;rounded=1;fillColor=#FFB570;strokeColor=#CF935B;fontColor=#000000;fontFamily=Helvetica;fontSize=8;arcSize=5;imageHeight=24;" parent="1" vertex="1">
          <mxGeometry x="70" y="125" width="42" height="42" as="geometry" />
        </mxCell>
        <mxCell id="7EFssaYVpA_n2hoAjp4g-3" value="stream &quot;course-c1&quot;" style="line;strokeWidth=1;html=1;dashed=1;dashPattern=1 1;labelPosition=left;verticalLabelPosition=middle;align=right;verticalAlign=middle;spacingTop=0;spacingRight=2;strokeColor=#808080;fillColor=#999999;" parent="1" vertex="1">
          <mxGeometry y="66" width="380" height="10" as="geometry" />
        </mxCell>
        <mxCell id="7EFssaYVpA_n2hoAjp4g-9" value="student&lt;div&gt;subscribed&lt;/div&gt;&lt;div&gt;to course&lt;/div&gt;" style="whiteSpace=wrap;aspect=fixed;rounded=1;fillColor=#FFB570;strokeColor=#CF935B;fontColor=#000000;fontFamily=Helvetica;fontSize=8;html=1;fontStyle=0;arcSize=5;imageHeight=24;" parent="1" vertex="1">
          <mxGeometry x="190" y="50" width="42" height="42" as="geometry" />
        </mxCell>
        <mxCell id="7EFssaYVpA_n2hoAjp4g-4" value="course&lt;div&gt;defined&lt;/div&gt;" style="whiteSpace=wrap;html=1;aspect=fixed;rounded=1;fillColor=#FFB570;strokeColor=#CF935B;fontFamily=Helvetica;fontSize=8;arcSize=5;imageHeight=24;" parent="1" vertex="1">
          <mxGeometry x="10" y="50" width="42" height="42" as="geometry" />
        </mxCell>
        <mxCell id="7EFssaYVpA_n2hoAjp4g-37" value="student&lt;div&gt;subscribed&lt;/div&gt;&lt;div&gt;to course&lt;/div&gt;" style="whiteSpace=wrap;aspect=fixed;rounded=1;fillColor=#FFB570;strokeColor=#CF935B;fontColor=#000000;fontFamily=Helvetica;fontSize=8;html=1;fontStyle=0;arcSize=5;imageHeight=24;" parent="1" vertex="1">
          <mxGeometry x="130" y="328" width="42" height="42" as="geometry" />
        </mxCell>
        <mxCell id="7EFssaYVpA_n2hoAjp4g-38" value="student&lt;div&gt;registered&lt;/div&gt;" style="whiteSpace=wrap;html=1;aspect=fixed;rounded=1;fillColor=#FFB570;strokeColor=#CF935B;fontColor=#000000;fontFamily=Helvetica;fontSize=8;arcSize=5;imageHeight=24;" parent="1" vertex="1">
          <mxGeometry x="70" y="328" width="42" height="42" as="geometry" />
        </mxCell>
        <mxCell id="7EFssaYVpA_n2hoAjp4g-41" value="course&lt;div&gt;defined&lt;/div&gt;" style="whiteSpace=wrap;html=1;aspect=fixed;rounded=1;fillColor=#FFB570;strokeColor=#CF935B;fontColor=#000000;fontFamily=Helvetica;fontSize=8;arcSize=5;imageHeight=24;" parent="1" vertex="1">
          <mxGeometry x="10" y="328" width="42" height="42" as="geometry" />
        </mxCell>
        <mxCell id="7EFssaYVpA_n2hoAjp4g-105" value="" style="endArrow=open;html=1;rounded=0;fontSize=12;startSize=6;endSize=6;curved=1;dashed=1;strokeWidth=1;spacingLeft=0;spacingRight=0;endFill=0;fillColor=#f5f5f5;strokeColor=#CCCCCC;" parent="1" edge="1">
          <mxGeometry relative="1" as="geometry">
            <mxPoint x="-105" y="227" as="sourcePoint" />
            <mxPoint x="379" y="226" as="targetPoint" />
          </mxGeometry>
        </mxCell>
        <mxCell id="7EFssaYVpA_n2hoAjp4g-106" value="time" style="edgeLabel;resizable=0;html=1;;align=center;verticalAlign=middle;spacingLeft=0;spacingRight=0;fontFamily=Helvetica;fontColor=#999999;" parent="7EFssaYVpA_n2hoAjp4g-105" connectable="0" vertex="1">
          <mxGeometry relative="1" as="geometry" />
        </mxCell>
        <mxCell id="7EFssaYVpA_n2hoAjp4g-136" value="course:&lt;div&gt;c1&lt;/div&gt;" style="shape=stencil(pVPtDoMgDHwa/iOEbH83N9/DKU5iJwbcdG8/FDQ6vxJNTEiv9UqPK6K+TsOCI4JDXfCoRPSGCElEzWNzGji1CMM2rGzoYRfrUsmMVyIuXaHIU65E2WTpHeGLqWk+6j/CKHsq+c7jUaJLJwIgkiCVCe3pbgJgOyESzP5YhE3rSaJLv+Snma62dO7W31E0z9wRgMgHBGd2lKGXzlF47DgH3cHxNwnbMQrewRCB1HzlOQ0+edEWXfCPcY5UfMNY1qUrXTcLFuyJCA2CKzutjk59DiAKPRR/LF2nZL9do93zNthXJ2y1m0jUonbzW+AH);whiteSpace=wrap;html=1;fillColor=#fff2cc;strokeColor=#d6b656;rotation=300;fontSize=6;spacingRight=9;spacing=2;" parent="1" vertex="1">
          <mxGeometry x="-10" y="361" width="35.21" height="36.05" as="geometry" />
        </mxCell>
        <mxCell id="7EFssaYVpA_n2hoAjp4g-140" value="student:&lt;div&gt;s1&lt;/div&gt;" style="shape=stencil(pVPtDoMgDHwa/iOEbH83N9/DKU5iJwbcdG8/FDQ6vxJNTEiv9UqPK6K+TsOCI4JDXfCoRPSGCElEzWNzGji1CMM2rGzoYRfrUsmMVyIuXaHIU65E2WTpHeGLqWk+6j/CKHsq+c7jUaJLJwIgkiCVCe3pbgJgOyESzP5YhE3rSaJLv+Snma62dO7W31E0z9wRgMgHBGd2lKGXzlF47DgH3cHxNwnbMQrewRCB1HzlOQ0+edEWXfCPcY5UfMNY1qUrXTcLFuyJCA2CKzutjk59DiAKPRR/LF2nZL9do93zNthXJ2y1m0jUonbzW+AH);whiteSpace=wrap;html=1;fillColor=#d5e8d4;strokeColor=#82b366;rotation=300;fontSize=6;spacingRight=9;spacing=2;" parent="1" vertex="1">
          <mxGeometry x="50" y="361" width="35.21" height="36.05" as="geometry" />
        </mxCell>
        <mxCell id="7EFssaYVpA_n2hoAjp4g-141" value="course:&lt;div&gt;c1&lt;/div&gt;" style="shape=stencil(pVPtDoMgDHwa/iOEbH83N9/DKU5iJwbcdG8/FDQ6vxJNTEiv9UqPK6K+TsOCI4JDXfCoRPSGCElEzWNzGji1CMM2rGzoYRfrUsmMVyIuXaHIU65E2WTpHeGLqWk+6j/CKHsq+c7jUaJLJwIgkiCVCe3pbgJgOyESzP5YhE3rSaJLv+Snma62dO7W31E0z9wRgMgHBGd2lKGXzlF47DgH3cHxNwnbMQrewRCB1HzlOQ0+edEWXfCPcY5UfMNY1qUrXTcLFuyJCA2CKzutjk59DiAKPRR/LF2nZL9do93zNthXJ2y1m0jUonbzW+AH);whiteSpace=wrap;html=1;fillColor=#fff2cc;strokeColor=#d6b656;rotation=300;fontSize=6;spacingRight=9;spacing=2;" parent="1" vertex="1">
          <mxGeometry x="110" y="361" width="35.21" height="36.05" as="geometry" />
        </mxCell>
        <mxCell id="7EFssaYVpA_n2hoAjp4g-142" value="student:&lt;div&gt;s1&lt;/div&gt;" style="shape=stencil(pVPtDoMgDHwa/iOEbH83N9/DKU5iJwbcdG8/FDQ6vxJNTEiv9UqPK6K+TsOCI4JDXfCoRPSGCElEzWNzGji1CMM2rGzoYRfrUsmMVyIuXaHIU65E2WTpHeGLqWk+6j/CKHsq+c7jUaJLJwIgkiCVCe3pbgJgOyESzP5YhE3rSaJLv+Snma62dO7W31E0z9wRgMgHBGd2lKGXzlF47DgH3cHxNwnbMQrewRCB1HzlOQ0+edEWXfCPcY5UfMNY1qUrXTcLFuyJCA2CKzutjk59DiAKPRR/LF2nZL9do93zNthXJ2y1m0jUonbzW+AH);whiteSpace=wrap;html=1;fillColor=#d5e8d4;strokeColor=#82b366;rotation=300;fontSize=6;spacingRight=9;spacing=2;" parent="1" vertex="1">
          <mxGeometry x="134" y="361" width="35.21" height="36.05" as="geometry" />
        </mxCell>
        <mxCell id="DbxpfdoCNsHGOSzbfEZo-4" value="" style="endArrow=open;html=1;rounded=0;fontSize=12;startSize=6;endSize=6;curved=1;dashed=1;strokeWidth=1;spacingLeft=0;spacingRight=0;endFill=0;fillColor=#f5f5f5;strokeColor=#CCCCCC;" parent="1" edge="1">
          <mxGeometry relative="1" as="geometry">
            <mxPoint x="-105" y="444" as="sourcePoint" />
            <mxPoint x="379" y="443" as="targetPoint" />
          </mxGeometry>
        </mxCell>
        <mxCell id="DbxpfdoCNsHGOSzbfEZo-5" value="time" style="edgeLabel;resizable=0;html=1;;align=center;verticalAlign=middle;spacingLeft=0;spacingRight=0;fontFamily=Helvetica;fontColor=#999999;" parent="DbxpfdoCNsHGOSzbfEZo-4" connectable="0" vertex="1">
          <mxGeometry relative="1" as="geometry" />
        </mxCell>
        <mxCell id="4i42DCcgcJVJZAV1I3oW-4" value="&lt;div&gt;subscription cancelled&lt;/div&gt;" style="whiteSpace=wrap;aspect=fixed;rounded=1;fillColor=#FFB570;strokeColor=#CF935B;fontColor=#000000;fontFamily=Helvetica;fontSize=7;html=1;fontStyle=0;arcSize=5;imageHeight=24;" parent="1" vertex="1">
          <mxGeometry x="250" y="125" width="42" height="42" as="geometry" />
        </mxCell>
        <mxCell id="4i42DCcgcJVJZAV1I3oW-13" style="edgeStyle=none;curved=1;rounded=0;orthogonalLoop=1;jettySize=auto;html=1;exitX=0.5;exitY=0;exitDx=0;exitDy=0;entryX=0.5;entryY=1;entryDx=0;entryDy=0;fontSize=12;startSize=5;endSize=5;fillColor=#fff2cc;strokeColor=#d6b656;endArrow=open;endFill=0;" parent="1" source="4i42DCcgcJVJZAV1I3oW-7" target="7EFssaYVpA_n2hoAjp4g-9" edge="1">
          <mxGeometry relative="1" as="geometry" />
        </mxCell>
        <mxCell id="4i42DCcgcJVJZAV1I3oW-14" style="edgeStyle=none;curved=1;rounded=0;orthogonalLoop=1;jettySize=auto;html=1;exitX=1;exitY=1;exitDx=0;exitDy=0;entryX=0;entryY=0.25;entryDx=0;entryDy=0;fontSize=12;startSize=5;endSize=5;fillColor=#fff2cc;strokeColor=#d6b656;endArrow=open;endFill=0;" parent="1" source="4i42DCcgcJVJZAV1I3oW-7" target="4i42DCcgcJVJZAV1I3oW-4" edge="1">
          <mxGeometry relative="1" as="geometry" />
        </mxCell>
        <mxCell id="4i42DCcgcJVJZAV1I3oW-7" value="saga" style="text;html=1;align=center;verticalAlign=middle;whiteSpace=wrap;rounded=0;fillColor=#fff2cc;strokeColor=#d6b656;spacingBottom=1;spacingLeft=0;spacingTop=0;spacingRight=0;" parent="1" vertex="1">
          <mxGeometry x="193" y="108" width="37" height="17" as="geometry" />
        </mxCell>
        <mxCell id="4i42DCcgcJVJZAV1I3oW-16" value="" style="endArrow=none;html=1;rounded=0;fontSize=12;startSize=8;endSize=8;curved=1;fillColor=#f8cecc;strokeColor=#b85450;exitX=0;exitY=0;exitDx=0;exitDy=0;entryX=1;entryY=1;entryDx=0;entryDy=0;strokeWidth=2;" parent="1" source="7EFssaYVpA_n2hoAjp4g-9" target="7EFssaYVpA_n2hoAjp4g-9" edge="1">
          <mxGeometry width="50" height="50" relative="1" as="geometry">
            <mxPoint x="234" y="283" as="sourcePoint" />
            <mxPoint x="284" y="233" as="targetPoint" />
          </mxGeometry>
        </mxCell>
        <mxCell id="4i42DCcgcJVJZAV1I3oW-17" value="" style="endArrow=none;html=1;rounded=0;fontSize=12;startSize=8;endSize=8;curved=1;entryX=1;entryY=0;entryDx=0;entryDy=0;exitX=0;exitY=1;exitDx=0;exitDy=0;fillColor=#f8cecc;strokeColor=#b85450;strokeWidth=2;" parent="1" source="7EFssaYVpA_n2hoAjp4g-9" target="7EFssaYVpA_n2hoAjp4g-9" edge="1">
          <mxGeometry width="50" height="50" relative="1" as="geometry">
            <mxPoint x="234" y="283" as="sourcePoint" />
            <mxPoint x="284" y="233" as="targetPoint" />
          </mxGeometry>
        </mxCell>
        <mxCell id="4i42DCcgcJVJZAV1I3oW-15" value="failed" style="text;html=1;align=center;verticalAlign=middle;whiteSpace=wrap;rounded=0;fillColor=#f8cecc;strokeColor=#b85450;" parent="1" vertex="1">
          <mxGeometry x="224" y="42" width="37" height="15" as="geometry" />
        </mxCell>
        <mxCell id="7EFssaYVpA_n2hoAjp4g-33" value="" style="ellipse;whiteSpace=wrap;html=1;rotation=-90;sketch=1;curveFitting=1;jiggle=2;fillColor=none;strokeColor=#b85450;movable=1;resizable=1;rotatable=1;deletable=1;editable=1;locked=0;connectable=1;" parent="1" vertex="1">
          <mxGeometry x="139.88" y="11.13" width="154.88" height="198" as="geometry" />
        </mxCell>
        <mxCell id="4i42DCcgcJVJZAV1I3oW-18" value="traditional Event Sourcing approach" style="text;html=1;align=center;verticalAlign=middle;whiteSpace=wrap;rounded=0;fillColor=#fff2cc;strokeColor=#d6b656;" parent="1" vertex="1">
          <mxGeometry x="-119" y="16" width="196" height="22" as="geometry" />
        </mxCell>
        <mxCell id="4i42DCcgcJVJZAV1I3oW-19" value="DCB approach" style="text;html=1;align=center;verticalAlign=middle;whiteSpace=wrap;rounded=0;fillColor=#fff2cc;strokeColor=#d6b656;" parent="1" vertex="1">
          <mxGeometry x="-119" y="282" width="196" height="22" as="geometry" />
        </mxCell>
        <mxCell id="DbxpfdoCNsHGOSzbfEZo-1" value="" style="ellipse;whiteSpace=wrap;html=1;rotation=-90;sketch=1;curveFitting=1;jiggle=2;fillColor=none;strokeColor=#b85450;" parent="1" vertex="1">
          <mxGeometry x="99.5" y="315" width="105" height="84" as="geometry" />
        </mxCell>
        <mxCell id="e7-qo8ZN-_znc6MmdAON-1" value="" style="group" parent="1" vertex="1" connectable="0">
          <mxGeometry x="-174" y="-330" width="306" height="306" as="geometry" />
        </mxCell>
        <mxCell id="4i42DCcgcJVJZAV1I3oW-3" value="Export Settings (PNG):" style="whiteSpace=wrap;html=1;aspect=fixed;fillColor=#fff2cc;strokeColor=#d6b656;verticalAlign=top;" parent="e7-qo8ZN-_znc6MmdAON-1" vertex="1">
          <mxGeometry width="306" height="306" as="geometry" />
        </mxCell>
        <mxCell id="4i42DCcgcJVJZAV1I3oW-2" value="" style="shape=image;verticalLabelPosition=bottom;labelBackgroundColor=default;verticalAlign=top;aspect=fixed;imageAspect=0;image=data:image/png,iVBORw0KGgoAAAANSUhEUgAAAyYAAANuCAYAAADjPB0zAAAAAXNSR0IArs4c6QAAADhlWElmTU0AKgAAAAgAAYdpAAQAAAABAAAAGgAAAAAAAqACAAQAAAABAAADJqADAAQAAAABAAADbgAAAACjq74lAABAAElEQVR4AeydB5gsRbWAC7iXnHPOGQQkCKgIKCAIElSCBJFHkiQiEkRQBBEQJAuSgyQJgiiKZCVLkCg5S7rknOHdv59nXm1vz+7s7uzu7Mx/vu/e7q6urq7+q3u2Tp1zqsZ56KGHPp1++unTFFNMkRQJSEACEpCABCQgAQlIQAKDQeD1119PY8aMKYr++OOP03jjjZdGjx6dJphgguLfuBNOOKFKyWCQt0wJSEACEpCABCQgAQlIoEYAQwi6BzLOOOOkTz75JKGgxL9xJ5988lpmdyQgAQlIQAISkIAEJCABCQwWgdA9UEw+/fTT4jYoKOyPO/HEEw/WfS1XAhKQgAQkIAEJSEACEpBAjUDoHigmoZyglBSKyahRo2oZ3ZGABCQgAQlIQAISkIAEJDBYBHLdIxQStlhNxkVTUSQgAQlIQAISkIAEJCABCQw2gbLugVISMm7suJWABCQgAQlIQAISkIAEJDBcBFRMhou895WABCQgAQlIQAISkIAEiviSIsZEFhKQgAQkIAEJSEACEpCABIabgBaT4W4B7y8BCUhAAhKQgAQkIAEJJBUTXwIJSEACEpCABCQgAQlIYNgJqJgMexNYAQlIQAISkIAEJCABCUhAxcR3QAISkIAEJCABCUhAAhIYdgIqJsPeBFZAAhKQgAQkIAEJSEACElAx8R2QgAQkIAEJSEACEpCABIadgIrJsDeBFZCABCQgAQlIQAISkIAEVEx8ByQgAQlIQAISkIAEJCCBYSegYjLsTWAFJCABCUhAAhKQgAQkIAEVE98BCUhAAhKQgAQkIAEJSGDYCaiYDHsTWAEJSEACEpCABCQgAQlIQMXEd0ACEpCABCQgAQlIQAISGHYCKibD3gRWQAISkIAEJCABCUhAAhJQMfEdkIAEJCABCUhAAhKQgASGncCoYa+BFZCABCQgAQlIQAISkIAE+kXg1TffTU8891px7ZwzTZmmmmyiHsvpa/4eC2vySRWTJgO1OAlIQAISkIAEJCABCQwFAZSMt9/9MH300SfF7dgfNd54aaIJRo3ddnWM+ujjT9K773/ULT8X9qbMDMWzcA8Vk6Ei7X0kIAEJSEACEpCABCTQRAJYSlBK3v3go6LU5156s1A+Zpxm0jTZxON3uRNKyfMvv5VeG6vM5PlHjRpXxaQLKQ8kIAEJSEACEpCABCQggX4T+OiTT9Kb731QXI/FBIktSsnrb71XKCWRZ9S4XS0qxQXD/J8Wk2FuAG8vAQlIQAISkIAEJCCB/hAgpgT3LSwloXBgDcktJ5RbtpSQNtH4o9JM006WJploNIctISomLdEMVkICEpCABCQgAQlIQAJ9I0BsCDElWEQQlJIqywnuW6G4YClBKZly7LVTTDphN5evvtWgublVTJrL09IkIAEJSEACEpCABCQwZARw1yKmhG2V5YSKREwJ+2EpQSkJVy/SW0FUTFqhFayDBCQgAQlIQAISkIAE+kGA2bci0L2e5YRiW9lSEo/delEvUTO3EpCABCQgAQlIQAISkEBDBMJyQtwIVpGyhKUkrCvl861wrGLSCq1gHSQgAQlIQAISkIAEJNDhBFRMOvwF8PElIAEJSEACEpCABEY+gVinpJiR67/rmuRPFbN1MUNXuHzl51thv7udpxVqZR0kIAEJSEACEpCABCQggV4JxIruVeuUhEtXvdm6cP8qrxDf6w0HMYMWk0GEa9ESkIAEJCABCUhAAhIYTAL1LCURU1KOOWlly4kWk8F8UyxbAhKQgAQkIAEJSEACg0Tg1bHrk7DAYk/rlHDrcN2qspx89PHHifVQWkFUTFqhFayDBCQgAQlIQAISkIAE+kjgiedeSx999Emv65TETFxV65yMGjWuikkfuZtdAhKQgAQkIAEJSEACEqhDoKd1SqrWOalTzLAmazEZVvzeXAISkIAEJCABCUhAAv0jMOdMUxauXFhCEOJJ6q3oHuucsM3zTzLR6P7dfBCuUjEZBKgWKQEJSEACEpCABCQggcEmELEhuGMhKBlhHSnfO1aIJ6Ykzx9llPMPx7GKyXBQ954SkIAEJCABCUhAAhJoAgEUi74oF33N34QqNlyE0wU3jMqMEpCABCQgAQlIQAISkMBgEVAxGSyylisBCUhAAhKQgAQkIAEJNExAxaRhVGaUgAQkIAEJSEACEpCABAaLgIrJYJG1XAlIQAISkIAEJCABCUigYQIqJg2jMqMEJCABCUhAAhKQgAQkMFgEVEwGi6zlSkACEpCABCQgAQlIQAINE1AxaRiVGSUgAQlIQAISkIAEJCCBwSKgYjJYZC1XAhKQgAQkIAEJSEACEmiYgIpJw6jMKAEJSEACEpCABCQgAQkMFgEVk8Eia7kSkIAEJCABCUhAAhKQQMMEVEwaRmVGCUhAAhKQgAQkIAEJSGCwCKiYDBZZy5WABCQgAQlIQAISkIAEGiagYtIwKjNKQAISkIAEJCABCUhAAoNFYNRgFWy5EpCABCQgAQlIQAISkIAEeiPw4Ycfpo8//jhpMemNlOclIAEJSEACEpCABCQggUEnoMVk0BF7AwlIQAISkIAEJCABCUigHoHRo0enCSaYQItJPUCmS0ACEpCABCQgAQlIQAJDR0CLydCx9k4SkIAEuhF45pln0j//+c8u6dNMM0360pe+1CXNAwlIQAISkEC7E1AxafcW9vkkIIGWJvDvf/87HXnkkV3qOP/886uYdCHigQQkIAEJdAIBg987oZV9RglIQAISkIAEJCABCbQ4ARWTFm8gqycBCUhAAhKQgAQkIIFOIKBi0gmt7DNKQAISkIAEJCABCUigxQkYY9LiDWT1JCABCfRG4L333kuPP/54evnll9PUU0+d5phjjjTJJJNUXvbqq6+mJ598Mn3wwQdpwQUXTJNPPnllvp4SKePpp59Ob775ZpptttnSLLPMksYbb7yeLul2joW0XnrppfTiiy8WdZ5xxhnTuOMObKzso48+Si+88EJRJnWbaqqp0rTTTptmmGGGNM4443SrgwkSkIAEJNBaBFRMWqs9rI0EJCCBbgRuvPHGtNdee3VJX2211Yq0888/P5166qnpnXfe6XJ+9dVXTzvssEOabLLJivT7778/HX744emhhx7qkm/OOedM66yzTlpvvfW6pJcP7rrrrnT66aenBx54oNu9yEvA/uc///m02Wab9aikoIicd955iXqXZe21105bbbVVGn/88RP1L8u1115bTiqOX3nllfTHP/6xKLPMgQwoTzzjWmutlSaccMLKMkyUgAQkIIHhJ6BiMvxtYA0kIAEJ9EgAS0BZPvzww3T11Ven3/zmN+VTxfFll12W7rvvvnTyySen66+/Pu23336V+Z544oliVjDusf7663fL8/bbb6eTTjopXXTRRd3O5QkoPPzjnj/96U9rClE5zw9+8INKxYZ8l1xySbryyivT0UcfnV/W4z6zmv3kJz9JWHHqCdadY445Jl1++eVp//33Lywo9fKaLgEJSEACw0dgYHbz4au3d5aABCTQ0QQefPDBuspGgIkO+aGHHhpJdbcoOOX1VMh8wAEH9KqU5IXeeuutafvtt08oTrngttWTUhJ5sXjsu+++cdjj9tFHHy3u1ZNSkheA4vS9730vvfXWW3my+xKQgAQk0CIEVExapCGshgQkIIG+EHj22Wcbyo4Vosq9qepilIpccN/CjawsE088cVp22WXToosuWj5VHKMQld2ujj/++IbrwfW9CYoP1o8qmWeeedKaa66ZcFMrC0oM1hNFAhKQgARaj4CuXK3XJtZIAhKQQEMECO7GRWvhhRcuAskPO+ywdMstt1ReS8zGFltsUQSDYzkgZqVsabjnnnu6XHvbbbd1OeZghRVWKCwaEexOkDkWkrIyQVmrrrpqcT33ueKKK7qVRcIuu+ySlltuucL16+67704nnnhiwhLSm1x33XUJN7SyHHLIIWmZZZapJf/9739PP/vZz2rH7ODmBguC4hUJSEACEmgdAiomrdMW1kQCEpBAnwgcfPDBRdA5F9HJ/vnPf14ZNI7isttuu9WC0hdaaKG0xx57pD333LPL/QhsJ9Zk1Kj/+9OwxhprpCWWWKJLnkUWWaRWDicIrt9www1T2V2M2bFCqlzEOEedsGyEoKDMNddchdLQm5Xnqquuistq2x133LGLUsKJFVdcMW2yySbprLPOquVjB4Vlgw026JLmgQQkIAEJDC8BXbmGl793l4AEJNAvAtNNN11NKYkCmHGqrEhwjtmywsIReeebb77Y7bJlGt+QmWeeOS211FJd/lXNasWMXGXJy3nkkUfKp4u650pJZEDBIg6kJ/nkk0/SDTfc0C0LSkiVfPGLX+yWfO+993ZLM0ECEpCABIaXgBaT4eXv3SUgAQn0iwBrkFQJ7l1lmXXWWctJxdoh3RJ7SGB2LhQM3MAefvjhwg0MN6433ngj9RbvwvoqZalXf/LVU5qiDO5ZJVWzilXlI23MmDH1TpkuAQlIQALDREDFZJjAe1sJSEACAyEQ7laNlDGQxQVRPlj/hKmJ+ytVigRri9QTFmzsScqxMT3lrXeuSlmql9d0CUhAAhIYGgIqJkPD2btIQAISGHEEsIzsvvvu3YLk+/ogk046abdLerJYsAhjT/Lpp5/2dLqhc1VrwzR0oZkkIAEJSGDQCKiYDBpaC5aABCQwsgmcffbZlUoJ0/EyXTBxLigdTz75ZDrzzDPrPmyVexnrsNSTxx57rN6pIr2qPE786le/SvWsQx988EGxonwUPNFEE8WuWwlIQAISaBECKiYt0hBWQwISkEArEWCdkGuuuaZblY499thieuL8RL0piiMPM22VhamBWTcln9qXPMSynHHGGeXsXY6nmGKKLsdxMPfccxfTIcexWwlIQAISGFkEnJVrZLWXtZWABCQwJASqLBrEhTD1cFluvvnmclKX4+WXX77LcRywvsi//vWvYopi0p555pli0cTymiiRP7bjjjtuYbGJ49iytkmVoGRdf/31ifPxrzerTFU5pklAAhKQwOAS0GIyuHwtXQISkMCIJDDllFN2qzcKA3En+axZf/rTn9JFF13ULW+egMsXCzOWFQfWKmGBRVaSn2CCCSrdxvJy8v1VVlml22KSRx55ZGKKY9zMQrjHEUcckS6//PJIKrasvbLddtt1SfNAAhKQgASGl4CKyfDy9+4SkIAEWpIAUwwTy1GeAWvrrbcu1kph5qz77ruvcvX1qgfaaaeduikmkQ/lIV9Qseq+kTe2KDpYcMrWFRaOnHPOOYs64hbG6vXlZ6CMtddeO4pyKwEJSEACLUJAV64WaQirIQEJSKDVCNRbsPDOO+9Ml156acNKCc81/fTTp+OOO66wjvT2nAceeGBvWRILPe69996V+Z544ol08cUXpyuuuKJSKdl5551Tb1MSVxZsogQkIAEJDCoBFZNBxWvhEpCABEYuAVZgZ9X43mS33XbrLUtxfqGFFkqnnXZa2mCDDSrzsxL8+eefX1g8KjOUEhdYYIF01FFHNaTsxKVbbbVVWm+99eLQrQQkIAEJtBABXblaqDGsigQk0HkExhtvvG4PXV48sSpPVRoFjR49utfyumXIEvLpdrFK7L///unUU09Nf//737u5TRHnsfnmmyem4i1LvfphOdl+++0TSs8rr7xS/MN1a5pppkkEtSOvvfZaubi6x4sttlj63e9+l/74xz8m4l2q3La4eLXVVkvf/e53ixiUuoV5QgISkIAEhpXAOGMXqhr4SlXD+gjeXAISkIAEhoIAq8A/99xzRaD6jDPOWGwbue+7776b7r333i5Zxx9//LT44ot3SYsDph8mViQX4kawtvQkLJr4/PPPJ1Z1554E1RMMj9KTK1w9leE5CUhAAhIYfAJMpIJ8/PHHxaAUg2pMgqLFZPDZewcJSEACbUFgsskmS/zrq3zyySepyt2LWbGYHSsXpgw+9NBD86Rif9FFF+2WVk7A0kTQPv8UCUhAAhIYeQS0mIy8NrPGEpCABEYcgeOPPz6dc8453erNVMIoHSg8L730Urrxxhu75SEBawlWE0UCEpCABEY+gXoWExWTkd+2PoEEJCCBlifwwgsvdLOONFpprC0ExisSkIAEJNAeBOopJs7K1R7t61NIQAISaGkCM8wwQzr33HPTMsss03A9iQ85+eSTVUoaJmZGCUhAAiObgBaTkd1+1l4CEpDAiCLAfCtXXnlluummm4pV5MsLJPIwSyyxRDFN8VprrdWnqYBHFAgrKwEJSKCDCdSzmKiYdPBL4aNLQAISGG4CH374YRozZkwicH2iiSZKk046aW3a4OGum/eXgAQkIIHBIVBPMXFWrsHhbakSkIAEJNAAAaaIdBX2BkCZRQISkEAHEDDGpAMa2UeUgAQkIAEJSEACEpBAqxNQMWn1FrJ+EpCABCQgAQlIQAIS6AACKiYd0Mg+ogQkIAEJSEACEpCABFqdgIpJq7eQ9ZOABCQgAQlIQAISkEAHEFAx6YBG9hElIAEJSEACEpCABCTQ6gRUTFq9hayfBCQgAQlIQAISkIAEOoCAikkHNLKPKAEJSEACEpCABCQggVYnoGLS6i1k/SQgAQlIQAISkIAEJNABBFRMOqCRfUQJSEACEpCABCQgAQm0OgEVk1ZvIesnAQlIQAISkIAEJCCBDiCgYtIBjewjSkACEpCABCQgAQlIoNUJqJi0egtZPwlIQAISkIAEJCABCXQAARWTDmhkH1ECEpCABCQgAQlIQAKtTkDFpNVbyPpJQAISkIAEJCABCUigAwiM6oBn9BFbgMB7772X3njjjfTuu++mDz/8MH366actUCur0CwC44wzTho9enSaaKKJ0uSTT54mnHDCZhVtORKQQC8E/H3tBdAIP+3v6whvQKvfJwLjjO0g2kPsEzIz95XAmDFj0uuvv97Xy8w/gglMMcUUafrppx/BT2DVJTAyCPj7OjLaqZm19Pe1mTQta7gIPPzww8WtP/744zTuuOMWg5sTTDBB0mIyXC3SIfd95pln0jvvvFM87VRTTZUmm2yyNP744ydGgJT2IcD4xgcffJDefPPN9OqrrxaKKJaxWWaZpX0e0ieRQIsR8Pe1xRpkkKrj7+sggbXYliSgxaQlm6U9KhUjebj4zDTTTAlNWGl/Au+//3567rnnCpc9R/bav719wuEh4O/r8HAf7rv6+zrcLeD9m0WgnsXE4PdmEbacLgTweQ73LZWSLmja/gAFlDZHeAd4FxQJSKB5BPx9bR7LkVaSv68jrcWsb18JqJj0lZj5GyJAoDuC+5aWkoaQtVUm2py2R+JdaKsH9GEkMIwE4pvy93UYG2EYb+3v6zDC99aDTkDFZNARd+YNmH0LIaZE6UwC0fbxLnQmBZ9aAs0nEN9UfGPNv4MltjqBaPt4F1q9vtZPAo0SUDFplJT5+kSAwGeEQHelMwlE28e70JkUfOrBIMA79dJLLw1G0SOizPim4hsbEZW2kk0lEG0f70JTC7cwCQwjgY6dlau/fu+YUJ1Rqvc3NmahboQVs3YRBPXoo4+mV155Jc0111xp3nnnTbPPPnuPrJkBqpF2nHjiidMkk0xSWemPPvoo3XXXXemRRx5JBBUutdRSacEFF0zjjTdeZf5IJLj7ggsuSLfffnthFVp22WXTRhttlEaNqv9J/fnPf06nnHJKmnTSSdMZZ5wRRbXtNto+3oWheNBPPvmkaEdGEflWy+3IMZMxjDT5z3/+k3baaaei2t/5znfSeuut11KPwLcT7dzbGjb5N9ufvE899VT63ve+V8z2t9lmm6Utt9yyzyyawfOcc85J5513XnHvE088MU077bR9rkd/LwjW8Y01Ug7fxqmnnlrMnvc///M/DbnY8ht79913F7/N/IZ+7nOfS7PNNlsjtzPPIBOIto93YZBvZ/ESGDIC9XtRQ1aFob8RnZY11lijXzf+7W9/W3Rc+3WxF3UhQGfmhBNOSD/5yU+KaWa7nBx7sMIKK6Rjjz02LbroouVTxfG3v/3tdOmll1aeyxPpvFQpAldddVX6/ve/n/7973/n2QtFY++990677757l/Q4uPfee9NXvvKVxKw4Icccc0zi3fjjH/+YpplmmkiubRnV2nnnndNjjz2Wdt1111q6O80lQJsecMABPRZKx2qRRRZJiy22WPE7EH/ge7xomE/y/jANMxLTbw9zlbrcftttt01PPPFEkXbRRRfV4ou6ZBp7wDe/+uqr15IvvPDCyu+FDDxz5GVw4S9/+Utx3TXXXFNj8Lvf/S5tscUWxRz4tUIb2GkGz7feeqvWJgxwtLrwW7vddtsV1fzWt76VpptuurpVprPLb++Pf/zjbr/NrE901llnpVVWWaXu9Z6QgAQk0F8CHenKNZARhoFc299Gasfr4Lj++usXigGjclVy3XXXpc985jPpyiuvrDqdbr311sr0RhIpkz+sZaWEa6nPHnvsUfyrau+tt966ppSwz3MgN9xwQ/r5z39e7Jf/QzFCKUF222238mmPh5DA008/nS677LL0q1/9qlBi6CwrAyOwzDLL1Aqo+qbi5H333Re7xfbOO+/scpwfxFSSpGGRDFliiSViN33hC1/os1JSu7iHnYMOOihtvPHGxT8sDSNd/vrXv9aUkkaeZf/990877rhjN6WEaxmQWXXVVdMf/vCHRooyjwQkIIE+EehIiwkuHttvv33N9aAnYnQ2MWUjc845Z+Fm1FN+zzVGAAvDn/70pyIzQXyMzn39618vrBV0SBipY+QV2WSTTQoFIrdE4EoVFouFF164RwvY0ksvXZQT/7322mvpG9/4RhymPffcs7Bm4GJ1+eWXp29+85vFOTqun/3sZwsXrcj8z3/+M918883FIaO1m266abG/1157pQMPPDAdffTRab/99ktTTjllXJKw0HEewRIzwwwz1M65M3gE5plnnrTOOuvUbsDqsi+//HKiM4zVC0FB5fdAZbGGqV87uECef/75xbW4RqIwVAmuj7kwuID1sUruueeeWnKu+Cy++OLptNNOK75/vs/BEH5bnn322aLoqsGJwbjnYJSJUnX88ccXf+8aLf8f//hH+tnPflbLfuaZZ6a11167sFLhihq/ZfxOPvnkk4XLbS2zOxKQgAQGSKAjFRP8zDfYYINe0b3wwgvp9NNPr+XbZ599Um8+0bXM7vRIgE5/CKPXn//85+MwLbDAAkX8xte+9rX0t7/9reiA4CKFX3RIPvJKel/co3BpCCsNo4IoFCEoLHSWoiOEAkXsSEg+GrzWWmtFctEBjnIef/zxQqGJkyeffHLxDChgu+yySyS7HWQCtBsju1VyxRVX1Fy+cA3i/Rl33I40IFfh6XMals2QsvIR6WxDqY80OsG4TFax/9e//hXZUm4lIZFBIv4p9Qk8+OCDCYsulue+yC9/+ctadmJowiLM7xcDRgzg4AKL8NtWz0pcK8QdCUhAAn0g4F/iOrAYXcVXPfy5iQ9gBLYn4ZpnnnmmGJHljyouI331PWakjtFcOse4/vQ2FeAHH3yQ3n777S75GCV76KGHEiOOMd99Xm9GAJnRhjpinehrHfOy+rPPKBvBpwgdx1wpifLoqPzoRz+Kw6KutYOxO4zKhvR11JQ/piH84S4LFpbNN9+8SMZilneQXnzxxVr23CqSB77S7iH4occII+5hU089dZxyO4wEeO+WW265ogZ840y80JPwHfFNYTGjw4fVrSfht4Dvkn/hCsR3x7txyy23FL8TVddj0eH7553jG+3PaD2/GTwPvyHUteo3IL83wejUM3dpowwsS3fccUdDvw8ERhOzg3DvUPzz+/A8Zc6wR5EvC/xCiZl55pkT/3IJtr39dvWVJ/WhbH5XQyKN9Ebag+dEOQuLbpQzlNtzzz23iIXsq1KCJZrBIARFZN111+1WbeJUZp111iL98MMP7/LedMtsggQkIIE+EuhIi0kjjM4+++yaCxf+zblLSPl6Oh64MfDHIAJUIw8LYDEKj79yeYagyMP2xhtvLNwT6PyUhZF5Zp6JBevy84zSM+KLEPjLCD9/WPhjGkIA6Q477FD8oWHE/4gjjig6WXGe7UorrVS4NFVZhCgLBYaA4Z5mncrL62mfzj0dQxSUKqUkrs07/livcqHDFIJrR6PCrF/BmI5UdKbK1zM5QljLCLoN5Yc/1iF0ioJHznvyySePLOk3v/lN0UnjuphVqXbSnWElMMccc9Q6v/U6uHSaTzrppCJ+qFxZfhe22mqrNN9885VPFZMyHHbYYUU63yQWvvz3ATeY/H1gpineFZSWXBgMId8UU0yRJ1fuowww61KV7z/f9zbbbNOtg09B/D7x/mIlxKXtF7/4Re23j/M9BbNzPgRFL9xeed5Q/OJ8ruATsE5dkdtuu63boE+uwCy//PJRRLHlt2DDDTcs9nGlpA3K0h+eKHC4LJUFF9OQ4447Li200EJx2GV78cUXF7N0hQsYJ/nNXnPNNYvf76pJFlDAYMVMhPlvS5eC+3HAgEoIv3G///3vC/esmEUszpW3ubWLQZuqGez4zYMJLHjnUNaZqESRgAQk0AwCKiYVFOm8x6g6s8Ew0l3lahCX0nFBkakSFBXKokOM1aVKbrrpptqoetV5ppllOltGpyaaaKIuWfIRPDrSEZeRZ8JVipFDrAC4LlXJtddeW4wUYsbP/xg9//zzNVcmZnHhOfPzVWX1loZFgliO3iTvpIViENfQmUEYuSNGgNl9aDcsFChQuH5UKR15sG1PSlE+E1juvkVnNgRlLTopDzzwQCTXXExo+5ghat999025wlLL7M6wEbj//vtr92Z66rLQwfzhD3/YbbAh8vF+YpVkNjamts4l/y4ZMKj6LiP/66+/XriS5da4OEcH/Qc/+EGhVERa1ZZZpogLyBX2PB/fNwo5da33HmIl+elPf5rydzkvo7f9/BtFQSkrJnmnF/cgOvJ8I1h2QtGIe4SCwzHxK7nkbPP9yNNfnlVlRZmxrZeHwaBQtCIvW56PGA0UEGYuy4UBLZTFUMKI35h77rnzLAPapyzcj4nRa/Q3O2+jcGetqkQ+GMT7omJSRck0CUigPwRUTErUMNfngX/s9+R+w+hkKCUoMZi++UPK6BidBKaz5Y8THRPcffgjkQudXvx2Qxhd4w8CUzLS6aEDzx8ufvzx5WU0M0bp45rYMvMTHWqmgsT1gZG4I488sjjNH3/+IVhgVlxxxcJXGJcoOisI53EjyTsY+ICH0HGiw1DuKMT5Zm4ZiSOIPCT/I4nyEVYPXMJ41irXEaxURx11VJfpSFHQQnL3q0iL7SyzzBK7tdm0SGAe/xBGl2GH0km7IATixzz/sKdetCXrLiitQQCXJdagiM4vo+7ljhuuWrgS8u0ivH98M1hH+B6vv/76wsqJpYH4FEaP671PoZTwbfN98nsSvylYaviuQykhbmK11VYrFGvcahj5vvrqq4tptevRo7PMoEUoJfPPP38xGQTr8WCVJMAfRR5Fi8kXfv3rX3d7XsqOCQGow8orr5woB4WHmIJGhPz8BsIk6hLX0QmP3xIUFvJ98YtfLCbAoG64k+XW2txVs2qAIcotbwfCE4sFgeIIMXChMDAxR1i784GJ/N4oJVhH+H1nYATBjSr+NvC+MRCSx+LwGxb3IP/f//73pikmDKbxTtT7W8H9qiR3P4t3tCpfuHJxLnddrcprmgQkIIG+EFAxKdGiMxmdBNwt8mkqS1kL32g6viGHHnpo0TGN4yWXXLLozEQcA4tw0amnw4AwisYaHiHMFJYH5dPJpTPDqBqdCnyuUYTyPHEtWzoGhxxySM2qwvFMM81UuGhFPjrrlBfCiD8ryMZz8McyV0zykTGuoczBFrjgnhF/JL/85S8n/oWgcOVSpZRwnk4BnTJGxuOPLKOpIZEWx/k2H1XOffSZGQyrEnEjKJ2hhMS1vD90Yqh7BIViLaEjpgwtATpmeaeJDjP+/7iesI8wZXQ+qULUkHbkm0OYYYrpU8NqyuQMuPqRhtLA7wXfPlPM1hM6urlSG/lwE4xOPB1b3CzDhZHvnxmrsFTiilNPeMdjjQ+UCp47FhTl++YZmXkOBQBlDAtsvQUaURp4X3Mlod59y+m89/xe4lrKQAqDPFEPOuDBPCyV5I2Z+ahX8EGJiZF7FLlGFSPqMxCetC9ti+Suc6SFYlKcrPiP7xvu8A+BPRbusL7DJFdMyBuKHNf0RQGLe9Tb5opDvTxV6XnsVE+/j/GOUgYDRYoEJCCBZhEYt1kFtUM5zNQTLkb80cg78FXPFyOAnEOpoCNRFkZYcQcJYVQshD/GMSLLH+uY/STOs+WPcrgDcUwnpJ7QwSq7epWnyi27TFBWdAjYx2UsF/4oMxpMwCMuCc30g87vE/uM/uK6kvtC4yoXnULyxUh3XIOSgHUJhQbrRViAOI+CkM/Yla86nXc+oqzY5vfLr+E8nTw6IbnQEaBtYtExRqUR0vOOL8/HSHi0e16G+80lQEcYK2L8u+CCCxIuTdFBRunHkpW3NTXgfMRtoSxg0SznwSKKxSwWqWPQIFdg8yfBipp/Y/m53E2Q7zzv8EU+fodiMCPS8m38ZpFGGaEMRB5GzXMrcO7CFnlii5WoP0pJXJ9bNumIh4TyxXH8JuUDIKGIcJ64nmijngaGyFuWZvAsl9nIMYu98jejLHl8ChMR5AJn3Lf424EizEDWcEs+2UpPv/W4z4bk10SaWwlIQAL9JaBi8l9yjI7mCgC+1vmPbxXg3N2gXseD6/JzeQBouE6QhwDPquBIzhEYGR0gLBrxR5tzuVR1XuiUxKg+Lk9VnXGsKiG4bpSFkT8Umv6OwpXLq3fMvbGUECwcQmeS58+FehAvw0g2VijajZFVOo90JPHlzpVG1jyIzljOuKzE5ffoaZ8yUJ5wGyHOhJnYGJmP9Rg4jumQcUfjPUIhoZ7wpx0YjUTpyxXVnu7puf4R4LuJf7wbuWDxwu0RxTeXXDmn81xvxJ73J/+28454Xl5PHc64hpHzqoENymG0HrenKkEZDxdNni93Qczz08mMjnP+u5Pn4Xeinjtanq+n/VzZyAcQIl6Me/D+IyhQoaQw+UdIXr++uo0OlGfUoa/bqt9eysgVzZiJMC97xhlnLCzgWKbz36Y8z1Du5wp4T7+P/J6FtEK9oy5uJSCBkU9AV66xbUgHM2IEaFKC1BsJQgyXL66p1yHgHDEGIfnsUozuh0SnIY7LW1yo4n6Y26tcg6qUjrycen9o8j9Gef6h3Ge0GRe1mKqSe2M1icUO87rgRsO/noRgTMoLywudJBQsOgIh+fSokRZbOnwh+cKOkcaWDmNV0HS49PAObbbZZsUljFjj+pMLSiazJTE6z1ZpLgHcJMvrmPCt8w0yQID7FYIlkA4kSgqSW7N6+x3Ileb8uqKg//5XzyUGS9wTTzxR5KrXsY1y8vtEGtvcNZH713PRIm/Uj0EY3G/KClczFv5kkAPFg3tgBWH2LUbUw2JSDpLGdQwXMxR72oU6xAQV/MaFaxX1702awbO3e9Q739PvP4px/HbXu75V0kNppD75lMnl+uW/nb393Slf67EEJCCBnghoMRlLhxW8wwWAP5RVc7dXQYxAav7wlINn8/x0/MNqEZ0DzuexEb2NVOYd6nbz6cXCQIclV0rYr3Jty7n2tp+PMkf75tahvC3KZeUdvnzUs5yvfMzaM2HxwUKCxYoOVygluHbQGcX1J+J1UITzEchymR43jwDtQSeSCSD47kNwqYk2yL+v3jrr+aBD/j1HuT1tiXcJyd/LSMu3+X3y9LyupPNO1/uXXxe/XXlas/Zjel8sHygLueWk7JqVW5xQFmmDsK5wrrfYjrzOzeCZl9eX/VYY3OlLfevlzRWTPN6knD//7czj8cr5PJaABCTQVwIdbzHBHSvWq2CEjtlMGjVNM5KOWxWjYYwuEUReJQRzRhAuSkxIPtJELERPnRM67yE9+f5GnpGyJTaEuIwIdKcDxvTGuUtIf58lVyhi9C/vaEabVJWfu13kf6yr8uZpoYDglhOKVcQrkI+1LZjZh3+4CzIjFB034k76cp/8nu73jwCDBUwrzQg93zHfGG6C+fdFu/QkTKcdkn/PkdbTNlc2enoXKSO/T15m2epx8MEH56e77OMqGQMo+XfQJVMTDnDPYvpuBNeqPH6k7K7GNMthUWBSAqya4aqax6s0Uq1m8GzkPu2cJ/8N4jcwXO3Kz8w6MSE9/d2KPG4lIAEJNEqgoxUTRjj3HTsDTQjuNmU/9DhXteWPe3Qo+BGv5/aRd25yxSR38WAUvTwDVn7PPHCyL3XMy2i1fZQS4kRipJlZaZgxKKxL9epLgC5/GBn1ZRaeerFAWC9CwiUktzzREaonefxQox0k4liIZ0GwlsRob76yNQvmheSdNNo/7xREHreDSwDm4TrE+4Rikn+X+TtUVZP8fH5dVd5yGgMZvA/MWEVcC9aCeoMi+TuUl5MrQ/wulC0Sed6h2s9nl0LpZp0mhCmIQzHK64IbIwvUYkVEUQzp6+BEM3jGvTt1m/8+YsGq5z0Qrnlw6imGqlM5+twSkED/CXS0KxczJ4VJGv/yvv5Rz/9wMmd9PWHNg5A8mDNXRAiCxrJSJXR4o550Zgcya05V+cORhttFrpQwHTAMe1NKqCtrO9CRYarWfIXj/DkYHY74EtIZiUUIuI2ph7k2VxqLDP/9L9ae4DB3N8nzlPdDyeUP9TrrrFM7He3KSHze8czbMXcdq13ozqAS4B1BOQ4J5TWPG0J5jW8v8sUWhTrcjkiL6+N8I9uILcFKkE+MkV+Lta/eJAkov9ExpJ4ouPWE87gV5i5P9fIOJJ1vjMkoEL6jGLzBTbZK4vuCQSxSiMLYH0V9oDyr6ld2l6vK0y5ptFFYDJl4JNwb8+fDPY8BpJB8gCXS3EpAAhLoL4GOVUwYaWfqUITA81hrpEho8D8WXAvhD2rushDp+Fkz3W5IHuTMD3pYUBiBYlrTsuDny3S4IV/96ldjd0i2dKpZa4A1OeopAf2pCM8UlhIUFP7QNeqr/LWvfa12S6ZsDTetWuLYHQKbI66E8qPzQx4sLiHsExCdC9OvhmLC6G89d4b8GjqVoQhhLckVkBiF5HnpDIfkHcTyyuGRx+3gEGCNDaZojU4znftQFNmuvvrqxY3pLOOel0+GwAm+C9o5lBa+67JbVSM1jw48eVn8MH8n4vqjjz66y0J8kR5bFmQM4buKOkUaW6wyBMYzu94uu+ySnxqU/VBC8rrU+47ytT0if18HieIhmsGTsvKJQvIYmbhPs7b8zWDmPn5v8t+GZpXf13L4Dd5hhx2Ky/j9jAUn83J478P1lneJuC1FAhKQQLMIdOQvCp2RmM4VkIzMsTJvI8IfzBh9x+2DjgAL7iH77LNPMRpPJ4dgSJSNfN0R1jPJXXnIg0/4jjvuWPhV4wZEB4J74BbCHwasAvHHmliMfF78Ruo70DxMRRprchArwUJvA/VPx2WDaX5D6PR997vfjcPKLS4erCeBoEQSYM4fRxhjAYEjo6WMGLNSM8HMIbR1riig3BF4zqxYLMJIhwAFhwkIiG9hXYEQ2jS/NtLL21gnAiUoOrWRJx+Bp/xow3zUsd6sS1GG274TOOGEE7p19FEOeW+YnjZiGSiZYPhcdtppp2IqaL5H3jE6awxE4K7JO4Z1L6a1xcqXr1WUl9PbPu8iZUV9WC+ImcRYPRwlBWtrTAdcryzKwB2Nd4vZsKgr3wRKNQoUHetYgZwyYqa4euU1Ix3LcD4NM99bvdntUAT5bvKBj3pKTG91awZP7pFbbokLw9WO75jf9vI6Mb3Vqd55rKSxxhK/87jlhTW33jVDkc77EzML8j7yvaDQMgBEm8ZivNSFiTsUCUhAAs0k0JGKSdllgk5BPo9+T4AZFQ3FhHyMVtKBoBNER4fOZt7hjLLoDKy99tpxWNvS0TnwwANrP/B0UvhXFv4gEpg/1LO/lINuCfQfqGKSz4bEc6Ko8K8nQTkLxQQLBK5cYbGiQ5PPwJWXc8kll6RYaTrSYYjiwpTDdFQpi39lodMQU8iWz+XH1D1WsM6nnY48zDhG+9HB5R2g04tLTVhYaNeq6Z/jerf9I8C7WjXim5cGd6yB5TgiOp8ou3TMKIcg7lgjI7+euA6sc41a+/Jr2eddZFpjFnpkwIR75UpE5OddjAGCSIstijPniZFBiUE5YQrkKtlkk02K36yqc81MQxGBbSh/KB49CTN55YpJHqfS03Xlc83gSZkoh+eee25RPL89MUEKgx7Ncl0qz4xWz620/IyDfcyA229+85ua5YRBlxh4ye998cUXF5N45GnuS0ACEhgogY505RpI5z4CmnPwG2+8cTHino+yxXmsMSzGl6/+HediS6wJbiVVo4T8cad8zP1VgaN9eZaqukcdYlsuj4DVmNaWzgUjuQMVRqH7KmV3gS996UvFCtGsVVIljDwSmxPWiXIenoX4gpXGuuCUhdl9UDR7muEov4aOJUJnpqo8mFJezBqEa04oJeRnJXmlOQTK729VqVgtsWphqWQEuKyUxDVY0Pguc9fBOMeW9mb0uEpRz+uR7+fXxz5KEMoN5ZUFSyHWxbyjXlUevw3EOKF4VCm5XI9i05PLaiO/D+X61TumrNx9Mt+vuib/7cMdK+IcqvLmz19V52bw5B2hbXuyYOT3zutUrnP8bpd/wxiUCusq7sS5S165jGYc5/fP615VNlZjLORVE7rwLl111VVd4uiqyjBNAhKQQH8IjDM2uO3/l3DtTwleUyMASmJCYuFE3LGYsrYRV6AoBN93Rk1xL2IUls5Rb39E4trB3DLyWdXhqXdPVkRH5ptvvnpZmpZO3VB2mKmLaXhx6cr/CPd2I67HLYd2w6WKf/Wmfi6XhUWJ1eoROoZ5B6sqLyOvWE54L1COUDr7Utdyma1+PJTvwWCywI2F75Lvk44vbkkRk9LM+7IYYVgpUWS5V18F10hG43EVoo4oTo2+z329V6vnbwZP2p4FBVE++tMevTHi94eYlr78nRjK74rfRdwB+fuGosIAXE+KWG/P6/nmERjK96B5tbYkCfwfgXh/+ZvFbwqDOMyyqmLiGzIoBOKFGwrFZFAewEKbQsD3oCkYLUQCXQj4XXXB0bEHvgcd2/Rt8eDx/pYVk4505WqLFvUhJCABCUhAAhKQgAQk0EYEVEzaqDFb6VHCLUFPwVZqlaGtS7R9vAtDe3fvJoH2JRDfVHxj7fukPlk9AtH28S7Uy2e6BEYaARWTkdZiI6S+EfBZtcbICHkEqzlAAtH28S4MsDgvl4AE/ksgvqn4xgTTeQSi7eNd6DwCPnG7ElAxadeWHebnigXKYhHFYa6Otx8GAtH28S4MQxW8pQTakkB8U/GNteVD+lA9Eoi2j3ehx8yelMAIIqBiMoIaayRVNdZ1YA0AZrRROosAbR4Lg8a70FkEfFoJDB6B+Kb8fR08xq1csr+vrdw61m2gBFRMBkrQ6ysJME0pKxkjLBymclKJqS0TaetYLI53YDCm1W1LcD6UBBok4O9rg6DaMJu/r23YqD5SFwKjuhx5IIEmEmAdBtZjYZ5+1hhhlWwWTmNNBQP2mgi6BYoiEBOfZ9wLwlLCujexqGQLVNEqSKCtCPj72lbN2ePD+PvaIx5PthkB1zFpswZtxccZM2ZMsdhbK9bNOg0OASwlKiWDw9ZSJZAT8Pc1p9EZ+/6+dkY7t/tT1lvHRMWk3Vu+RZ7vvffeS2+88UZiJWasKDHVYYtUz2oMkAAWMGaHIRAT/3fdtwYI1Msl0AcC/r72AdYIzOrv6whsNKvcK4F6iomuXL2iM0MzCNBRtbPaDJKWIQEJSKArAX9fu/LwSAISGLkEDH4fuW1nzSUgAQlIQAISkIAEJNA2BFRM2qYpfRAJSEACEpCABCQgAQmMXAIqJiO37ay5BCQgAQlIQAISkIAE2oaAiknbNKUPIgEJSEACEpCABCQggZFLQMVk5LadNZeABCQgAQlIQAISkEDbEFAxaZum9EEkIAEJSEACEpCABCQwcgmomIzctrPmEpCABCQgAQlIQAISaBsCKiZt05Q+iAQkIAEJSEACEpCABEYuARWTkdt21lwCEpCABCQgAQlIQAJtQ0DFpG2a0geRgAQkIAEJSEACEpDAyCWgYjJy286aS0ACEpCABCQgAQlIoG0IqJi0TVP6IBKQgAQkIAEJSEACEhi5BFRMRm7bWXMJSEACEpCABCQgAQm0DQEVk7ZpSh9EAhKQgAQkIAEJSEACI5eAisnIbTtrLgEJSEACEpCABCQggbYhoGLSNk3pg0hAAhKQgAQkIAEJSGDkElAxGbltZ80lIAEJSEACEpCABCTQNgRUTNqmKX0QCUhAAhKQgAQkIAEJjFwCKiYjt+2suQQkIAEJSEACEpCABNqGgIpJ2zSlDyIBCUhAAhKQgAQkIIGRS0DFZOS2nTWXgAQkIAEJSEACEpBA2xBQMWmbpvRBJCABCUhAAhKQgAQkMHIJqJiM3Laz5hKQgAQkIAEJSEACEmgbAiombdOUPogEJCABCUhAAhKQgARGLgEVk5HbdtZcAhKQgAQkIAEJSEACbUNAxaRtmtIHkYAEJCABCUhAAhKQwMgloGIyctvOmktAAhKQgAQkIAEJSKBtCKiYtE1T+iASkIAEJCABCUhAAhIYuQRUTEZu21lzCUhAAhKQgAQkIAEJtA0BFZO2aUofRAISkIAEJCABCUhAAiOXgIrJyG07ay4BCUhAAhKQgAQkIIG2ITCqbZ6kiQ/y72dSOubKlC5+KKXnPmxOwTONTmnd+VPacZWUFp6lOWVaigQkIAEJSEACEpCABNqFwDifjpV2eZhmPAdKySrHNk8hKdcJBeXK7VVOylw8loAEJCABCUhAAhLoDAIPP/xw8aAff/xxGnfccdPo0aPTBBNMkHTlKrU/lpJmWUlKRReHlM09FAlIQAISkIAEJCABCUjg/wmomPw/i2IP963BlqG4x2A/g+VLQAISkIAEJCABCUigmQRUTEo0m2Ut2WSelP75vZTYlqVZ9yiX63H/CODN+Pzzz/fvYq+SgAQkIAEJSEACEmgKAYPfm4KxayEoI2du+39pxfb4lM56tGuewTp69dVX0yOPPJIef/zxNOWUU6Z55pknzTHHHGnUqMFr6r322ivdf//9aaaZZkrHHjs2QGcEyUcffZS233779NBDD6VFF100HXXUUYWv4wh6hG5VffbZZ9PTTz+dXnjhhfT222+naaedNk0//fRp3nnnTZNMMkm3/M1OGMnvQ7NZWJ4EJCABCUhAAo0TGLzeauN1aLucO6/a9ZGGQjm57LLL0vHHH59QTKpk5ZVXTj/84Q/TZJNNVnV6QGmvvPJKcd/BVH4GVMEeLr733nsLpYQs7KPUzT//2OnTRqDccsst6fe//32644476tb+W9/6Vlp//fXTDDPMUDfPQE+M5PdhoM/u9RKQgAQkIAEJ9J+Aikn/2VVeifvWMnN3PXXsFYNnMWHE/7jjjksXXnhh15uWjq655pr04IMPpv3337+wopROt+3hQQcdlO6+++7i+c4888xu1pD55puv9uwTTzxxYV2qJYyQnU8++SSddNJJ6eyzz+61xhdccEH6y1/+kn71q18VFqJeLzCDBCQgAQlIQAISGCICKiZNBP2bsZaSslJy62Mp7TBWMRkswXXqD3/4Q614RsOXWWaZNOuss6Y33ngjPfroo+m0005LL774YsLFZ6eddkoXX3xxGn/88WvXtPPOmDFjiufmGatmxsa16aKLLkr33XdfWmyxxYqp6kYaj6OPPrp4hqg3Fh/eg7nnnjtNOumkRdvfdttt6bzzzkvvvPNO8W/HHXcs3O4WXnjhuMytBCQgAQlIQAISGFYCKiZNwk9cyfYlFy6KPnIQlRIUj1wpOfLII9Piiy9ee6KZZ545LbjggmnFFVdMe++9d7rzzjuLTikuPyussEItX6fvTDXVVOmLX/ziiMSA2xaKVcjWW2+dNtlkkzgstrhtET+z3nrrpT322CM98MADRfqBBx6YTj755I5RUrtA8UACEpCABCQggZYj4KxcTWiSPNg9L27TQQ56f/LJJ2u3W3LJJbsoJbUTY3cYNd9qq61qSZdffnltv2rn3XffLSwtt956a+H+hQLUDMHtjKDs22+/vYjnwJrRF3nvvfeKoH7qhSWI8uoJlgECvz/44INalkgjPbeeUC5pbHsSFgF65plnCgXvX//6V/EsPdWBsqLs999/v1Y05bCwEIoilqy8LrVMDe4cfvjhtZybbrppN6WkdnLszhRTTJEOO+ywNN100xXJtMWll16aZynqAgv+5c/Gc9xzzz3p3//+d2GJ63JRAwc8c1W5VZfCKvJWnTdNAhKQgAQkIIH2JKDFpMF2RfmoN7NWOdidIgczriSqnHekmRGrJ2HE/Jhjjik6nvUC4N9888106qmndrHCRJkrrbRS2mabbRJWmL4KMRDENpxzzjndgvOx6Gy77bbps5/9bN1i33rrraJeVXE0PNeWW27Z5XoUqbXXXrtbeV//+tdracTlLLTQQsXxZpttVigI1OW3v/1tLU/sUP/zzz8/nXvuud3qj7XlG9/4Rtp4443TeOONF5fUtpxDIcK9bt99902HHHJIuvbaa2vn2UFR2HPPPdNSSy3VJb23A5QzlAuEMlBMehPiaHbZZZfEzFnI3/72t8KSEtc98cQTaYsttigOae/ll18+/frXvy4UycjDdokllki77bZbmmWWWfLkuvvXXXdd8fxkgBVl1xNmSePZkD/96U+DMmFDvXubLgEJSEACEpDA8BHQYtIAe2JHmFmLbVnqBbsPZlxJ1GGBBRaI3XTjjTem3iwQdOI/85nPpDnnnLN2Xex8+OGH6Wc/+1mlUkIeOtM/+tGP+jVaTowLsTBVM4bhVkRHmemGq4R6/fSnP60b3M9MWlyfuzM1YoFoJE/Uh8ByFJmq+pOGOxRKX0+CFQDFpKyUcA1Wk1133TXdfPPNPRXR7dwNN9xQS8M1b8IJJ6wd97Sz7LLL1k7Dn/uH5FxY24WZ3GBcFqw9uIy99NJL5VOVx5/73Odq6VdccUVC2asSLFKhlHz+859XKamCZJoEJCABCUigTQloMemlYVFGInYktqF0DEewe17dySefvFAyGOWmg4zlgeD25ZZbLjEy3qjQGcUlKKaZJXh6jTXWKOJTcBe78sorE8HTBM8Tq8II+ujRoxsqnhH5M844o8iLdYE4B0bbsWoQ68KIOELHHGtNPo0tndeDDz64Vq/ZZpstffWrXy2uZ40OOuZXX311cT3xNQR7E2ODRYipkxFmn4qOLspRWDVY26URIYYnZruC6brrrltYNsYZZ5yiXrhCwR7FiPVCyvEdcY+YGYy2WW211dJcc81VKAQobbhHIayhsvTSSze85sxjj42dWeG/wholjQoMsA5FrAnvT7h35WVccsklxSFWH5QZ8sAyVzJPOeWUtPvuu+eXVe7DbvXVV09Ma40ixAxxYbHKL8CyEkJbKxKQgAQkIAEJdA4BFZNe2jqUkcgWxzeO7RPGfpxj+7nunkD56abv/+QnP0k777xz4S5EB3m//fYr7vGFL3yhmGVqkUUWKTqA0SGvqgCKB1PIIlhTUFJiIT46j6usskrhaoRyQgf7z3/+cxf3n6oySWP0mwDrkEMPPbTLVMUEnNOZRyHB3QmrA9MZh/z1r38tlCKOUWqOOOKINM000xSnsf585StfKSxAKCUIs42hmIw77rgprEnEVYSQ1hOHyBdbFqlEWQih/vksVsT1MLEAAefIiSeeWCgtdPqrhDahfaIOKCeU8Z3vfKdQ+lD8/vOf/xRtUHV9OS23VqCU9UVQPkMxee211+pey1xloAAAQABJREFUut1226UNN9ywdp778E6E2xgWoEYUEwpA0UAxQVBAqhSTUDRRZFDiFAlIQAISkIAEOoeArly9tDUB7GVBIcG1qyxVect5mn3MOhx0zMsj3lgTcD9iWlgW1TvhhBMSI+NVkgfDH3DAATWlJPKycCJuXiH13K7ifGz//ve/x26h2LAKfVnolEdHvuwyhLUl5Oc//3lNKYk0tuuss04xEo8VhhiZei5C+TWN7v/jH/+oZSXuIVdK4gT8cXcKyZ850mL7/e9/v6aURBpsscKEPPfcc7Hb6xarUQgKZV8kt7CwIGKVEE+UKyWRh6moQ2lAoYR7I4LSiIKJVLlzocg+9NBDxXmU4QkmmKDY9z8JSEACEpCABDqDgIpJL+1MwHsjCsdQBLvXqyqdY1b8RkFZc801u2XDkoI70ne/+92iQ5hnYLYkZrlC6DTWC2bGPSo6v2UFIi8v3w/XMNKIbakSXKLiHPUMKwAzQoX7E6PnkadcBtYRAsexpmDR4LhZctddd9WKymMkaon/3cnPMVtXlcA2d1PL8+QTCsCgUcnd6fLYkEaup91D6jHDKlVPcKsL6cniEnnYcp+YlCDcufLz119/fe0QdzdFAhKQgAQkIIHOIqArVwPtXczGNdZyUmUl4XKUkog7aaC4QclCp48Raf4xgo91hEUDsZwQyxGCRYS8uEEhr7/+epwqYiWIAakn0WnG5YiZspiGuCfJR/Sx3NSTKJfzxDDg3pV3drGooMAMteRB4fUUNuo0/fTT16qWP3MtcewOblv1JNzmON8XBWPqqaeuLR5Je1e5RtW75yOPPFI7NeWUU9b2853ZZ589P+yy31vbd8mcHfDenX766UVK2Z3rqquuKtJR1HBBVCQgAQlIQAIS6CwCzRtebnNu9Swng72ye3+wEsOA2xSj0wSPn3XWWcUCe1FWPoMVCkYuKAn1/uX5Xn755fywcj/PU6/MXCmhkFAGWEslZMYZZ4zdId1G/XGTy60T5Uqg6IUFofw8kZc8zZbcfY94mL4I66iEoOBUyWDUGWUnXPdydy6U3XDjYuKF4VBEqxiYJgEJSEACEpDA0BHQYtIH1lWWk6EOdu9DdWtZGe3/5S9/mTbaaKMiyBxXLNZAYXrZ8sg3ikw9Yere6KDXc0vKryVQnRgE5KCDDqrb2SQuhI4o/yIOJa/XU089lRc7ZPtRf5QlFmocf/zxK+9N/fP1RCozDUIiLnzXXHNNUXLMPNbIbWjHUALIP2cf41MauUdPeXA3jGmKY3aufDausOb1VIbnJCABCUhAAhJoPwIqJn1s01w5aST2pI/F9yk7I86M6jOyTYB7TyPcTC3MSHXEfXAdCks+axVxEPkaF32qTEVmRvSjw85IeR5LUZG9S1JeLxQpOv89PV+Xi5t0gPIV9We2rHozX+UB67kVo0nVqFsM63wwqQHCbFZbbbVVmmiiiermjxO5ErDYYotVTioQeQdjy0xmTDmNhDtXuHER19KX92Qw6meZEpCABCQgAQkMD4Hm+5cMz3MM6V3DratQUob0zl1vds899xQrlbOuRG+L82EhCaWEUmLaXdy+mLIWwQ2JWIV6wnliKCJAvV6+SM9Xc7/99tsjudv27bffLsql7AjKRgmJmZ+44Kabbup2HQkoLKxV8oMf/KAIgue4npTd1urli/S8/nlnPs7HNg/a7uvq7VFGf7ZYOsLCRNuwJkpvQkzR0UcfXcu26qpjp5gbYkFJXmmllYq7olzns3F97WtfG+LaeDsJSEACEpCABFqFgIpJqSVmGl1KqHM4EKWk0XvUuXUtmQXrQhg5j9H9SIstrjux4CBpWE7yVcLzGZD22muvQkGJa2OLqxCB8Uwfy0rrjUh0PsnLCHnVbF4oJTvssENRLmXnMRr58xG0Twe2LOeee26xBgsrkdPhLVtVcgtCzPJVLqPeMSP7Iay1UqVc8UxMyxySP3OkDeY2bwtmZqOe9ZSzMWPGFNNHB2PWMhkuRSDaFjc5FOsQVrBXJCABCUhAAhLoTAK6cpXafd35UzruvlJikw+5RzOEWZgYNcfKwb/NNtus6OCTjjsMAeSsDs5ChXlMAdMG58LCd3TsWfyOIGQUhS9/+cvFAo10cunQx+rnXMd9GhECwvfYY48iAJ/8LMSHEsSaIygR1I3A/Ogo00lmRq4QOvm4qF1wwQVFrAozezHCj1WCtTdQFFgcMmT99deP3do2gtJJOOywwxKzUbGGB1aifDas2gXZDut1oKgRn4Pss88+BReuRQHCApXfn9nQwoKRFTOou7g+odChlCDMeIVbFyxwPSMuhhnOmJntwgsv7FKX3Xbbrdu6Kl0yDOIBbcg00MQgMXMcwtolTEutSEACEpCABCTQmQRUTErtvuMqY1cQH7vG23Mflk406RBrCfdohhAszvodWBNiLZLooFaVT0dw3333Tfm6G+SjnF133bWIV6EclJMzzzyzqoi0ySabFMpF5cmKRGZYYqQ+VndndXb+lYXOPgsQloWFDbmexQ5RYM4777ziXzkfnWyCwcuCIoNVBeH6mKqWUfqqBRPL16NI4bqGRYpONKve868sKGuxRkf53GAff+973ys6+TBGsJyhhNUTYolwf6viVe+aZqczicJaa63VpS2Hw62s2c9leRKQgAQkIAEJ9J+ArlwldgvPktKV26e03dhlFJrlcsUtKIsyKZt7NEtYg4KZtLbccstuq7/n91h66aWLznVZKYk8dBRRWlA8UGDKQpA07lhbb711+VTNfSpm7CpnYHV3rAm59SLyYNnBksIz5O5lcR7LBFaLLbbYolu9qCfPhZJRtbAkZWDBOOqoowpLR5RZ3ka9y25gkW/jjTdOKD716k98y//8z/9E9sotsTz1JD+X79fLX05Hsdx8882LBTa/8IUvlE/XjuGFteyUU06pq5TkDPL9WiH/3cnP5fucjuPgWr42jrHKhURbxrFbCUhAAhKQgAQ6j8A4Yxd0+7TzHrt9n/jNN98s3LqIx8BVCXeemWaaqdZZbOTJCUBn1i4CpVEWmJ2q3lS5jZQXeXjVcCvCDYvONOX25k4V17KlXlxLGUwnzPomlNOoMOXv+++/X7Doy32j/Lz+pLH+B4phX+oQZQ3mFgsPVi8mEyC+iBnOWARyjjnmaEo7NqvuWOdQ+BCmssbyo0hAAhKQgAQk0P4EYj01+nYMaDKYOcEEEyQVk/Zve59QAi1HgB+ibbbZJsX6K+ecc06hQLdcRa2QBCQgAQlIQAJNJ1BPMRnV9DtZoAQkIIE6BJ5//vnCmsNEC6GU4IaHVU+RgAQkIAEJSKAzCeDhwaCliklntr9PLYFhIYDLVi4E4m+66aZ5kvsSkIAEJCABCXQoAYPfO7ThfWwJDDeBZZZZJp144olaS4a7Iby/BCQgAQlIYJgJEGPCRDjGmAxzQ3h7CXQSAQLy+fFh0oCYvauTnt9nlYAEJCABCUggJWNMfAskIIFhJ8BMbIoEJCABCUhAAhKoIqArVxUV0yQgAQlIQAISkIAEJCCBISWgYjKkuL2ZBCQgAQlIQAISkIAEJFBFQMWkioppEpCABCQgAQlIQAISkMCQElAxGVLc3kwCEpCABCQgAQlIQAISqCKgYlJFxTQJSEACEpCABCQgAQlIYEgJqJgMKW5vJgEJSEACEpCABCQgAQlUEVAxqaJimgQkIAEJSEACEpCABCQwpARUTIYUtzeTgAQkIAEJSEACEpCABKoIqJhUUTFNAhKQgAQkIAEJSEACEhhSAiomQ4rbm0lAAhKQgAQkIAEJSEACVQRUTKqomCYBCUhAAhKQgAQkIAEJDCkBFZMhxe3NJCABCUhAAhKQgAQkIIEqAiomVVRMk4AEJCABCUhAAhKQgASGlICKyZDi9mYSkIAEJCABCUhAAhKQQBUBFZMqKqZJQAISkIAEJCABCUhAAkNKQMVkSHF7MwlIQAISkIAEJCABCUigioCKSRUV0yQgAQlIQAISkIAEJCCBISWgYjKkuL2ZBCQgAQlIQAISkIAEJFBFQMWkioppEpCABCQgAQlIQAISkMCQElAxGVLc3kwCEpCABCQgAQlIQAISqCKgYlJFxTQJSEACEpCABCQgAQlIYEgJqJgMKW5vJgEJSEACEpCABCQgAQlUEVAxqaJimgQkIAEJSEACEpCABCQwpARUTIYUtzeTgAQkIAEJSEACEpCABKoIqJhUUTFNAhKQgAQkIAEJSEACEhhSAiomQ4rbm0lAAhKQgAQkIAEJSEACVQRUTKqomCYBCUhAAhKQgAQkIAEJDCkBFZMhxe3NJCABCUhAAhKQgAQkIIEqAiomVVRMk4AEJCABCUhAAhKQgASGlICKyZDi9mYSkIAEJCABCUhAAhKQQBUBFZMqKqZJQAISkIAEJCABCUhAAkNKYNSQ3s2btQ2B9957L73xxhvp3XffTR9++GH69NNP2+bZfBAJDAeBccYZJ40ePTpNNNFEafLJJ08TTjjhcFTDe0pAAhKQgASGjYCKybChH7k3HjNmTHr99ddH7gNYcwm0IAGU+w8++KD4x/c1xRRTpOmnn74Fa2qVJCABCUhAAoNDQMVkcLi2banPPPNMeuedd4rnY2R3ggkmSKNG+Rq1bYP7YENK4KOPPkrvv/9+YYlEOcEaOcssswxpHbyZBCQgAQlIYLgIGGMyXORH4H2xlKCUjDfeeGnKKadMk0wyiUrJCGxHq9y6BFDy+a74vvjO+N747hQJSEACEpBAJxBQMemEVm7CMxJTEu5bk002mQpJE5hahATqEUBB4TtD+O74/hQJSEACEpBAuxNQMWn3Fm7S8xHojuC+petWk6BajAR6IMB3xveGxPfXQ3ZPSUACEpCABEY8ARWTEd+EQ/MAzL6FEFOiSEACQ0Mgvrf4/obmrt5FAhKQgAQkMDwEVEwGyP3NN99Mb7/99gBLaf3LCcJFtJa0fltZw/YhEN9bfH/t82Q+iQQkIAEJSKA7AadT+i+TV199NT3yyCPp8ccfLwJP55lnnjTHHHP02BG/+uqr03777VeU8Mtf/jJ9/vOf7064TVIGsk4Jsww9+OCD6f7770/33ntveuGFF9J8882XFllkkbTgggsWnAn0HQy55pprCjcYXGJWW221wbhF08p88cUX04033liUt+iiiybewZEqr732Wpc2f/nll9Pss8+eZptttrTCCiukBRZYYFAfbSS1eyMgBvL9NVK+eSQgAQlIQAKtQKDjFZPLLrssHX/88QnFpEpWXnnl9MMf/rAWiJrnufjii2uHf/7zn9taMak9aB936CBuvvnm6a233qp7JR3wc845J80777x18/T3xK677pqeeOKJNN100xUd5f6W08zrnnrqqfSzn/0soczONNNMtaJR2rbYYovi+Be/+EXafvvta+dGyg7rcBx++OHp4IMP7rHKX/rSl9Luu+8+aN9MK7Z7j0A8KQEJSEACEpBA6lhXLtYLOProo9NBBx1UVynh/aBjve2226ZHH3202+uyzDLL1NKWXHLJ2r47/0dg//33T9/85jd7VErICdsvf/nL6corr2x7dBdeeGFaYokl0h//+MdirYp2emCsYl/96ld7VUp45n/84x9prbXWSscee2w7IfBZJCABCUhAAhIYAIGOtZjQIfrDH/5QQ7f++usnFI1ZZ521cP2hs3zaaacl3GueffbZtNNOOyUsJOOPP37tmk033bToZI4zzjgJ1xvl/wnccMMNxch5pGyyySZpyy23THPPPXeadNJJE649d999dzr00EPTLbfcUigvG2ywQbr22mvTYostFpe13faf//xn3Weaaqqp0rLLLlucH2mL6j355JNp+eWX7/Jsu+22W1p99dULt62JJ5444d51xRVXpKOOOirdd999Rd699967aHusJ4oEJCABCUhAAp1NoCMVE6bezJWSI488Mi2++OK1N2HmmWcuYh9WXHHFRMfpzjvvLBY6owONf3wICslnPvOZOHSbETj99NNrR3vssUfiXy64Vn3lK19JMP7Wt75VjKBz/rjjjiv+5Xk7ZR9Lyl//+tcR+bg/+clPavUmdui3v/1tEUNUSxy7w6KBDACsu+66CaXljDPOKE5jtVx11VXTZz/72Ty7+xKQgAQkIAEJdBiBjnTlYnQ3BBesXCmJdLaM7G+11Va1pMsvv7y2z87HH39czMjFrFyffPJJ7Rz7pDX6L7+2Vsh/d5gmFOvNrbfeWsRIjJT1DO65557ao2BZqifMOkSsRch1110Xu3W3BAL/5z//qS34WDdjH08w8xHxKATr91VwDaROzz//fJd3oa/lNJofBtxrIKuCEw/Ct0DdByK44P3lL3+pFfG73/2um1JSOzl2Z/To0emII45IX/va12rJxHE1Ijz3008/XQwUNJLfPBKQgAQkIAEJjBwCHWkxyVdRzoOPq5oNF61jjjkm0SGKlZgjH7NyHXDAAcXhIYccUriCcUCnfOedd45svW4p4wtf+EKXfExDfOqpp3ax7ESGlVZaKW2zzTYJy06V0FklmH+wZz6qunekTT311LGbbrvtttSTa9JCCy2UVllllcJNjutQ1MYdt7vOfNFFFxVMsGBFMD0M4IFla8YZZ6zds9EdOue4Fl166aXprrvuql3GqD8dZzrMsZZE7WS2w+QJJ5xwQuGCliUXz/PjH/+4ZgWg407MDXEYIViKKJs4nB/96EcFJ1wGkV122SXh2lYWFDfetZwBCvRyyy2XCPgOV7D8OurHu4Q71VVXXZXOPPPMdN5556Xrr7++lm3ppZcunhXXq77KPvvsU7sEy9icc85ZO+5phwD5UGhg/9BDD6X555+/uASXt/iGUHRwqfzNb35TWNai7Xm/N9poo7TjjjumRmZ1I28MSvz+978vZgmrqt+//vWv2sQDKNU77LBDVbYuabD84he/2CWt0QM4lC2KjV5rPglIQAISkEA7Eeje+2unp6vzLHmHnelZext1RjnBZaunDheKS7OEkXtmbcrdzfKyicOgI1tlPSGomA4tAfu5JSK/fij2cc0JYYYp4knqCS5xdJTpMKMklJUSlLTvfe97RYwKHcDomFIe8T9nn312+tznPpdQEvoiTA9NsDaccqWEMoiBQAFA6aHDXBbaCEVg44037qaUkBcrAq5qdIARFMVcKSEN6wxpzz33HIeJ5+SYfy+99FKRFv9h1YDBOuusUygUOQP2ud8aa6xRvDflNS8onzLpcKMcff/73++ilHAPlEeehRm1+iJY9Cg7JBSrOO5pi7JKAHzIJZdcErvFux0saN8111yzUGLy5+b8z3/+87ThhhsW1svaxXV2mJo6ysxn1CtnP/fcc2v5Gol3QrFYe+21i3/lsno75jquz5XE3q7xvAQkIAEJSKBdCXSkYjL55JPXlAw6jHTisX688847TWlnFB+mIK7376c//WntPsRa5HEqKDh0Du+4444iDyPIjBwTe7HnnnsmRrYROuRYCcqd0BiBJg+uZ7l1iLShknzkHVc0Ovh0nHk2Osh9cR/ad999C8WFumMdoDNKJ5YYhbAq0GGlY01nvxGB27e//e2aQoLSiWWMGA9YB2c6sgTulzkTQ4EVImS77bZLdGhJx/oTQjpKDmvccC4PEEf5JI3yexPioFDeQhjF53502rGehTDT3EknnRSH3baheDCFM/dGacxjO1BcXnnllW7X1Utg3Z8Qpn3GKtMXyd256imvuH0hzNwGB5TXXKHh20VZ703iXSEfVpgqwY2PqasRrHGNrE2EtQNrCcoFikajQt6wtPTX2tLovcwnAQlIQAISGAkEOtKVi4YhWJcOP8oIykkslIhLFaOkuPLgYtSIi0i5oSeccMK6blQoCr/+9a9rlzBaj6IUkvvr01mmIznJJJMUp8PlCQWFEW46cqyfst5668Xlaamllko333xzcYylh7oMhzA6jQUDd6UY5WbyAP7R+UVY8JBOPNYVFrOsEp4xFACUEixczJwWQgeVZw5XGJS+CKqOPFVbgvNRmBDW1KAzyiKMCO5QBGgz+n/BBRcU+cgf8UZYqlAqQs4///zCOhLHdIDJGxYvlAfc9eaaa650++23p5tuuqnI+vWvf72YpSyuq7dFsQmXQfL86U9/6uL6hxIIx+h4825jWann6odSl3eEv/vd7xYWibAaoZw1oixRl7JiQlpfBCYhzzzzTOx22+IWR8B8CC5WWKzi3aCdsFD1JAsvvHART8Zz0va8W2WLCN9fvK+bbbZZw98/TEPRYJtbf6rqFHlph97yVl1vmgQkIAEJSKAdCXSkxYSGZOVxRl+xWOTCNLeMmOO3Tqca//xGR+HzcurtM9obrkF77bVXUY88bx5gT2c0lJLIQ7B43ilmNfVcvvGNbxSj4MRGDKcrF3XCvYp1YOqtuM6zMk0sI/YsLEjweFmwYoTQXrlSEukoAWHhQFGLOII4X7UNRZRz3COUkshL7MeBBx4Yh0Wwdhw88MADsVsoAFUd4nyWqkbqUyuwYoe4kBAsMOV4JM6hmHznO9+JbOmss86q7ec7WJVypYRzWDnya7HGNSqPPfZYLWuuZNQSe9nJY5Gq2p/LUdAj3iQvLhRF0npSavJrsBSFhOIYx2zD9Y59ZhDri4TC15vlRKWkL1TNKwEJSEACnUSgYxUTGhnlhI4IHV582MuCJYXRbkaUWX9hoMJId7haYeUod9iZ5YvZtxDWtKgXME4QPp01hNXCc8HCQ8eTzk9uicnzDOU+7j24HD388MPp5JNPLtytysog9WHBQdxmyu48+exeuYtU/gzEqBArEtKbIskaKjEqjlJUpexQ1jTTTFNYU9insx6ufjnzvENPvhA66XTauRexMwMRrEQhsTJ8HOfbrbfeunYI7yqp55o022yz1bL3xc2Odzakp9nlIk95+/rrr9eSykp4nMD9LV8/KNLzdmvUZRFLUghWsvxZietBsUWwmrHmTl+lN+VEpaSvRM0vAQlIQAKdRKBjXbmikQm0Zrpg/mFloFOL6wyWE9yOQrBekLdqdDzy9LTFshEuXLiUbL/99t2y5500lKLcRaucmfMIHWY62bg5tbLQyed5+EccDYHnBOqj+BFzgvAcjFKjnGCxoNNLjEdIPXevOB9bFALWR6knuQWDe+ej9vWuIZ3rcKfLlaW8c1y+lnU7miG5YpIrEOWycz5lS1rkrVdf2ickVzYird42VzJzrvXyl9Pza+rVbfbZZy9fVhzns+Q1WmcUfiyhuH4x0xffebwruUtVT1NcV1YmS6ScUEDYRrmRpvtWBstdCUhAAhKQQEagoy0mGYdiF2sDI/x0IJgpB3eYfEV3pqvtj6BE4LaF4DaDGxFrOZQlRvEjnevq/Ys8bBmVH0mChQNrFSvB4871q1/9qlZ9OotM3Yuw3x+p5xIUZbEORn8kXJxyV668Q9+fMvt6TU9TF+fKad7hz+8xxRRT5IcD3s/jWHJLUqMF565g9SyEza4zkx6EEB8Ukru/Ef8zEClbTlRKBkLTayUgAQlIoFMIdLzFpKeGpqNEnAbrH+DGQ8cLl5G+BJQzksssUmHhIG5h2mmnrbxt3rEkA8pRPWGWqFBuZphhhnrZhiWdGJ1TTjklvfDCC+nEE0/s4mZVrhDKILECWFCI50Gi4593SGHDjFONCMplT5JbMnDZYRreRoQJEZBcGXnttdcatrg0co+qPLwvobTiekScUZWEqxnnhuqdWGaZZWpVQXHL1yKpnaizw7cRro1kWWGFFerkbG4y98HSg+KLxY5poYlRCcsd0w83ww0yt5zwBFpKmtuOliYBCUhAAu1HoLqH037P2eWJiBfByoBrFm4d5XUz8sx0UJhhKqbv5bp6I7v5dbHP1K0shocwxWu9VeY5n3fEcTmpWiyPfK0uTLkaM16xXkQe/1Gv7ksssUTt1Ntvv13sE5DOiHy4qzHdcFWsQe3CBnciPofs3COPO2ikiFzxQfmqF4tAp/epp54qFvJjlq++TqUbdeH9w8UQYbX3ei5PeQD49NNPX+Qf7P9QGJkNLKYyZsa4qqDyqnoQ3xUzgXG+Ks6r6rqBpqHYEasTljpcCmNCCspmIKJZEsoJ5YVLV7PKthwJSEACEpBAuxHoSFcuYgRYw+HYY4+tTa1br2GxkIRSQp58tLzeNZHO2gqxJsLKK69cKEFxrmqL9WDJJZcsTmFhic5oVV7O0ykuL8RXlXeo03Lli84n1pDehLUoQvKOPp3ykL/97W+x223LLFjEIhADlM9s1i3j2IRcsaSN8g59np8RfdqNdWnoNIcLWD77VARL59fFPpYyOr/1ViZvdFHOXBEKBSDukW/jXSMt3qP8/GDt5+uowDOf2arePVGw4BPCJAK5Yh7pg7VlQCIE10EmpkCwpJRnLYt8/d2ikKiU9Jee10lAAhKQQCcR6EjFJF/8D/eh6HCWGx53KRZJDKGT3KgbF0rFvvvuW1zKCD3T4hJb0ZvkM3URlxIuYPl1WCMIIsflZJdddslPFStmn3baaYV7SlgtumQYggOCifPONNMGR8evfPsPPvig6KASjByCZSSE6W1DWO2+Kp4GixTuY7g74Y6TxwXFtfk2RswjjTVQ8tmZIp01MhjRx+VnzJgxNYUmf3+4bx4nEddiLYkYGTrBERuSW3yq2jauz7f5tLUsNpivHRL5GPGPhQhJG2iMRJTbyBYlKJ/OlymNWfwTy1mVoDjyTgQfrGLxrVTlH4y0eeedt2aRZNY01gVCsKQwQKBIQAISkIAEJDD0BDrSlYuZlVAWUB74x0JqdPJJp5P07rvvFp1NFprLXTy+O3ba4EYEV6R99tmnlhVXoX//+9+14/IOFgJctxDcnuhoszghLky4f7HiNQvBMR0rM1bR6Q2h7rnEauCk0Umn09WTq1p+bbP2uR+xJTCNzifrR6CssN4IFgiUA2JJmHGKNghhgcQ8oBoFjGmGWZSQspjuljgdFlXEWoRbHpavEGZTyq+P9PIWpY/AZ5QZ4hzgzr3nn3/+YlY22j4W7+NaFvcLjjPOOGPR8WbVdGSllVZKhx56aFpuueWKGccYHc/XmsljWPKZpFCIvvnNbyY6yblCWhSa/UfbM1EAHKgvih8MYhX56667rouCyuxydPyHUngWZrNjgUKENoErz/WZz3ymiNngG2A67Nw6Rl6eK4/7IW0ohG8nn3mPe+aWlKGog/eQgAQkIAEJSOD/CXSkYoLlgtFlpgCOdUN6cj8hNoAR3UY7e0xxm1thWCelJ0GJiWmIqRsrWmMZoG4oJ/XWwWB17nKHlvwh7GORaNTKE9c1Y0vMCG49KAoRVIwFpycrDvE4LBCZCzwIeudZ4Ypyki+sl+fFBSfiBvL0qn1c8rgfZYWlBSWoSn7wgx/UVlWP81gFGGVHgeT6XPmIPGyZIjp3q8qDxeHCP5S1cjvmZbCPIsXzs3gf92NV+ir5/ve/XyhNVecGM413DIWZ7yQURRTOmNCg6t4oqLzbuXWtKt9gpWFVws0uhJgulERFAhKQgAQkIIHhIdCRrlygZoSWWa8Yic7XYig3A51GOldVSknu8lFvv1xe1XF+LeeZbYsOHp3xqoBpRtDp8OYL6kW5BCKH9WXbbbcdFqUk6jLTTDMVC9Zhbajnt4/lijqzunlZKYlysCih5ODKVZ65jDykoWSiXJaVsDLbKJMtygDKH4HpVULH+fTTT+9i/Yp8BM0zvSxKZ9X7wwxeuK+VF0QkZoW2zSVmIQuLDOfyfY5pUyYSQPGquh9WooMOOqiLpYbrkJi9jf16M3rlnOrl4fqehOuwImHByVdYL1+DpQcXyWuuuaauUtLX+uQuctwvv758/zjGeoVVL4TvTZGABCQgAQlIYPgIjDM2APfT4bt969z5zTffLFyKCIRmBWo6w3Ssyx3Eoa4xAdhYT1h8kU4308CWO2HlOnENMRMR11A+35/jWEm83lTHjZRJvRhFx2qCwkUsSH9ceIj3iPqw4CCd8v52pqPe1A0rF/EbdFgJpEcBaCQuiDJwK8Ptj/cFC0CV8hD3Ykv8Be8aSgMzaPW1rXgnuB/tTDA/iys20hnP6zDY+1jrnnvuucS6MrhH8j1R1/60+WDVFaU43M9o+6EMwG/0mWKCC9b+USQgAQlIQALtQCD6cfS/6DvRH6IvpGLSDq07BM8QL9BAFJMhqKa3kEDDBFBEYwY5Jlk45phjGr52KDOqmAwlbe8lAQlIQAJDQSD6lWXFpGNduYYCejvdo1HLQTs9s8/SfgTCQIwFMp9JrNGJLYaLiN/fcJH3vhKQgAQkMJQERg3lzbzXyCWAiQ3XnJ5WHh+5T2fNO4UAs7kxa17MFsdzr7LKKsUEBK3IIKaxzuOEWrGe1kkCEpCABCTQDAJaTJpBsQPKINgbqbc2RQcg8BHbgACTCORKCZMv5GsVtdojxvcW31+r1c/6SEACEpCABJpJQItJM2m2cVmTTz55EYBPEDPBSQMNNm9jVD5aCxPYaKONarVjVjZiS2IWu9qJFtnBWsL3hvD9KRKQgAQkIIF2J2Dwe7u3cBOfj9mw8M1n9idmrlI5aSJci5JARgClhJkCCQpkpjBmblMkIAEJSEAC7UKgXvC7FpN2aeEheA46Rx9++GF655130muvvZZwL9F6MgTgvUXHEEAhwX0rLCVMq61S0jHN74NKQAIS6HgCKiYd/wr0DQDrUITlhM5TdKD6Voq5JSCB3ghoKemNkOclIAEJSKDdCKiYtFuLDsHzMIKLz/sbb7xRKCZYUWIa1iG4vbeQQFsSYEpgZt/CEsn3xYKqigQkIAEJSKCTCKiYdFJrN/FZ6TTZcWoiUIuSgAQkIAEJSEACHU7A6YI7/AXw8SUgAQlIQAISkIAEJNAKBFRMWqEVrIMEJCABCUhAAhKQgAQ6nICKSYe/AD6+BCQgAQlIQAISkIAEWoGAikkrtIJ1kIAEJCABCUhAAhKQQIcTUDHp8BfAx5eABCQgAQlIQAISkEArEFAxaYVWsA4SkIAEJCABCUhAAhLocAIqJh3+Avj4EpCABCQgAQlIQAISaAUCKiat0ArWQQISkIAEJCABCUhAAh1OQMWkw18AH18CEpCABCQgAQlIQAKtQEDFpBVawTpIQAISkIAEJCABCUigwwmomHT4C+DjS0ACEpCABCQgAQlIoBUIqJi0QitYBwlIQAISkIAEJCABCXQ4ARWTDn8BfHwJSEACEpCABCQgAQm0AgEVk1ZoBesgAQlIQAISkIAEJCCBDiegYtLhL4CPLwEJSEACEpCABCQggVYgoGLSCq1gHSQgAQlIQAISkIAEJNDhBFRMOvwF8PElIAEJSEACEpCABCTQCgRUTFqhFayDBCQgAQlIQAISkIAEOpyAikmHvwA+vgQkIAEJSEACEpCABFqBgIpJK7SCdZCABCQgAQlIQAISkECHE1Ax6fAXwMeXgAQkIAEJSEACEpBAKxBQMWmFVrAOEpCABCQgAQlIQAIS6HACKiYd/gL4+BKQgAQkIAEJSEACEmgFAiomrdAK1kECEpCABCQgAQlIQAIdTkDFpMNfAB9fAhKQgAQkIAEJSEACrUBAxaQVWsE6SEACEpCABCQgAQlIoMMJqJh0+Avg40tAAhKQgAQkIAEJSKAVCKiYtEIrWAcJSEACEpCABCQgAQl0OAEVkw5/AXx8CUhAAhKQgAQkIAEJtAIBFZNWaAXrIAEJSEACEpCABCQggQ4noGLS4S+Ajy8BCUhAAhKQgAQkIIFWIDCqFSrRinW488470y233JKeeuqp9NFHHw2oiqNGjUqzzz57WnbZZdMSSywxoLK8WAISkIAEJCABCUhAAu1IQMWkolUvvfTS9I9//KPiTP+SUGwee+yx4t8zzzyT1lxzzf4V5FUSkIAEJCABCUhAAhJoUwIqJqWGxVISSsm6666bllxyyTTBBBOUcvXt8P3330933HFHuvjii4uyZ5llFi0nfUNobglIQAISkIAEJCCBNidgjEmpgXHfQlBKll9++QErJZSFYkNZlInEPYoD/5OABCQgAQlIQAISkIAEkopJ6SUgpgTBUtJsiTLjHs0u3/IkIAEJSEACEpCABCQwUgnoylVquQh0H6j7VqnY4jDKjHtU5elL2nvvvdeX7F3yjj/++GnccdVLu0DxoN8EPvnkk4TL4rvvvltYCMcbb7wuZXE8evToLmmtdMC39O1vf7uo0uqrr5623XbbVqpex9Xl8MMPr7nU/uEPf0jjjDNOxzHwgSUgAQl0IgEVkxHa6i+99FL61re+1e/a77vvvmmllVbq9/VeKIGcwFVXXZUOOOCAPKnb/myzzZYWWWSRtNhii6U11lijpTqbKFavvvpqUec33nijW91NGFoCtEG0x6efftpS78rQkvBuEpCABDqLgIrJCG1v/lgPROiIKRKAwEMPPZRQVJGNNtoorb322sV+s/97+umnE/8uu+yyYjKI3XbbrSkxXM2up+VJQAISkIAEJDA8BFRMhof7gO862WSTpe22266ynAsuuCC9+OKLxTlcUqpctuabb77Ka03sPAK4MT377LPFg7/++usDBjDPPPOkddZZp1bOxx9/nF5++eXEjHf33ntvkX7llVcWSgnKiSIBCUhAAhKQgAQgoGIyQt+DCSecMG244YaVtb/ppptqiskGG2yQyv7+lReZKIEmEcDqsuqqq1aWdsUVV9Rcvq655pq06667VirOlRebKAEJSEACEpBAWxNQMWnr5u354T744IP04YcfFh3DiSaaqMjM6PbDDz+c3nzzzbTAAgukySefvFshBDgzs9g777yT5phjjjT11FN3yxMJuJyRDyH4f9So/3vlGKXnPihNs846a+V9oox8y3VPPPFEYjv77LP3eO96z/f8888n/k0yySSJNWWwPjUiuL+NGTMmsUjmlFNOWdy/p4Bu6ghPnjkmPoDdgw8+mCiLWIvgEfeHF/d44YUXEpMkTD/99GmmmWaqq1wOhC9tD6NoH+pAAPvbb79dVIdnY5KEZgoKC/EoN998c3HfRx99NPVkvSPOAPcvOM0555xp4oknbrg68H/uuecS8Vi8o7yrZd4NFzY2I21G+yEEY1fVBZ5Yn7BY8o4QV8MgAlL1PpJerw1feeWVBB/ezwUXXJCsXYR3i/eYe1HGtNNOW7wrPT0jbU1e2rXeu0u5sEP4XcgtrlXvNPlZQJb3hu+JejQSrJ6zon24Nlh1eVAPJCABCUigYwiomHRMU3d/0AMPPDAxao0wkn3IIYekyy+/vJZxv/32S1/60pdqxzfeeGM67rjjio5iLXHszlRTTZVWXnnlwrWs3NlBidhiiy2K7Ntss02xnsuvf/3rmktPlLPEEksk3HronFTJPffck44++ugiHiI/T+dws802K6xHeQeKPPnzXX311enaa68tyoig2ihnzTXXLGZhqlLCyEMg7rHHHlvERsQ1saXDuOOOO6ZFF100kmrbb3zjG0Xne5lllime7Re/+EW6++67a+cvuuiigl0k0Fk/8cQTi85opLGdbrrpimesiv0YCF/udd555+W3SmeeeWbxj8Rll102HXzwwV3ON+MABYFnRapmqKOj+/vf/76oR640kZ+O/vrrr99jHMxbb72VTj311HThhRdySRehnbbccsv02c9+tkt6bwcoJYcddlj685//XGRdeOGFi3cprJGcP/fccyvrvPHGG6dNN920+L7ie+N9jPe13IYMCPCuk47wzL/73e+Kff7jXueff35xv/K7zLfIe8c9o25xIYMNX//614vD9dZbL+28885xqsuW34KDDjqoSDviiCO6LAabv9PEJfGbwXeVC+/rnnvumZZaaqk8ucs+791pp53WRSkmA/XeZJNNuuT1QAISkIAEOoeA88V2Tlt3e1JGTkPoeOdKSaTH9sgjj0x77bVXN6WE83SOmNLzxz/+cW20Pa7L78Ho7g9/+MNuSgl5iT+gQ8LodlkuvvjitNNOO3VTSshHx/X4449PP/rRj7p1cvN7UwaKVrkjRxmXXnppopNFh7gsjFhvvvnmlUoJeR944IFCMbn++uvLl9aOGWX/6U9/2kUpqZ38786tt95adOa4X1kYEadTjCJTlvwZ+8o3v7Zc7mAe33///bXi55133to+O7TnDjvskE444YRunVbOYz2BBUpVVf2xAsG6SinhemJcdtlll0qWnK8SFAE66KGUoEQfeuihXTr+Z5xxRt06n3322Wnvvffu9n7GvfLnQBnZZ599akpJ5Mm3J510UjFAUPUuk3byySenY445Jr+k2M/vk++XM/K8Ifl+pLHFssY3U1ZKOMf7ioteKJ+k5YJSwu9NWekkD6z4HcGaokhAAhKQQOcRGNV5j+wTVxGg04v1gRHVhRZaqHDzYOQWYdamvFOM5YMRY0ZnH3/88aIjRIfxtttuK5QbRmOr5JJLLimSGXVlNJ6RVTridFKik3XKKaek3XffvXY57iF0CkPo8Cy//PJFpxQrCiPj3PuOO+5IN9xwQ1pxxRUja5ftUUcdVRwTlM29edbbb7+96Gxyb67/7W9/W3SK8wvp5EXdsHysttpqic40Li2MejNyjfzyl78syopR8LyMCPjGFQnL0vzzz1+40E066aRFNtxg8iBwpoFeeumlC3cbLCx05OjEoRzi1rXccsvlxdf2+8qXGKVVVlkloSgEY6xHYZmJ+tVuMMAdOrPnnHNOTUHDilC2sP3lL38plD1uNfPMMxezhMGLfHfddVeiUw6Ls846q5juOncDoxONhYe2RLA0fPWrXy1G/HGN4/2gzRBYzj333GnxxRcvjuv9R5m8O8GWd2D//ffv4nKEhYHR/5B11103kW+KKaYoFO6//e1vtTpFnnrbGBzgHaUM3BVztygGAOi8I7zD3AvLBHl4bpRs3le+V1yqBsv6EJY/3kW+ibnmmut/2TsPcEmKqmEXaZecM4JkJCcByUlUXFD4EAR+QARFQAQU+EVAWERAoihIBkkfgiBBkiJxgVVAkuSckRwlLuHnbTnz1+3bc+/MDXvnzrzneWa7p7uquuqtnrt1qs45VSgkcLjvvvuK+sGN9zg3LUMB5/cewvtGWzHlit9jlB1pPEpAAhKQQOcQUDHpnL7usaUMApkF5lgWBl4IA6G99947rbzyyrUkmOWgpOBkjzA4qqeYcJ9IYrnTPoNDFCEGqQgzsLlicvPNNxfX+QeTqTBF4ftaa61VDC6ZAWcwdsMNN9RVTEhP3XOnbGa+2csF0x4EJQPFgfYgrN6wkoOQFlOs8BXhGvVm5pkoaAyWUdKISFUlDOCYYS7b0DPwZTY9BBMYNvgLWWaZZdLiiy9ezEBzjVUfZu6rFCDuN8OXgSsfFIaQWWedtfAtiu99ObI5HspiCGxgecstt9RmyVGIttlmm0hSO15xxRXFOUpv+X2ELcosKwoICl+umJCXaF8I+VG2ZphhhuI7Jlxrr712wRKlBGEVrSfFhL7FpIp0yEorrVT0Ye53wwpNvn9Luf94Lnu2bL/99sXAvSiol38wfWSVriy8X6Fgcw8+8a7ynXcFxfz73/8+X4tVJZSWKv+UIkE//+HvAO9jmIyhnFCHrbbaqvCzwdfmmWeeSSjkCO/6fvvtV5zzD0wIlBACKxRJ3gveGUUCEpCABDqPgKZcndfnlS1mFaRKKSExpjUoDMxm50pJFISDNoMKhFnPekL5uVIS6XB+j1UABiTYwofgABxSnl3nOoMeZoepXz7AjzxxZGY2V0riOoNdVmFCcEwPYdBOmymbQW6ulEQaVm9CYqY4vudHTM3KSgn3yROhelFIcqUk8jO4xPYegQ/O91XSF75V5fT3GnXEtCk+KG4wjMEmfcGgtEq5YoWKtPRp1fvIKkIIK2a5sDIRsv/++9eUkrjGkRUzGKNo8p4xWK4SlJLf/e53tZVCFFjKzJUS8hEEIqRe/6EcscrSiNDmKqWEvGPGjKkVseOOO3ZRSuIGihrmkiHXX399nA74ceedd64pJVE4qyOs4oQQfCAEU8N4B1glqfpbgGIcimfk8ygBCUhAAp1DwBWTzunrHltKhKi+Cg7M4cQcA4+qskJ5qbqH2U3YpL/++uu1SFn5jDAz8Tiio2AwgGlGVl111brJQykiQa6Y1M3w2Q0GrzFbzKWIZFTOR9tQcqokN1thsFxPcg6Yv1FmWfrCt1zGQH1nZSOEdyPM4biGuREfVsm+973vRbKGjrlZU86bZwRLVvZYZaoSlCFWNXoTzI1QqBBMlX7605926evIj5ljSK40xbU4YhZJvXr6fZA2fxcjbxwxZQtZfvnl47TbMb93xx13dLs/EBdYkZplllkqi8oVyrzfMVkMYYIj78u4zhHzL0UCEpCABDqTgIpJZ/Z7t1Yz0OhJGIQz8MO0iZlqTHPYjC8fePSUn3vYy9eTev4MDOiIDBazxcyo82HwwwCGAQ4rCrkde9Uzeno2SkMMGnFmLwurNtjGM8jDORnlCOWpt0FmlFNvAMf93NmfSEg48ldJzpnBMDP4ZempjfX4lssYiO9lkznKRHHAzwOGmCAhRAAjpC4+NbmgcLDyxruG/wvvGZG2cgZ5es7pjxBMl+oNeiNNT0eUplzYpDRXQPN7uSKLKVM9oT4oS7lpYlXaegosaXEqD6kXvY77rGCGwHwwpKe2EoY7hL8bIXlghzDvinv5kZVRVjLz9Pl9zyUgAQlIoH0JqJi0b98OWMtwQGcwGaFO+1pwlelOb2UxICTKEs7O2PrH4BTzJxyS+aBUYVf/9a9/vW5x+WCtnIhBI07lDIRQPHJhIIkJT6NKSJ63kXOUnFyiffm18jn7nFRJX/hWlTMY11AcGUzzwa+DEM8IwQ422mijmiKBTwJ+CM0OSmN/EcpsdjWNPD0JPiSExa1STnIFKB+EV5VXz2ysKm3VtVdeeaW4zGpUlVlj5OE9YEUNP59G3qfI18yxL+9aboKYr6hVPZc+bPYdqCrHaxKQgAQkMLwIqJgMr/4aktpiHx9mVqws4CPAwIfZbmbimSHFvyOf0R3IijKoxe6ewSyrNcykM/MejukMvg499NBiVj4iSpWfz8xxvVlmBowxCMqd15mtx4QnBLt4Zr1ZAWHTO9qOjwHP7qvke6fghE8EqnqCozUD0p5m1evlbaXrvDuYrdF/KHwMWPEzIkQsvk6hBDKrzmoZq2PBm/cvnLvzNuUrQrnfR56mmXP8RVi14Z2uF7GN8iJyHeeYKuXvD9dCUFruvffe+NqnI74qsKFOsCr7u0ShvM8RfKA3BSDy5MfeFKw8bTPnufkhv0cmA+pJrsTUS+N1CUhAAhJoPwIqJu3XpwPaIsxqQimhYDaRywfT8TBWLQZLMYlnMEvLbDsfFBUGL9TnkksuKZIQVaueYsJKSD3FJK93HsGIKFIhW2+9deJTFkyM+iOESQ1hVQflpxMEZSMUS1YCUEwYuIdSgs8TAQfKM/N5YIScE6F5Q4jWxeC8nDfuN3LEDwVFIyKH8W6hNJYDKORRwQhHXL4fz0KhjrbFtWaPKMShcLCyRES7KskdznPFJF/dKa/U5eXkv4f8en/Pc6WN32M9nyqUrvLKZX+fbX4JSEACEhgeBCYcHtUcf7UMX4U8hOpAPT3KjGcMVLmDWU6+GR5hgKuUEnwwcifggawPZmQMoqoGdSgau+66axFClmcyaKtKx72ezNAIMxySb/iXRxgjmlOV4HvSH8mDDvTkf8BqCbPMfHKn7/48uypvTwPWqvR9uUZb8ohaseoQzuuUiXlXlWJRz5mbtLnj+N///vfKqqGwsMLFe4PywfeysCKIMPAfPXp0cc4/mHSV33PCZYcQTSwc5uMaRxSFRhzu8zxV5/lu9fk7W06bb/aJ/1UIq0qsOCEoNvUk74d6afpyPVekYFXFnnLz+vflOeaRgAQkIIHhS0DFpNR34UAcm7SVbvfra5QZz+hXYeMpc+64zaC4LAySiZY1WMLGg6yC4D9SNShlkIvygmAqEgOvcn3Y3+Liiy8uXy7C9ea7ZOfRr5jFD6ny60BxqbfDeOTr7bjooovWFCs2/2MzxbIwgDviiCOK8KqEWO1JgSnnbeR7Hsa4v4pWb8+jr9hHJGb+2fcinp+b9lTxJtwsO77XkzzUMkpElTkQK2yEgGa1BiW7SvnJyyfIQIRq5jqO/bnfBpMM7OURwruEMoMDPYNvvhPat57CHPkaOeabh7KxaK44R35Wi4477rj4mqh/CCsm8X6jYFUFekApiL9TkW+gjvwtiSAb8D/99NO7FY0ZXs6zWwIvSEACEpBAWxPQlKvUvZjSYMIRm6oxcKrav6KUrcevrJTwn32UOZzMdTC54YOz+dixY4uBGYMdVisefvjhxKZ2VQOcHoE0cZMNFWN/EAaFmFPh54HpzpNPPllEsYpBXz0zmngcChQhV9l7BF8NzvO9L/Bhidl78hD1i0Eswow3qybMWjO4ZlaZQW5/BYdqonHFJo+EqWWVimejGDEYZ0+PYExfVO0l05965AoBJjRwZhDM82Mg20z5J554YpdoY+TFBAtlg3co+ovr6623HodC+K2FsIcI7xy/FX5/MMGcKlcKIm0ceS+J8BUbXrIhJ+8Eqwas6jGQjw0YybPxxhtH1h6P9A3vOkobZk4EQyAYRKx84gdD5K6IqIZCwicX2oEvVuw8n99r9Jz+2GuvvdJBBx1UZGG/DzYZhRsKFn9j8vaxn0luPkUm+vOf//xnkZ/71Js0mCTSvv4q2kXBdf5BMcJfjX5BUEz4W8vvER8iflN5/esU42UJSEACEmhjAiompc7F7pmZVsLTokiEMlFK1uevDGLq2Vb3udBBzsgGiwxWEezo+eRCexikxYAnv9ffc3ZiZ5DHKgEDWgbuVcKu3D3tOM8g7MgjjywGhlWDQ/Kz43YuDJhQEGgXA+LTTjut+ORpUJS43h9hYMiKSGz0iNlZlekZs81Eh4oBcX+emedlUMgAN7hEHzOYPuSQQ/KkDZ0zeI9Ber0MrGwxwM/3/sCpn9WJs88+u8iGQsYnF/Y+IcxwPWF1AgWI3y99xgpU1SoUK3G5f0i98riO8ogSgIJC25jtP/7442sDbNJsttlmheJx5plndvG1op3U+X/+53+K94+0/RH2VCHENMofv4dLL720+JTLRMmu8reCLwoMKyvkr1rtZIPEgf67F/Vjrx3Y8x4jmKSVzdLYcwglJkKER16PEpCABCTQ/gQmbP8mNt9CbMwZaGATPRCDQMqgLMoM+/Xma9V4jrzOucNruYTezFgiPTP0KAS5Y3jcY6CD2cxkk00Wl7oc82fk510Sffolv5efY+bDigKKRR7VJ/IzqGcHaurAALuesPJCOVVlbLLJJoXilT+XcmjTwQcfXMyshwlKlM9zGdTlqxdV4WRJX+96lMWRWX0UpyqllcEtzv7MMJcd+PM65+d52Zzn9/LzSAffHXbYoXK39UjT07GqzHJ6mGFuxYz5ySef3EUpibRE5WLgWu4n+O++++41Z3TSV73b1INVBZTMslkf31E0eZfLv8O8/lX9hdkX708IqzJlPxYUAZSgCy64oDA5Y4UHxYHfCO9xHtI4yuGYPzs/z9Pk55RXxYg0rKjhPxNO+3k+zqkH7/SXv/zlmllVpOH3DZuFF144LtV9d6sYRab8Xn4e92FPtLvcMT/usYKDElgv4lik8ygBCUhAAu1JYIJPQ0P+/x2w2rONtmoACWCWhokNyg97DfS0n8IAPrZWFBF7eD6DUgZhPT0fW/8wqWEFIgaybNhHGTgDY/fe6CCImXhMkgjbSqjkwRLMapiZx7eEqF1lpWiwnku5/Dng+bBCMasaWA7m8/OyYY0pG0oBg9hGBu15/o8++qgw4WLzRfqa9zXegTxdf87po4iCxbtYb78cuKIA068oAKy49Fcok7ZhpobwrvBeNtNGfgf4ibFaVRXYoiIWuFYAAEAASURBVL917Ck/7IjIFv3Db7HZPu6pfO9JQAISkEDrEsBEGuH/av72838optuacrVun7VkzXhpetr1ebArjRIx96f7W/RH8E/Jw8s2WhaDznoDz0bLaCQdg2g+QyEMantaeRqfdaIe/akLShUKTdXM/EC1A+WAFQoUDgQTpdw8LZ7zhz/8oZYGE8GBEPoKpbU/iivK/VAJ/xENdv8MVdt8rgQkIAEJ9I2AiknfuJlLAhKQQLGihGkVkcYQTKyIIIc5FCs0rAhceeWVXSJd4c+kSEACEpCABCTQnYCKSXcmXpGABCTQMIF111232BwyIkoRyS2iueWF4OPCHiqNOt3neT2XgAQkIAEJdAIBFZNO6OUObSM28/0xc+lQbDa7SQI4lO+zzz5FiGXC7bJHSB4SGZ8SVlA23XTTwqepyeJNLgEJSEACEugYAjq/d0xX21AJSGB8EcChG+UEh+6hDCAwvtrrcyQgAQlIQALNEND5vRlappWABCTQDwJExxrMyG39qJpZJSABCUhAAi1LwH1MWrZrrJgEJCABCUhAAhKQgAQ6h4CKSef0tS2VgAQkIAEJSEACEpBAyxJQMWnZrrFiEpCABCQgAQlIQAIS6BwCKiad09e2VAISkIAEJCABCUhAAi1LQMWkZbvGiklAAhKQgAQkIAEJSKBzCKiYdE5f21IJSEACEpCABCQgAQm0LAEVk5btGismAQlIQAISkIAEJCCBziGgYtI5fW1LJSABCUhAAhKQgAQk0LIEVExatmusmAQkIAEJSEACEpCABDqHgIpJ5/S1LZWABCQgAQlIQAISkEDLElAxadmusWISkIAEJCABCUhAAhLoHAIqJp3T17ZUAhKQgAQkIAEJSEACLUtAxaRlu8aKSUACEpCABCQgAQlIoHMIqJh0Tl/bUglIQAISkIAEJCABCbQsARWTlu0aKyYBCUhAAhKQgAQkIIHOIaBi0jl9bUslIAEJSEACEpCABCTQsgRUTFq2a6yYBCQgAQlIQAISkIAEOoeAiknn9LUtlYAEJCABCUhAAhKQQMsSUDFp2a6xYhKQgAQkIAEJSEACEugcAiomndPXtlQCEpCABCQgAQlIQAItS2Dilq2ZFZOABCQgAQlIQAISkIAE2pbAJ5+k9NGnn48//WfcB58kFZO27WobJgEJSEACEpCABCQggRYngGLyyQSffiZUMWnxrrJ6EpCABCQgAQlIQAISaEsCE0yQEp+JJ0ppkkk+TvqYtGU32ygJSEACEpCABCQgAQm0PgEUkwlRTj79R8Wk9fvLGkpAAhKQgAQkIAEJSKDtCaiYtH0X20AJSEACEpCABCQgAQm0PgEVk9bvI2soAQlIQAISkIAEJCCBtiegYtL2XWwDJSABCUhAAhKQgAQk0PoEVExav4+soQQkIAEJSEACEpCABNqegIpJ23exDZSABCQgAQlIQAISkEDrE1Axaf0+soYSkIAEJCABCUhAAhJoewLu/N72XWwDO4nAe++9l95888307rvvpnHjxqVPPvl0O1VlUAlM8GkA9kkmmSRNNtlkaeqpp06TTjrpoD7PwiUgAQlIQALtSkDFpF171nZ1HIEXX3wxvfHGGx3X7qFuMMrfBx98UHzgP80006SZZ555qKvl8yUgAQlIQALDjoCKybDrMissge4Enn322fTOO+8UN5i5HzlyZJp4Yn/e3UkNzpUPP/wwvf/++8VKFcoJq1VzzDHH4DzMUiUgAQlIQAJtSkAfkzbtWJvVOQRYKUEpmWiiidK0006bpphiCpWS8dz9KIFwhz/9QH/QL4oEJCABCUhAAo0TUDFpnJUpJdByBPApCfOtqaaaSoVkiHsIBYV+QOgX+keRgAQkIAEJSKAxAiomjXEylQRakgCO7gjmW5putUYX0Q/0BxL90xo1sxYSkIAEJCCB1iagYtLa/WPtJNAjAaJvIfiUKK1DIPoj+qd1amZNJCABCUhAAq1LQMWkdfvGmkmgVwI4WSOulvSKarwmiP6I/hmvD/dhEpCABCQggWFKwLA9Wcd9/PHHtbCfmGKwN4EigVYm0Mw+Jc8//3y6+eabi+bMM888aYkllmi4aR999FG67LLLin1RZptttrT88ss3nLenhC+99FIaO3ZskWTxxRdP8847b0/Jh929Zvpn2DXOCktAAhKQgAQGmIArJhnQq666Kn3ta19L3/jGN9Juu+2W3fFUAsOfwC233JK++93vFp///d//bapBhMLdeuuti7xHHnlkU3l7SnzXXXfV6nTllVf2lLTuvbfffjv94he/KBSnuom8IQEJSEACEpBAyxNQMcm66C9/+Uvt27/+9a/0wgsv1L57IgEJtB6Be++9Ny2zzDLpqKOOqkUna71aWiMJSEACEpCABBohoGLyGSXMXG6//fYuzK6++uou3/0igU4lwN4cK664YlphhRXSIoss0jIYHnnkkYQ5mCIBCUhAAhKQwPAnoI/JZ314zTXXdOvNSy+9NG222WZpggkm6HbPCxLoJAJEmcLHRJGABCQgAQlIQAKDRUDF5FOyOKiihCCzzz57Wm+99dKJJ56YnnvuufTAAw+khRdeuLhX9Q9OwbGJGg7zE07430Wol19+OT377LPFd5yFZ5xxxqrsxbUPPvggEb2HvLH/AeWyisOHHaXnmGOO2sZtdQv67AbtYddpTNE+/PDDNPPMMyfqwKx3I0JdqDsz0Tx31llnrbWrnJ9nscs1wuA1ohG9+uqr6dFHHy3q/IUvfKGcrfj+2muvpaeffrrIM/fcc6fJJ5+8Mh0XqxhxnT7697//nWaZZZam2kifkY9+mn766dPnP//5Wt0ptyeBKXlhTJvhy0f5LwHY8t7SJ/E+N8uG9593kDIi9G6zZZheAhKQgAQkIIHhRUDF5NP+uv/++4sBLl237rrrpjXWWKNQTPiOQ25PigmzyOEMfMwxxxSD29/+9rfpvvvuI3tNsIP/4Q9/mOabb77atTg5+OCD07XXXlt8ZeXmuuuuS0cffXRi4J7LqFGj0g9+8IM09dRT55e7nP/jH/9IJ510UqEU5DdmmmmmtOWWWxaO/fn1/PyJJ54obPXvvPPO/HJx/qUvfSntvvvu3RQs8uBQjWy33XZpoYUWKurOdWTOOedMZ555ZnHOPww4zz333HTWWWfVFJq4SdqNN964so5lRr///e8LZbLMaJdddknf/OY36ypS//nPfxJ5//SnP8Vja8fFFlssbbvttmnppZeuXctPiNp2/vnnpz/84Q/d+gbli76pl5d24w9BNKzYGTwvu9XPcX7/8pe/XCi6q6++evrVr37VrcqXXHJJ8VvAoT0EHnBZaqml0ne+853iMnkpo0owp/zlL39Z/AbiPuZjX/3qV9POO+9c61eUlm9961sJBThk//33L949lMxzzjknLvd4vPHGG9Mqq6zSY5p6Nw855JD005/+tN5tr0tAAhKQgAQk0CQBfUw+Bfa3v/2thg2lhFWTsKP/61//WszW1xKUTvJwoAw8t99++25KCVkYcDGwZ4a+LHkZF110URFhqDzgJg9K0OjRo4vBfbkMvt96661pzz337KaUcI/VDxSoCy+8kK/dBAZEXapSSkiMwrPDDjukp556qkvevO4oIz//+c9TKCVdEn76hZUVlDNWo2KVJU/D6gl1RLHKyyVN/h1Fh08Vo9/85jfp5JNPzoutnbMStO+++1YqJSS655570o9//OO6jE477bR07LHHVj6XlTXyouSWBYUGpY2B9frrr58ee+yxcpKW/x6K1YMPPljZvygCKB65UkKj7rjjjuI3wbtDXj5vvPFGZXt5L1B+UMxzIcQxUbdQAuI9YONCysr9Szjn2kMPPZRnr3uOYkEEPj7NCnnIj2KjSEACEpCABCQwMAQ6fsUEEyGUD2TBBRcsZvg5/8pXvlIoGAygCbPayKzqcccdR9a08sorp9VWWy3NNddc6e67706EIWawxEB6n332SayojBgxokhb/od7CLP+zBRj3nTbbbfVVgdQcI4//vhigJ/nZbC7xx571C4xm/zFL36xeA4Rxv74xz8WygADd8y6WAEJwfTm17/+dXxNG264YVpuueXS5z73uUKRYoWDwSEDP5SGAw44oJY2P4lwr9Sb/LQ/98+5/PLLC9M48qD8bbrppgVz9othQItCAW9C2aIgLrDAAnnxtXNWPGJ1hdUsZvMpmw9y9tlnp69//etF/SMTygEDyQhwQH5m4ZnJx+TtpptuSuFnBCP201hyySUje/GOnHHGGcX36aabrmBE3jfffLNgw2oBQphp6ocJUgh9j1lbyPXXX99W+3WgfOy4447RvEKBXXPNNRNhfHl3iHZHmt4kFFreH/qP94cAFKyuIaecckrx3m600UbF+8PvgPcS3sjmm29e/O56WlEsEn72D4oO/Y5ygaLx5z//Ob9d95y0sdLSyN+FugV5QwISkIAEJCCBLgQ6XjFhYBOz9ygjIauuumph1sT3K664oiHFhLSYW+UKAgNnrrGSwooAM+uYEeFUX0/23nvvtM4669RuMwBmoI6ZEXLeeeclBn6xqsOgG4UnhFUT9mMJwYyMzetibxZmn/GpCX8YFK9gQL0wvQlhcMgAnRlvBtgoSTwv8ka6OGLWFSY7cS2OcEQY2B9++OHF4DLuYeKGuRkrLgirF/UUE5QawsPOMMMMkT1hhkW9IuQzCgiKVQjPRkFEeH6en7xrr712wQilBGHlKhQTzIYwJQuh7rlJHoNTfIgYIMMRk75ceQv/mWDczMaG8cxWPaLYo2CGnH766cWqUHxnhQgWwTWu1zuiXGDGGAotCjr9feihhxZZUB5RTFDYN9lkk8L/JBSTlVZaqbhWr+yq6ygjoWg0opxEWvq8UUWm6rlek4AEJCABCUigO4EJu1/qrCsxkKXVDP5DGPQy648wq1plNhRp48gAFHOdsuC8ng9Uy/4neXqUmFwpiXsMhEOx4BomKyGUhxM4gkKSKyWRZtllly1mlPnOAJnBdgirO5jP8MmVkrgfoWL5Tt6yOVekYwBZTykhDTPePANzMtKWJXhznZWmeoKClislkW6DDTaI0xqPuBCrYnzHF6EqP4Ng2KEIvvXWW4WiQ3pWOEJQ+nKlJK5vtdVWKZz8UapymXTSSdOpp55arCowQEdRbBd5+OGHa+ZUKPYoIrmgwMIMpbM34Z1g5S6Ukkifv1P5exv3+3tEwUDRiJWTeuWplNQj43UJSEACEpDAwBDoaMUEZQOlA2GwWI6clSsIDKh7E/Z5qBdBCKUlBuPlgWteLis19SQ3v8oVE0y1QhhU15NYYeF+blpUL31cZyUiF0ynqiSvX9X93q7lA9KIdFaVB5O7KiF6WEjuFE0UrWDETDurR1USg2hWU1gViVWhMP8iT7281D3u8V6VfYmoGzP8rMLk7ayqx3C6lr/LBFeoEn4TsdpXdT+uoTxj1leW3Cyunn9KOU+z33tTTlRKmiVqeglIQAISkEDzBDralCtXNhhUYxOfS5jycA1TIHwvehIiLvUk888/fzGTz8D19ddfT9NOO2235JhO1RMUJwbWrFpgEhaSD4KJeHTCCSfErS7HfNUHs6x8hYiE2PgzCMcfAL8L0sMkTJC6FFbxpazYVSQpQitjDoaTPY7iDDSJlJXXrSpffo0QxlXCylRIOEnzHdYhrGo0qxjAImSnnXaK027HvA0ofo3w6FbIMLsQCh/Vxm+nnqCY9yZEdKsSFMQpp5yyeE9QMgdL6pl1qZQMFnHLlYAEJCABCXQl0NGKSfg8gIRoS3zqCQN5Bu49DbDymd2qcnA6D2GwW6WY9LQfBgNqymDQS11CcMDOJR8g59fzc/bgCGFFhKhKREUaTHnmmWfSfvvt19RqTVV9mlUsiOAUkq+qxLXejq+88kotSSNsSZxHi6plbsMTTLlCUJrrCXvF9CaNpOmtjP7eLysnlBeO7txTJCABCUhAAhIYPAIdq5g8/vjjDYcVDfyE1P3+978fX7sd2XQvX2UpJ2BgHpIrKXGNIwpLvRUBFIgwwcr9HPIoRJjM1DN1onxC5mIuk8/mszdHrpTgZ8HqDgNFZqr5MCjL/XEoqxnBSZqQubH6goKHbwvmbezrwTMY2PbEt5nn5WkpO6Sef0zcrzrijxL1ZkWqnmJE/3CPT94/VWW2y7UwT6Q9+cpUuX25Ily+12rfc+WEuuno3mo9ZH0kIAEJSKBdCXSsYhIRmuhYwvsSOrZK8Kc48MADi1uEo91mm23q7qDe2/4UrLogOALnykRx8bN/WAmpp5jks/DhaE22fKaZFRfCrTYjzAiHsI9IlXN2nibSNnNkj5cY3BOVCj+O8OGIcnA4HwyZZpppasXiE4ECUX52LUHFCf1FRDUEU7t8MF6RvKMuocCGoOwTorpK8hW+qvutdi2UE+rlSkmr9Y71kYAEJCCBdiXQkYoJm8XFnhd0LCFqiZxUT/C5ID1mPPhG4KRbJQze2aSwyqQl3wyup53k2QEeRalKbrjhhtrlfECYh58l/HE9JYvVknAKZ7BOm1G8wk8AH4EqpYSH5s+uVaKJk3gGWQj3WqUYNLLXRROPrCXlWfgQsUkk8ve//72SMQoLTu9EOIPNQQcdVNST3cvDAR7/mHqKCf44+MsgrEgRzazdJRz+aSf7irB/TnlFCS7cG2zJ/YoG4lkqJANB0TIkIAEJSEACjRPoyKhcKBfhK0CI056UElCyx0VIHnY2rsWRAe1hhx1W2506ruMDku8zkg/mIk0cWcm5+OKL42vtSEhg9scIySNsLbroorVwrOzzwGaKZWHQfcQRR6Rvf/vbxQcFBiFiUoRyZVAdqxp5fjYsjBWD/Hoz57npWpVZz/PPP19s3thMmc2kzUMoswJWFXYWPxsUUN4PVrRCecqDBMAwj0QVdWDwza72wTfer7iPQsP+MYRKRkFsF8EcD8UNQbHkHc0VBEz4fvazn9UUtoFudx4FL/cFGujnWJ4EJCABCUhAAoNPoCNXTHLlIlc66uEmBG9Ew2J381122SXlEaDyfKx4MChlwMZgnOhZ+KaEGRZl9Rbdi70c2Amd8MOxK3peZ8Ky5hGMmJnH9yFCsuLET8QrzGrYZJBBPwPiiOTFjH++KsPGdChD1HvXXXctdr1H8WHwPnbs2ESb+iv5Sszvfve7YlUCkzMGltSVTSPLg/n+PjPPj3LBbD7+NChfRNciHDSrX6wioTjk5n0bb7xxLTsrSewSzs7xyP/9v/+3YERfosBgwsdu9VF/di3PfXiIPBZ70KA4slq11lpr1cofipPLLrus9k729Hw2T8w3Hi2nZXVk3333rb3TBDfgfcEvA2WY9wozvsGS3H+I94pnElSClUtFAhKQgAQkIIHhRaDjFBNmtlEuEJSNfMBcr+sY+DPYZFCLYLJVZS7FYJcZY2bc+ZSFlYnRo0eniSeuj/0nP/lJws+DASyfsqBEsLt6WXC2ZjY/BsAMDqsUCnY9Z1UnrwMDdhQQlCf8YMIXJp5BHgb2KDd9FQbq7OrN6gtCWeXytthii3TWWWf19RG95ttxxx0TqzVjxowplAhWlqpWl/bYY49uu86vu+66Rd7Y3Z2d4fmUhfepvMlmeSafIAlDLazuVdW/XC8Ut54UE9Kvvvrq6YwzzkhsMokQhjsPxc01FOnYe2fEiBFcGhDJzSJ5f1mVQtgzpsqkckAeaiESkIAEJCABCQwKgQkHpdQWLpSZ8RCUi6oN3eJ+fsxnuPOdwPM0OKQzcK1yPmcFBYWjKkRwXgY7Z7P6UbUnBIOtvffeu2ZilOfjnEEkz6jaZJFBGjton3766d2c63kWPgAoPWWh3ihb+f4qYeJE2nrn5XL4TlQuBv3ltqH47L777kVggchX9lPInxNpejpW+XdQxl577VUoduVBK99ZYWK1adSoUZVFM/BGcSzXn8SsQrGSwqpK2TRw3nnnLXaUJ93cn0Yj622gT7rBkGYZUofIk/dHrtRGPddbb71CYd9hhx1q7z/KMsom/kmsvIQQhS0k76eqciNdHMtpiJiGghvmiJEOR3xFAhKQgAQkIIHhRWCCT+3BPxleVW6t2mKqgukVwgB+scUWK87ZuRy/DAZ27J1Rz/SLxKyixAwzqxwxCMQEiJltzFXYI6WZmWb8RZhBxrSFqF0M/hsR0mPCxUZ21HuyySZrJFvTaYjAhYkZplAMKmMA3HRBfcxAAARMuAhxC1/aGtx7K5KfDPnITx76pqf+jfIwIYNno8+JfD0dYx+R3HSsp/SDcY9VyN7aj0J93HHHFY/nXc8DNgxEneiTJ598sniPIsz1QJTbnzJi49MFFligP8WYVwISkIAEJNB2BGL8wniMMSALBZj317cpajsE47dBzJr3d0CCL0Ie6raZFjDYzu3vG83Ly1G1ItBo/kbTMWuez5w3mm+g0jFTj0JUnmlvpHwUCxS9RpW9KLO8ShPXh/MR/yD8leC4/fbbpx//+MfdmoMp25lnnlm7nkeUq13s5wl9MncDu8v38zFml4AEJCABCUhgEAl0nCnXILK0aAmMdwIDufrSl8qHMsDq3AEHHFDbADTKIhx1HpVrjU99ldpRQYv2lo9D3T/l+vhdAhKQgAQk0MoEXDFp5d6xbhLohQBLn4TkxfSu7H/RS9YBuY1p2gYbbFBzpF9uueXSkksuWfgrsUybRzrjgUTt6gShP5BGfdg6gYltlIAEJCABCfRGQMWkN0K93GdgFiY9zfiA5MXiZxFl5Nc9l0BvBHj/UExYmRgKxYT6/fa3v01EGou9cQh1zScXzAoJDIHS0glCfyD0jyIBCUhAAhKQQGMEdH5vjJOpJNCSBCLIApUj4ttQKSc4n+PUToSsJ554Ij3zzDOFf9Qcc8xR7BfzzW9+s9eIdC0JuA+VYrWE4AgI/lrlKG19KNIsEpCABCQggbYiUM/5XcWkrbrZxnQiAfZmIYIbDv0EFBgq5aQT2ZfbjFJCxDmijBC4YuaZZy4n8bsEJCABCUig4wnUU0w05er4V0MAw50Ag99x48YVO9ozU4/5UBFyr4eNPId7m1ut/igkmG+9++67RdVw8FcpabVesj4SkIAEJNDqBFRMWr2HrJ8EGiCAyVSsnDA4jgFyA1lNMsAEXCkZYKAWJwEJSEACHUNAxaRjutqGtjsBZugJpPDmm28WigmrKO6fOvi9Tkhgom+xUgV/fUoGn7lPkIAEJCCB9iSgYtKe/WqrOpQAg2IHxh3a+TZbAhKQgAQkMMwJuMHiMO9Aqy8BCUhAAhKQgAQkIIF2IKBi0g69aBskIAEJSEACEpCABCQwzAmomAzzDrT6EpCABCQgAQlIQAISaAcCKibt0Iu2QQISkIAEJCABCUhAAsOcgIrJMO9Aqy8BCUhAAhKQgAQkIIF2IKBi0g69aBskIAEJSEACEpCABCQwzAmomAzzDrT6EpCABCQgAQlIQAISaAcCKibt0Iu2QQISkIAEJCABCUhAAsOcgIrJMO9Aqy8BCUhAAhKQgAQkIIF2IKBi0g69aBskIAEJSEACEpCABCQwzAmomAzzDrT6EpCABCQgAQlIQAISaAcCKibt0Iu2QQISkIAEJCABCUhAAsOcgIrJMO9Aqy8BCUhAAhKQgAQkIIF2IKBi0g69aBskIAEJSEACEpCABCQwzAmomAzzDrT6EpCABCQgAQlIQAISaAcCKibt0Iu2QQISkIAEJCABCUhAAsOcgIrJMO9Aqy8BCUhAAhKQgAQkIIF2IKBi0g69aBskIAEJSEACEpCABCQwzAmomAzzDrT6EpCABCQgAQlIQAISaAcCKibt0Iu2QQISkIAEJCABCUhAAsOcgIrJMO9Aqy8BCUhAAhKQgAQkIIF2IKBi0g69aBskIAEJSEACEpCABCQwzAmomAzzDrT6EpCABCQgAQlIQAISaAcCKibt0Iu2QQISkIAEJCABCUhAAsOcgIrJMO9Aqy8BCUhAAhKQgAQkIIF2IKBi0g69aBskIAEJSEACEpCABCQwzAmomAzzDrT6EpCABCQgAQlIQAISaAcCKibt0Iu2QQISkIAEJCABCUhAAsOcgIrJMO9Aqy8BCUhAAhKQgAQkIIF2IKBi0g69aBskIAEJSEACEpCABCQwzAmomAzzDrT6EpCABCQgAQlIQAISaAcCE7dDIwajDXfeeWe6+eab01NPPZU+/PDDfj1i4oknTnPNNVdaYYUV0lJLLdWvsswsAQlIQAISkIAEJCCBdiSgYlLRq5dddlkaM2ZMxZ2+XUKxeeyxx4rPs88+m0aNGtW3gswlAQlIQAISkIAEJCCBNiWgYlLqWFZKQinZYIMN0jLLLJNGjhxZStXc1/fffz/dfvvt6aKLLirKnmOOOVw5aQ6hqSUgAQlIQAISkIAE2pyAPialDsZ8C0EpWXHFFfutlFAWig1lUSYSzyi++I8EJCABCUhAAhKQgAQkkFRMSi8BPiUIKyUDLVFmPGOgy7c8CUhAAhKQgAQkIAEJDFcCmnKVei4c3ftrvlUqtvgaZcYzqtL099prr72WHnnkkfT444+naaedNs0333zp85//fMIBv57cddddafTo0cXt3XbbLa2yyir1kg7p9a233jq98cYbadlll0377LPPkNbFh0tAAhKQgAQkIAEJDCyB+qPVgX2OpQ0ygb/85S/phBNOSCgmVbLmmmumn/zkJ2mqqabqdhsfmMj37rvvdrvfKhdefPHF9M4776TXX3+9VapkPSQgAQlIQAISkIAEBoiAplwDBHKoimH15eijj06/+tWvaspFVV2uvfba9IMf/CA9+uijVbe9JgEJSEACEpCABCQggSEl4IrJkOLv/8OPPfbYdMEFF9QK2njjjdNyyy2XPve5z6U333yzUEROO+209NJLL6Xnnnsu/ehHPyqig40YMaKWxxMJSEACEpCABCQgAQkMNQEVk6HugX48H8UjV0p+85vfpCWXXLJW4uyzz56+8IUvpNVXX73wySAUMqZQRAVbddVVa+k8kYAEJCABCUhAAhKQwFAT0JRrqHugH89/8skna7mJ+JUrJbUbn55MOeWU6Xvf+17t0pVXXlk77+nk7bffTigzTzzxRPr44497StrlHn4qDz74YLrjjjvSq6++2uVeb1945kMPPZRuvfXW9Mwzz6SPPvqotyzd7r/33nuF8z9l3HPPPemFF17oliYukJZncqwS2s19PvWCFowbN66WpqoMr0lAAhKQgAQkIAEJ9E7AFZPeGbVsinwwPdtss/VYz8UWWywdc8wx6ZNPPql0gM8z/+tf/yrSoiCETD755Gn55ZdPe+yxR5piiinicpfj2LFj03HHHZeefvrpLtenm266hPP9DjvskCaZZJIu9+ILA/8TTzwxXXzxxXGpOPLcH/7wh2ndddftcr3qy1tvvZVOPfXUdOGFF3a7Pffccyeieq2xxhpd7m255ZaFmducc86ZzjzzzC73+HLTTTeln//858X173znO+m73/1utzRHHHFEIvgAcskll/TKt1sBXpCABCQgAQlIQAIScB+T4fwOLLTQQrXqoxQQtaonQTlZfPHFE4P0ekKo4T333LNYtcjTYAJ23XXXpZ/97GeVqwuYke21117dlBLKIOIXJmfkRQEpC6sSBx10UDelhHQ897DDDku///3vy9m6fCey2N57712plJCQVR9CItOGXL70pS8VX1GmqlZ3WHUJ+fvf/x6nXY6xYeaCCy6oUtKFjF8kIAEJSEACEpBA4wQ05WqcVculnHrqqWtKBoN/om5dc801xWC+r5U999xzi/ysJBx55JHplFNOSextwsoFwmrK+eef36V4VlbyVYrtttsuHXXUUen0008vlAFWI5B//vOfqcqM7IwzzihWJkjDczbffPPi2YccckjaaKONuFysZqCkVAmKzcEHH1zUjfsoXtSBwAC/+MUv0je+8Y1aNpQTzNNCCBQQgtlXLqwu3XDDDbVLtLOsvBBQIEItr7TSSrW0nkhAAhKQgAQkIAEJNEdAU67meLVcalYJdtlll0KZYIDMQBxZeeWV0xJLLJEWXXTRtPDCC6eJJpqo4brvu+++aa211qqlj00ad9555+LafffdV7vHyd/+9rfiO0oF9eHZIWzuuMgii6RNNtmkuHT77benDTfcMG4XviBEDQs59NBDEys7ISussEKxoSKrMfXk0ksvra2EzDTTTInVm2mmmaaWfLXVVkvzzz9/oexwkbIuuuiiRGSypZZaqpbu7rvvTqQNwYcnlI64ht/M2muvHV8LH5b48sUvfjFOPUpAAhKQgAQkIAEJNEnAFZMmgbVa8gUWWKAYiDMgzwXfCPw9dtppp/Stb32r8N/AnKk3YaCeKyWRHiWHlQgkX3HgOz4gmEhdfvnlXZQS7iEzzzxzTdm47bbb/nvxs39zPxZWfHKlJBKyErHpppvG127Hq666qnbtgAMO6KKUxA1WTfBzQVh5QUFCWHWKZ+ZmW9yLNEQ3iyhmYbbFfeSuu+7678mn/xIBTZGABCQgAQlIQAIS6BsBFZO+cWupXCgnmGCxUjBq1KhudWPW/+yzzy6cv2N1o1uizy7EIL3qfphkMbBvZod4ollFRKuyORY+LSErrrhinHY75qsw+U2idmFehrBi05NykJtasToSEn4mKG5vvPFGXE7hU4JSEmluvPHGLhHKbrnlliI9TvUTT+wCZA2eJxKQgAQkIAEJSKBJAo6kmgTWqsknnHDCIlwwIYN/8pOfFM7e9957b+G7kc/yH3jggYm0uTlS3qa55por/9rlnNWFEPwvcuE7CgKrKQz6X3755WKQXzaFyvNwTljhkDnmmCNOux0xCauS119/vXa5J6WERHkZr7zySi3fsssum04++eTiO8xQYIh4FisoRCNjw0oExQplCkd3whCzcSVCGkUCEpCABCQgAQlIoO8EVEz6zq5lc+JPgl8IH0yYnn322cI5PJy7cVSvp5hMMMEETbeLSFuHH354uvbaa5vOG6GFMUWrF0qYQnOlKH9IHuWrt5DJubkboYVDUDJYbUHpQLlCMclXVFhFGjlyZGHKxqoKTvzkCZ6Ug3KjSEACEpCABCQgAQn0nYCmXH1nN2xyshJBOF4G3wgD6nwPlP42BL+OUEp4xsYbb1ys2uCIT2SvE044IeVKQf68WMVg5eGDDz7Ib3U5r7fyMtVUU9XSoYD1JPlGi9NOO20tKYpcmIqFX0mslnAdpQRZZZVViuM//vGP4hj+JZi4zTLLLMU1/5GABCQgAQlIQAIS6BsBV0z6xq0lcuEvgkkSplk4uHOsJ6w4YOoUA2/y9WQ6Va+c8nUUnBioc++cc86pXN1gk8Uwe8rLYC+WcKZn9YRVnip56qmnqi53eVbuSF+VmNWOkOmnnz5OiyOmWPCkDFZTwr8k93shtPBZZ51VrKr85z//KVZOyBxKTZcC/SIBCUhAAhKQgAQk0BSB+iPZpoppn8ThwMyGfQMtUWY8o7/lY250/PHHF/t15MpBVbkoEKGUcH+GGWaoStb0tfvvv7+WhzDAVSZX7P1RT2kgjG9IvmdIXIsj+7NUCasdEaYXU6xQcspp8YEZM2ZM7TJRxnJZeumla1+J8hUmZrmJFmGPQ1Bi2MMEyfdCifseJSABCUhAAhKQgASaI6BiUuIVzt/5IL6UpM9fo8x4Rp8L+izj1772tVoRJ554Ym0wXbv42cm4ceMKc6q4zsrJpJNOGl/7dcxNmHJTqSgUhejXv/51fO12zB3W2c+kHE6YDFdffXXlrvBR2DrrrBOnaf/99y8c72sXPjthJWfs2LHFN1Zv8v1LuDjjjDPWVmtOOumkIh0mWrnfCj4wEXI40pCQvWIUCUhAAhKQgAQkIIH+EdCUq8SPDf0ee+yxYgM+bi2zzDI1H4NS0oa/slKCUsKmfgjPGAhh40T2FsFEiQ+7tX/7298uNlRk7w1C+tKWK664osuKxdZbbz0Qjy/K4Dl8WD1g4M8Gi2ussUZhJvbwww8Xz37ggQfqPo/B/w477FDsuUIidplff/31EysYrHIQUaxqt/i8wK985SuFedVll11WbIhIeSgrKAxvvvlmUQb7rIT86le/qnS0x2zr0UcfLZzgSRt7l0Q+joQNxp8mwh7TlwOl5OXP8VwCEpCABCQgAQl0GgEVk1KPM5OOEzVmPygSoUyUkvX5KzuLl2fr+1oYEbSOOuqoRAjgcNZmP5N6gmP66NGjBzy0LRssopAgbOzIJxfai/ka0ayqhF3hUQhCAbnkkksSn1zYKPLUU0+tKQT5PTgQIhm/GUza8GVh35YqOeSQQxJ+LVUSPiRxr8pEKzftIl3sbxJ5PEpAAhKQgAQkIAEJ9I2AplwV3NikcLPNNkvzzjvvgGyax6CcsiizagPEiio0fInoUgy2t91227qRrygMPwzMvar228BPIyQ/j2txzO/ljvY4fx977LGVmxtuvvnmheI02WSTRTHdjqFYbLHFFrXIYZGI1Riie+HcH1IV0pi6oXRttdVW3cogH8rRYYcd1uNqVe5DQp6qzSYx+SJUcEhZUYnrHiUgAQlIQAISkIAEmiMwwafmMl13ymsuv6lbjAARpTDrYtVniimmKBQi/CRyRWIwq4zZGmZdKGOzzjprpclUT8/HH+bFF18sVkZw0C9Hz+opb9xjN3gc7jHjot2EKp5yyinjtkcJSEACEpCABCQggSEkgLk/wpiNsRp+vGzPoGIyhJ3ioyUgAQlIQAISkIAEJNBpBOopJppyddqbYHslIAEJSEACEpCABCTQggRUTFqwU6ySBCQgAQlIQAISkIAEOo2Aikmn9bjtlYAEJCABCUhAAhKQQAsSUDFpwU6xShKQgAQkIAEJSEACEug0AiomndbjtlcCEpCABCQgAQlIQAItSEDFpAU7xSpJQAISkIAEJCABCUig0wiomHRaj9teCUhAAhKQgAQkIAEJtCABFZMW7BSrJAEJSEACEpCABCQggU4joGLSaT1ueyUgAQlIQAISkIAEJNCCBFRMWrBTrJIEJCABCUhAAhKQgAQ6jYCKSaf1uO2VgAQkIAEJSEACEpBACxJQMWnBTrFKEpCABCQgAQlIQAIS6DQCKiad1uO2VwISkIAEJCABCUhAAi1IQMWkBTvFKklAAhKQgAQkIAEJSKDTCKiYdFqP214JSEACEpCABCQgAQm0IAEVkxbsFKskAQlIQAISkIAEJCCBTiOgYtJpPW57JSABCUhAAhKQgAQk0IIEVExasFOskgQkIAEJSEACEpCABDqNgIpJp/W47ZWABCQgAQlIQAISkEALElAxacFOsUoSkIAEJCABCUhAAhLoNAIqJp3W47ZXAhKQgAQkIAEJSEACLUhAxaQFO8UqSUACEpCABCQgAQlIoNMIqJh0Wo/bXglIQAISkIAEJCABCbQgARWTFuwUqyQBCUhAAhKQgAQkIIFOI6Bi0mk9bnslIAEJSEACEpCABCTQggRUTFqwU6ySBCQgAQlIQAISkIAEOo2Aikmn9bjtlYAEJCABCUhAAhKQQAsSUDFpwU6xShKQgAQkIAEJSEACEug0AiomndbjtlcCEpCABCQgAQlIQAItSEDFpAU7xSpJQAISkIAEJCABCUig0wiomHRaj9teCUhAAhKQgAQkIAEJtCABFZMW7BSrJAEJSEACEpCABCQggU4joGLSaT1ueyUgAQlIQAISkIAEJNCCBFRMWrBTrJIEJCABCUhAAhKQgAQ6jYCKSaf1uO2VgAQkIAEJSEACEpBACxJQMWnBTrFKEpCABCQgAQlIQAIS6DQCE3dagxtt75133pluvvnm9NRTT6UPP/yw0WyV6SaeeOI011xzpRVWWCEttdRSlWm8KAEJSEACEpCABCQggU4moGJS0fuXXXZZGjNmTMWdvl1CsXnssceKz7PPPptGjRrVt4LMJQEJSEACEpCABCQggTYloGJS6lhWSkIp2WCDDdIyyyyTRo4cWUrV3Nf3338/3X777emiiy4qyp5jjjlcOWkOoaklIAEJSEACEpCABNqcgD4mpQ7GfAtBKVlxxRX7rZRQFooNZVEmEs8ovviPBCQgAQlIQAISkIAEJJBUTEovAT4lCCslAy1RZjxjoMsf3+WNGzcuvfzyy+P7sT5PAhKQgAQkIAEJSKANCWjKVerUcHTvr/lWqdjia5QZz6hKMxDXXnvttfT444+n559/Pr3xxhuF4/18882XZpllljTBBBMMxCOKoADbb799euedd9KWW26Ztt1226bLfeaZZ9KPfvSjIt9WW22VNtxww6bLMIMEJCABCUhAAhKQQHsQUDFpj34sWsFKzLnnnptw3q+SySefPK200kpp5513TlNPPXVVkoavXXvttYVSQoYzzzwzffe7300TTtjcAhwrLihRCAqOIgEJSEACEpCABCTQuQSaG0l2LqeWb/k//vGPxKpDPaWEBjD4v+qqq4rVjfvvv79fbcrDHq+88spNKyX9eriZJSABCUhAAhKQgATajoArJm3QpWPHjk177bVXrSXTTTddoaQsuuiiaZpppkmvv/56evDBB9M555yTnnvuufTSSy+lHXbYIR1yyCHF3iq1jE2cLLnkkum0005LL774Ylp66aWbyGlSCUhAAhKQgAQkIAEJdCegYtKdybC68tZbb6XDDjusVufVVlst7bPPPmnEiBG1a/iWLLTQQmm99dZLRx11VPrzn/9c3DvllFPS8ssv32e/k7nnnjvxUSQgAQlIQAISkIAEJNBfAppy9ZfgEOc/66yzan4aSyyxRNpvv/26KCV59fAB2XXXXWurJA899FC644478iTpo48+Sm+//Xbx+fjjj4t7n3zySXr66aeLMMdsEBkS6Xpz5n/llVfSPffcUzyLKF6Up0hAAhKQgAQkIAEJSCAn4IpJTmOYnaM4XHnllbVao3RMNNFEte9VJygnW2+9dW0vlfPPP79LaGR8VI488sgi6zHHHJPuvffewgQsnNQ32mijIpLWCy+8kL797W8X6bbYYov0ve99r9vjcMb/3e9+V3tWJCBCGNG4MDNTJCABCUhAAhKQgAQkAAEVk2H8Htx333211ZI555wzzTvvvA21ZuGFF05/+MMfipWLCGEcGfPVjKuvvjpdeOGFcavLMU+Xn0ciwhTvtttuhT9LXIvjo48+WqzcbLfddnHJowQkIAEJSEACEpBAhxNQMRnGLwAD/BCUjWZkttlm6zV5KCWjRo1Kiy22WJp++umLT28ZMe3af//9a0oJfihf+cpXEpG8/v3vf6ebbropXXPNNenEE0/srSjvS0ACEpCABCQgAQl0CAEVk2Hc0WFeRRMWWGCBQWnJoYceWjjIN1P45Zdfnm6//fYiCxHCcLifdtppi++LLLJIWnvttdNMM81U7LnSTLmmlYAEJCABCUhAAhJoXwIqJsO4b3EqD6lnxvXqq6+mu+++O5J1O0488cSJfUiqZIMNNmhaKaEcTMxCDjzwwJpSEtc4YsZ11113pQceeCC/7LkEJCABCUhAAhKQQIcSUDEZxh0/ySST1GqPglElbKRIpK6e5Lrrrqu8vcwyy1Re7+1iKBvsNM8KSZXgpL/KKquomFTB8ZoEJCABCUhAAhLoQAKGCx7GnY7DewhRsgZa8ClpVt577730xBNPFNm+8IUv9Jh9nnnm6fG+NyUgAQlIQAISkIAEOodA9TR757R/WLd09tlnr9Ufp/IqYQPF8847r9stTKnwUWFVYyCFfUpCenOwn3nmmSOpRwlIQAISkIAEJCCBDifgiskwfgHmmGOOWu1vvfXW2nl+grkXjub5h71MwnF+/vnnz5P3+zxXNtiUsSd5/vnne7rtPQlIQAISkIAEJCCBDiKgYjKMO3uWWWaprXiws/ptt93WUGtIGzLQ0bxGjBiR2EAReeSRR3rc5f3xxx+PaniUgAQkIAEJSEACEuhwAiompRcgnMjff//90p3+f40y4xn9LZHVkB133LFWzEknnZTGjRtX+1518vbbb3cJ09ubH0hVGb1dizLfeeeddMcdd1Qm/+CDD9L1119fec+LEpCABCQgAQlIQAKdR0DFpNTnc801V3El9uEo3e7X1ygzntGvwj7LvO6666Zwgica1o9//OOU+3nkz2A3du5HON8FF1wwrbnmmnmSATlnM8aQffbZp7I+Rx99dMo3iIz0HiUgAQlIQAISkIAEOpOAzu+lfl9hhRXSY489li666KLiDiFzR44cWUrV3FdWSlBKokyeMVBC2N1dd9017bbbbkWRmGl9//vfTygsKB44oBMl695770033HBDzbeExHvuuWcaqNWbvD1f/epXi2eNHTs2sWqyww47pHXWWSctuuiihZJy4403pno+MXk5nktAAhKQgAQkIAEJdA4BFZNSXy+11FLp2WefTWPGjCkUiVAmSsn6/HW11VZLPGMgZdlll00nnnhiGj16dHruuecK5ePss8+u+wh2Y99jjz1SvU0Z62Zs8AbO9XvvvXfafvvtEw7wL730UqqqD8rUEUcc0WCpJpOABCQgAQlIQAISaGcCmnJV9O6oUaPSZpttVgzcB2JFgTJQAiiTsgdDWB3Bx2T99ddPKB71ZKONNkpnnXVWWmmllSqToFSE5OdxLY75PVZtyjLFFFOkww8/vFgpKd9DMaOuSyyxRO1WXl7toicSkIAEJCABCUhAAh1DYIJPPpWOaW0HNRQ/E0zSXnnllcRGifi1EMVrKBSAd999N0VoYMIJo7QoEpCABCQgAQlIQAKdSeDhhx8uGv7RRx8VY1MCOuE6oWLSme+DrZaABCQgAQlIQAISkMCQEKinmPx/u50hqZYPlYAEJCABCUhAAhKQgAQkkJKKiW+BBCQgAQlIQAISkIAEJDDkBFRMhrwLrIAEJCABCUhAAhKQgAQkoGLiOyABCUhAAhKQgAQkIAEJDDkBFZMh7wIrIAEJSEACEpCABCQgAQmomPgOSEACEpCABCQgAQlIQAJDTkDFZMi7wApIQAISkIAEJCABCUhAAiomvgMSkIAEJCABCUhAAhKQwJATUDEZ8i6wAhKQgAQkIAEJSEACEpCAionvgAQkIAEJSEACEpCABCQw5ARUTIa8C6yABCQgAQlIQAISkIAEJKBi4jsgAQlIQAISkIAEJCABCQw5ARWTIe8CKyABCUhAAhKQgAQkIAEJqJj4DkhAAhKQgAQkIAEJSEACQ05AxWTIu8AKSEACEpCABCQgAQlIQAIqJr4DEpCABCQgAQlIQAISkMCQE1AxGfIusAISkIAEJCABCUhAAhKQgIqJ74AEJCABCUhAAhKQgAQkMOQEVEyGvAusgAQkIAEJSEACEpCABCSgYuI7IAEJSEACEpCABCQgAQkMOQEVkyHvAisgAQlIQAISkIAEJCABCaiY+A5IQAISkIAEJCABCUhAAkNOQMVkyLvACkhAAhKQgAQkIAEJSEACKia+AxKQgAQkIAEJSEACEpDAkBNQMRnyLrACEpCABCQgAQlIQAISkICKie+ABCQgAQlIQAISkIAEJDDkBFRMhrwLrIAEJCABCUhAAhKQgAQkoGLiOyABCUhAAhKQgAQkIAEJDDkBFZMh7wIrIAEJSEACEpCABCQgAQmomPgOSEACEpCABCQgAQlIQAJDTkDFZMi7wApIQAISkIAEJCABCUhAAiomvgMSkIAEJCABCUhAAhKQwJATUDEZ8i6wAhKQgAQkIAEJSEACEpCAionvgAQkIAEJSEACEpCABCQw5ARUTIa8C6yABCQgAQlIQAISkIAEJKBi4jsgAQlIQAISkIAEJCABCQw5gYmHvAYtWoE777wz3Xzzzempp55KH374Yb9qOfHEE6e55porrbDCCmmppZbqV1lmloAEJCABCUhAAhKQQDsSUDGp6NXLLrssjRkzpuJO3y6h2Dz22GPF59lnn02jRo3qW0HmkoAEJCABCUhAAhKQQJsSUDEpdSwrJaGUbLDBBmmZZZZJI0eOLKVq7uv777+fbr/99nTRRRcVZc8xxxyunDSH0NQSkIAEJCABCUhAAm1OQB+TUgdjvoWglKy44or9VkooC8WGsigTiWcUX/xHAhKQgAQkIAEJSEACEkgqJqWXAJ8ShJWSgZYoM54x0OVbngQkMLAE3nvvvfTJJ58MbKFtWhqcnn/++TZtnc2SgAQkIIHxQUBTrhLlcHTvr/lWqdjia5QZz6hK0+w1zMQYEEwwwQQDsrrT7PPrpb/rrrvS6NGji9u77bZbWmWVVeolHbTrf/vb39Kxxx5blH/IIYekBRdccNCeZcHtQ+Cmm25Kl1xySfrXv/6V3nnnnTT55JOnyy+/vH0a2I+W/PrXv66Zul5wwQXF3x2K42/ajjvumB566KG02GKLpd/+9rdpwgmd9+oHarNKQAIS6EgCKibDvNu32GKL9NJLL6WZZpopnXfeeS3TGhSm1157rajPu+++OyT14rlRhw8++GBI6uBDhxeB6667rqZQR81RTpT/EnjzzTdrv6mYEOHOPffcUyglcf7II484EfBfZP4rAQlIQAJNEFAxaQKWSSUggfYmcMopp9QauOqqq6Y111wzzTzzzLVrnlQTWGCBBWo3WGH6/Oc/X/vuiQQkIAEJSKBRAiomjZIynQQk0NYEWBl5+umnizbOPffc6YADDmjr9g5k46aYYop04YUXpnvvvTctscQSLWVWOpDttCwJSEACEhhcAiomg8vX0iUggWFC4N///netpiuttFLt3JPGCEw33XRD4kvWWO1MJQEJSEACw4GAislw6KU+1pGIQh999FFi5/lwvOc7mz2+/fbbif1UZpxxxpoDa2+PefHFFxOfcePGpXnmmSdNO+20vWWpvB/1mmiiidKkk05amYaL1BGh7rShSj7++OMiEhDRgEaMGFGYkEw11VRVSXu89vrrrycGpv/5z3/SDDPMkGafffYe69ZjYaWb+LoQiY0ZeUxcpp9++lKKvn/F5p+2v/HGG0V/zjbbbA33J/1Am19++eU02WSTFX5Ks8wyS93K4FMQ/hZ5n7z11lvpmWeeSbST/NSh7Pic583fx6qH4UiNjxLC+8F70qw00zbeZ3yQ6PsQ2hfvX2/vaeThSDmUR/thivCO4nNBm+j/qaeeurge/8DmlVdeKVZrppxyyuK3VX7f+d3SJiRnH2XkR54TATZYyWhWaMNzzz1X+K7xrvJ3oqffaZTf6O8aPmw0i28cZc8666zd3pcos3ykj6gb7zv5+J3G+xHPL79fOTv6hL6BOe8sZX3uc58r6lF+Fv3G3zvqyt+6ueaaK00yySTlZLXvVc/n2oMPPli8C+Qvc6Ru/AZfeOGFWnsIZKJIQAIS6FQC1aO9TqXRZu3+n//5n2IgudxyyxUOvYcddljCuTcXnOb33HPPtOyyy+aXu5z/4x//SKeddlp64IEHulwnL3b42223Xbf/cLskLH354Q9/mB599NE055xzpjPPPLN0979fGQz8n//zf4ov3/3ud9N3vvOdbunYD+a4445LTzzxRJd7q622Wtp+++27XKv3hbwnnXRSIhJTWTbZZJO0zTbbNNW2vIyxY8cW9QvzoLjHzDK+CzvssEOPA51IX3V88skn08knn5xuuOGGLrex71966aXTzjvvXCgJXW5+9gVF4tRTTy1Mb8r3MWHaeuut0xprrFG+VXCmLxD6/Ctf+Uo68cQT05VXXtklLYNF2sa7EcLA+1vf+lbxleho5KsntOucc84pbhNNbYUVVqiXtNv1vrTtiCOOSH/5y1+6lPX73/8+8UHmm2++lPuedElY+nLwwQena6+9trh69dVXp2OOOSb99a9/rSl03Pja176W+A2gQN93333pqKOOqjmOR3Hw53cZA1n6efTo0cXtzTffvOAfactHomPx+0KILtaMov7HP/6x+K2HAhpl88z4Pca18nHLLbcslI3FA8l5AABAAElEQVQvfOEL6fjjjy/fLt4f2somtmX50pe+lHbfffdioqR8j+/06wknnJAuvfTSLrd533faaaeCafy9++IXv5gOP/zwWrrLLrssHXnkkcV3+gNzM96vCIyx0UYbpR/96Ee19Cj7RPMrvxMkoG08j8hjZYnn8/d2n332SQcddFC3Pav4u7TxxhsXytFVV11VPCfqQXm0Z9NNN01bbbVVufjiO4oS6RdaaKHK+16UgAQkMNwJGM9xuPdgA/VnBpVBTVkpISuzloTzRfmoEgb/DJDKSknkJWQog2D+w2xWmC2sJ8xWhjC7WRaiAP30pz8tBjvle2PGjEnf+973et1TgTr/+Mc/rlRKKJNB2q9+9atixrv8jN6+/+Y3v0l77bVXzWchT8/AAm4/+9nParPy+f3ezpld3XXXXbspJeRjQImShQJByOay8C7svffelUoJaZ/4VFGr967k/cAKE/1eVkoog1non//85+m2227jayGszC211FLFOSFlUTyrhH5nII+EklWVrupaf9pWVV5c6+k9jTRxzBmdfvrpBefyIJ8B7y9+8YsiklWE2I38ceS3CkNWF5Dll18+biXCYOe/j9qNT0/gGkoJ5mjNKiUMyMv1pfyzzz67eF/7Gt2OOqPwVikllM/fH5TZqj2eYLDffvt1U0rIR10PPfTQuhMcpMn7BGWRyYxcGSBNCOyYBKlSSkjD30EUkxtvvDGydDvyHu6///7dlBISorChFBFB8cADD+xWD9rDpAHvTln4u8ZkyQ9+8INC6Snf97sEJCCBdiDgikk79GIvbWA/BoRZSWa5McNCIWEVhBlbhH0HmGnMTUgwQWDwH0JeBjsMMv/5z38m/pNnNYCBJrODzIaOD8H0iEFbCDOUzDDPO++8xcCBeqG4MJiqJ5jpoBjEAIXZfVZaMC2BycUXX1y0jQEiKwCsEDQq8MAROIS8iyyySGKl5PHHHy9m3+EGQwb2G264YSTt9chsLjPLUW8G+2uttVYiKhKDJmbWb7/99mLAtssuuyRmi8Och8EsM/rxPrA6Qp9SBkypz5///OeiDign9GcoE+WKobQhrH6ss846xQwyqzgMnlgpQugjVj/gh6y77rq1gSkDu29/+9vF9fwf2hBt++pXv1qY5+X36533p20ocfQBfYMiinzzm99MX//614vzWLUovjTxzxlnnFFwYaUIBszUo7Ait956a/HhfL311kurr756wowLZTJWG0jDe8wKGEoaKy0MmPnt8ttceOGFyd5F8hU0+DUqPCv2/CHPqFGjipUqTLlQMFmpiPem0TIjHeZM7H8SAmt+s5hQ8d6de+65xSCedrF6WQ46ADPeaYTf0Prrr19sgIuSRN1YFYrVrXhGvWP8Lmkfqx60LzetZGUs3j/qyO9j/vnnL8zorrnmmlpIdv7ewaRssshzgxP9xW8D0zt+F/GboY0h3//+94v+RZlhBYXfK0J7+H3k716+lw5/N37yk590uR9lepSABCQwnAmomAzn3mui7iuvvHIxSxv22Cgn7ESPyQAz3HywuWawijBLzEpJCCZNuXkB/6ljksAsKAMKZkIZ2FHuYMvvfve72uABZYtBQgwQGKwx0GNQHkpXVX0YhMXMMgMIFLCw7UaJQNFh0MAgBQVn7bXXLkx6qsoqX2N2GGEwyeoE7EPwMaB8Zj4RBlzNKCYokGEahiKJqVP0KW2nrH333be2CR5K2je+8Y3iWQykYtUMMzwGfNNMM01xj39QzBiEhdkLKz4XXXRRXeWAd4X6xOCJ58OSmWAYMPvLgBQTQiTfZJN6VSkm+cCaQV2j0p+24RfDJ94hnoki0V9zGZQ22h6+JnzH/yb/XZXNsmCIrxRcEZRcFBMERSNm8uFE2rIweEZ49/htNCIodaxIhGBuhDlRCL91ns3fgKrVlEhX73jLLbfU8m222WbFjH+kxe9iySWXLFZLaCuKBvWJvuA3TN+GYHbHBEQIK0lMlvB7b1RYYclXoCIfSlKs6KCQ//KXv6z55pEG3qy+nH/++UV7+HuHmV+VoNiyGhsCQyZ98skSlOC8j3gmEw/xG6D8vI8xt42VbcqL3108w6MEJCCBdiCgKVc79GIDbcDsJgawkZz/KDfYYIP4Wjhhxpe77767NvhnAMxGjmVhJp6BN/+h8sGpfnxIDB6YPeX5MYiJZ+OgiqlMPWF2MmYmGYBiyhZKSeRhVSgfQDJD3ajgP4ACwAxnrpREfvbFYGCB5OZOcb/ekUEhs6oIA09WJMp9yj0GRPQZfYJjbUjk5Tuz0rlSEmlQYvB/QXhezFTH/fyIAlI1OIJnrJIwE89AE+F9YQYaYRCKMpwL6WLgTf58UJanqzof6LZVPaPZawzkQymJvPRLLlXKWT5oxmk+hAE87zxSZc6FGRdckS9/+ctdBtXFxTr/EDwhFA78earqhKN5vkpZp6jKyyi8/B74YIZUFt7hFVdcsbhMPXJzrvx3x+8xV0qiHLhgEteI8Pcu55vn4TfPb5Z6slrISkdZop5c72niA1PSsuQ+Vyj1uVJCWv4G5dHgyn9P8WFBWWKlhMkYRQISkEA7ElAxacdeLbWJwUy9aEsxgCRLmDBwjmISwn+o5cF/3GPwy3/ifFhVGGzBtyHqybPr2dAzyGBFqEoefvjh2mX2XKgXaSefMY8BXy1jP06ImBRRk2JA2Ehx+SCVwVWVYkE59DfOv/RJDARZAQsTE5QanHjrST44yt+DPD2z/5i9VQnKSj4AZ+AbkpsXxcxw3GMQGn2LqU1ZWYx05eNAt61cfl+/VzFmMoCgDwi/vao+ZFUlJHxM+M5vMFa/wpwr0nHM/R5CAczv1zvPB8Ao0vW4531ar6y+XA/FNfIycRBy//33x2lt5ah2ITupp2xkSYrTen8TyumqvrNakk8EYKJWJSgdVX+XWKUMQZmqkvw3FX8jIh3PZtWRd6Ac2S3SeJSABCQw3AloyjXce7CB+vdkXhX+BxSTO4m++uqrtZJ7yl9LNJ5OMG8IqZo9jXscMUuqmvHP28YMPQ7+vUlPs6NVeWGJIsDqDoN7zEQIcRoD76o8vV3L613PhKReGSh0IVUD5rjHMd+1m2haVQLbniR/Zxj4hgKMMoniBIeyOVeuqDSj5A5023pqVzP3qpSOPH95NSXu1ZsE4D5cwjG6bM4FTwTWiy66aHHeyD9h0khaBtX1BAWe9y5PXy9t1XUCK/B7vOOOO4rwuLwD+Hr1pJzjY4OgTNebXOF+KHuc9yS5P0m9dPzOWOmjntQZ8yresZ7qmZfFpEhvUrUaQ56e+r63Mr0vAQlIoB0IqJi0Qy/20oa+/GdHeM6QRv6jjbSDfcxn3zEv6Unymec8Xd42rjeiLOB/06gw2GLFIsLGNpqvt3SxrwbpehqkVZWT563HJfLlM7tlVpGmN/Z5/XJzMmZ9WQ0566yzauZcDKRR5MI3B+Wlt/KjHhwHum152a12jk8GiiVBAuCFyRC/b8ziYlWPIAP1Vj2q2pNHSMv7viot/dKsYsKKCJGoegoRXfUsruUrFLwj9dqVT6rUK6uR60xSEFGrUSWkkTJNIwEJSEACjRNQMWmcVUelzDdPZGAZM97jC0K9gUZej7KPQrlu+YArv5ebWTAIxiG3nmBKw0xxvRnOqnz4b4STKjO9DMSZ0YUpkZdYpWKfA8xxmpHcfKNe2+qVl7e5t7yEIw7J34O4xrE39rkCmZunkBf/BxQThFl/fBoYaAcPBtbNyEC3rZlnD0Va3qfgFdG5+rraRP3z1Qb6vifFtbd3p4oHzuK5UkKABFbcWL3g98CHaHDhX5SXwcoPwR5QFHin6tWNiHD9FczG8iiE+NssvvjixSQA7xj1xP8F53lFAhKQgAQGh4CKyeBwHfalsvt5CKY4PW3AGOmaPeYmOOW8mD5VSW4ilJt1VaXNfTLy++FAzDVmgJvZwC8vp+ocu/NQSrjPTHGuUEQe6hAD8bjW2zHvk9xPprd83M/rEDPr9fJhvhJSz/Slt+fnfgt5n1Eu5kL4qFCPMOfKB9Z59K6oR0/HgW5bT89qhXuEFiY6FRLmXGHGRVCFXHlvpL65WSB9j7JeJYTnzd+NqjRV13LfFyK+Vfl55GnyMvDzCoWF6F5Eu6qSCFFdda/Ra5QfQrRBPmVh53lFAhKQgAQGj4DO7yW2sY9H7oBZStLnr1FmPKPPBY2HjPnghEFP7oSbPx4fCjb7I+oXsfobkZihZRa03n/09Xw6GISGuQkDidzvIn82M/oRvSu/zjl7foQQFaueEytpmEHmg515I5I76xK6Nx80R37q3JtyEGnzI/VmBQahbfmqRJ6O8vfYY4+iX9isDcEkJpyX4V6PDStVeT8SHKBKMOfJlY88DeZfbPKIUN8qsyxm/RE4MAsfZlw4bed+T0WiXv4Z6Lb18rghv807RThrBG7wi/cp9l4pbjb4T+6rRUSqsjN6FFNPeYj7VUf+5kXQBX73VUoJ+XLFNC8n94ci9HT++4p0TASw/0h/JY+QV08BwvdEkYAEJCCBwSOgYlJiiw03UuU0XUra9NcoM57RdAHjMQMDglAgMBtht+Sy4MyNPTaDXAYf5Znxcvr4nisG+aZhcZ8Bdx7vP67HMfZ1YIBNWODyztwoGj2FNiVqFOYkCKsWmF6Vy+DeFVdcUZgZYWrU6AZuuW9FbhJFeQh1yzeb++/Vxv7FpCyiLdF29isp78TNoJK9TRhA0S+56Uu+Lwj9VrUqxQpPzD6zqpMrqOVaYo5WVix5PvszhN8O+av8Apj1D2FPmVg9yqN2xf1GjgPdtkaeOZRp8vc33xgxD0nbaP14Z2MVkXcmnOvz/Jgw9RSCO0+bn2MCGRMJvCu8t2Xhtx5785TvETKaDSpDCEXNqgsKGZsMEjY3D+sd6fpyZMPHkBdffDFOa0cUlz/96U+17+P7hMmR0z7dFJe9cZr18xnfdfV5EpCABPpKQFOuEjnMepgJZmM5hBm+ZvwLSsUVX5k1RCmJMgfSdKjqeQNxjcEku4SzazmDiQsuuKCYmSWcKINdIk3h3B0DUAZEocj09vx8FpRBFQpOzOYz88vAqGoAE+WyZwERcxjMMpBi3xD23iCaFCZGrPD0ZnKy0047FXb6pGN2nw3aaAOmI9Tn+uuvT7FZHc9lD4FGBDMaPqzYMMBnnxVmt/GzoG4oOyh6fRU2v4MRK0ocd9hhh6LtDOAYrPBMmCCsVrArfAhKDQoke7jQb+RlQI8dP4MeHH+ZMQ9BwagXSpk0tJEyiBRFnxIggNWWmCHn+aymVQm+K/BmpjxWV3pThKrKiWsD3bYot1WPmFbCl99J8MN3J/e3abTu/NZRzvlNIPz++BvInh2UR3/m+8Q0Wm6kI/z0xRdfXLxzvA/0FZuMstLD+9pbkAjesfg90V78Ufjkwmao+LLE36P8XqPn/A2KiRKUHVZNmAQhuAIMUNqHUnh+TNjw9w8/rb4ENhnKNvhsCUhAAr0RUDEpEWKGl/8wGWChSIQyUUrW569sNtbTLHSfCx6EjMwgEl0qNi9j4FoVWhe79noD0KpqMahi1/jzzjuvuP2///u/iU8u+f38OucMahk0b7vttsUtBvrlwT6ztOwAX2+lA0dWZh5RvBjMEJY0QpOWn4eC1qjSRV4UJRQShEFjDByLC5/+Q/9jzvfPf/4zLjV8ZLWHWWL6hMEaykjV7CmDfDZAzJVqBqBszkYIYMxfUOxioFOuAKsu+T4u5fsEDMC0h5luZnGrBCdhNpOsJ8z65yY8OL3nUZjq5au6PpBtqyq/1a6hMPJ+//GPf6xVLV81ql1s8ITfMOZ//CYQ+iXvG66hSMI5N/Xjem/CigcKCO8byjSfXHhXUd4vvPDC/HLtnHeC1TkG4uX3lUkAfsOswKGY9EdQxFBO+F3yN4H3mk8u+J2Ur+X3B/Oc33sI56yWVm1wGmk8SkACEhiOBDTlqug17N8ZeGF7PRD+IJRBWZQZtvUVj+3XpZ5mtnsa7OX38vOoDDObxxxzTKWDOIP1zTffvDBNyh2zyZuXlZ9HucyCspt8ecDPIGWvvfbqsiN9VX4cdo8++ujaDupRLkcYn3DCCSmvU9XMIsoLZYR5VF4G51w/44wzartSl+/X+86qEitB+cpQpIUXCkO9PSwiXU9HFDPMwRiYlgV+zJyffPLJxax0+T4sR48enbbaaquav0qeBqWJwWlvq3rMpPNeVK0k4dhOGbG7fV5+fs6meMz6h1Dv/kh/25a/I/l5M3VqJl/Ve11+Vk/l5athcIxVx3IZjX7nd0NUqjC9yvOxUSfmkSNGjMgvdzmPv0HlOvMbP/7447vsah4ZmajhPcrNW8v5SUv7UEBYDT333HPTSSedVKyaoKig1CDhw1d8yf7Jy8vPsyTFKb9JJiGYFOF3lAt/b/jN8dsOqdd/jVyvlyavX37OMzfZZJNavegPlZLoCY8SkEA7EZjgU2fXT9qpQbZl8Ahg0sCsJ34EzFQO1H+MmE5h081gAGWCWdlmhPysAvAfOSZTMUBqpgwGNfhcYCoSDvblgUEz5UVaymV2E+UUJ/C+1C3Kqjoya0qfUG8GlPXC+1blxa8GR3nMuGgr+VlJqieY92yzzTbFbQaJKFkIO1TTxnfffbdYISkP6opEFf/w3NjJHGUmDylbkbypS822ranCWyQxfkSsciCbbrppwsxvIITfN78noubxPuCDMhC/BepG2axI887we+hNQccnKzb5pC71Nq3k/Yv3kSPvZ3+Fv0kEcuBvUjO/q/4+t6f8vNewy1dCe0rvPQlIQAKtSiCie/J3jf9jGB/xt01TrlbtsRasF9GSmo2Y1EgzGGzUG3CMj/w8gx9Deb+NRp7dWxrKbTQoQG9lVd1nBruv9WbWFmWkaoa86ln1rqF05TPe9dKVr7MaFUKAgYGUgWrbQNZpIMviDzmrECH1okjF/WaOoaT2972oeiZll1dJq9LFNSYLWFlFUHhZCS2bB8Lit7/9bWRJyy23XO28Pyc8p/ys/pQ3EHl5r+uttgxE+ZYhAQlIYKgJqJgMdQ/4fAl0EAFWaBhs4uMSPgGsvq3xmTlOB6HoU1OJWMfqAHt7hG8RJlh59LU+FdyimfBziyAJ+H3gv8W7gpkkKyisvvAewQRBeSGYgyIBCUhAAsOTgIrJ8Ow3ay2BYUkAp/pyAAX2wHEWuLHuxGQrFwbisaKQX2+nc0zUCL2N0zxmixE0o9xGlJVf/vKXPfrBlPP4XQISkIAEWouAiklr9Ye1kUDLEsD+M/xHevMNaKQRc3+6A/zuu+/eq5N8I2V1YhpMlnBWn3HGGdu6+ZgqEkyCCGREBMsj8OEUT4AOAi2gtA2U31tbA7VxEpCABFqYgM7vLdw5Vk0C7UYAh+px48YVzsQDHQig3VhVtYeVA7jhjD1QDulVz2nlazjQs3LCKltfgmW0ctusmwQkIIFOIVDP+V3FpFPeANspAQlIQAISkIAEJCCBFiBQTzGZsAXqZhUkIAEJSEACEpCABCQggQ4noGLS4S+AzZeABCQgAQlIQAISkEArEFAxaYVesA4SkIAEJCABCUhAAhLocAJG5erwF8DmS0ACEpCABCQgAQlIYCgJEBin2AV+KCvhsyUgAQlIQAISkIAEJCABCUDAFRPfAwlIQAISkIAEJCABCUhgyAgQCn/kyJFJH5Mh6wIfLAEJSEACEpCABCQgAQkEARWTIOFRAhKQgAQkIAEJSEACEhgyAiomQ4beB0tAAhKQgAQkIAEJSEACQUDFJEh4lIAEJCABCUhAAhKQgASGjICKyZCh98ESkIAEJCABCUhAAhKQQBBQMQkSHiUgAQlIQAISkIAEJCCBISOgYjJk6H2wBCQgAQlIQAISkIAEJBAEVEyChEcJSEACEpCABCQgAQlIYMgIqJgMGXofLAEJSEACEpCABCQgAQkEARWTIOFRAhKQgAQkIAEJSEACEhgyAiomQ4beB0tAAhKQgAQkIAEJSEACQWDiOPHYngQ++OCD9O6776b3338/ffjhh+3ZSFslgSYITDzxxGnkyJFpsskmSyNGjGgip0klIAEJSEACEhhMAiomg0l3iMt+44030ttvvz3EtfDxEmgtAijofPhtTDHFFGmaaaZprQpaGwlIQAISkECHElAxadOOf+WVV4pVEpo35ZRTFrPDzBRPMMEEbdpimyWB3gl88sknhVLCKuJ//vOfQjlBSZlhhhl6z2wKCUhAAhKQgAQGlYCKyaDiHZrCWSnBdAtFZLrppkuTTDLJ0FTEp0qgxQigmPN74IMp12uvvVb8VvjNuHLSYp1ldSQgAQlIoOMI6PzeZl2OT0mYb6mUtFnn2pwBJYBywm8E4TfDb0eRgAQkIAEJSGDoCKiYDB37QXkyJioI5luulAwKYgttIwL8RvitIPHbaaPm2RQJSEACEpDAsCKgYjKsuqv3ymLChWCmokhAAr0TiN9K/HZ6z2EKCUhAAhKQgAQGg4CKyWBQHcIyIyQw/iWKBCTQO4H4rcRvp/ccppCABCQgAQlIYDAIOHodDKotUGZ/om899thj6bnnnitaMe2006bFFlus1xbleZZbbrlinwgyER3s/vvvL/IvuOCCaeaZZ+61rEgwduzY9PHHH8fXbkfMcCaddNI0+eSTp3nmmadw9u+WyAsS6IVAf34rvRTtbQlIQAISkIAEmiCgYtIErE5Jevjhh6enn3661txzzjmn2O+hdqHi5K9//Wu6/PLLizsnnHBCmn322Yvz++67Lx166KHF+S677JK+/OUvV+SuvnTwwQdX36i4ijnO1772tbTuuuum2WabrSKFlyQgAQlIQAISkIAEWpmAplyt3DtDULdHHnmki1JCFW644YYhqElzj8Rx+cILL0x77LFHevXVV5vLbGoJSEACEpCABCQggSEn4IrJkHdBa1Xgmmuu6VahP//5z8VqRLcb4/HCvvvu2+1pmHm988476ZZbbkk33nhjcZ/9KH75y18mVn0mnFC9uxs0L0hAAhKQgAQkIIEWJaBi0qIdMxTVIirRVVddVTx60UUXTTPOOGO6/vrrixUU/EQWXnjhoahW8Uz8VurJmmuumVZYYYV0xBFHFEkefvjhos6f//zn62XxugQkIAEJSEACEpBAixFwSrnFOmQoq3PzzTfX9nJAEVh11VVr1bniiitq5614ssYaa6S55567VjWUk54EJezf//53evnll9NHH33UU9Ju99iM7/nnn286XxRE9CfyN7uhH/V88cUXE6tCigQkIAEJSEACEmg3Aq6YtFuP9qM9f/vb32q5l1566TTnnHMW+6Hgv3HttdembbfdNk0zzTS1NK12gjL1xBNPFNWKY15HonyxIvT4448XCkl+b5lllknf+c530rzzzptfrp2jRODcf/7553dRDMi35ZZbFis05513XpH+kEMOSVNNNVUtLycoI3/605/S3//+9/Too4/W7qFMfelLX0obb7xxGjFiRO16nHzyySeJfuHZeT6c/RdYYIE0atSotNJKK0Xytj7efffdafHFF+9TG88+++y0+eab9ymvmSQgAQlIQAISGD8EVEzGD+eWfwoz+HfeeWdRz1lnnbUIv0sY1bXXXjtdeumlxXX8TzbccMOWbUu+c/f0009fqyerIwcddFC6/fbba9fKJ9zjg/P8aqutVr6djj/++EJBKN+IfChxEcls3LhxXZI9++yz6bDDDuuiWEQCFCg+N910U/rZz35WKINxj+MZZ5xRKEP5Nc5p67/+9a/is84666Qf/ehHqZ3D3qJY/OEPfygUE/qyGdlrr71SKDV9VWyaeZ5pJSABCUhAAhLoGwEVk75xa7tc1113Xa1NX/3qV2uD3LXWWqummOAE/81vfrMlncoxb7r66qtrbUBRCOF6KCWs+GyyySbFygjO8SgNrGRwRM4888y08sorp4kmmiiyp8suu6yLUrLNNtsU+V966aVCaSBvKCW1TJ+dsFJywAEH1MpH6dt0002LcMoog5T94IMPFvkPPPDAdMwxx9T2Y8GvhxUahHpvscUWhcLI3jB33HFH+stf/lLcY0UF5WQofYCKigziP6x23HPPPYWCgaLRqHKiUjKInWLREpCABCQggQEmoI/JAAMdjsUR3Yp9SEJWX331OC3MheaYY47iO/4Yd911V+1eK5ww8L/tttvSPvvsU/OPYRCP8z6CKRRhhEPYG+Ub3/hGsWnkIossUgzof/Ob3xSO/qRBWQglhe+sZrBagmA+xTmrRksuuWSxJ8uvf/3rtMQSSxT3q/6Ba5RHOhQPVqFQInDapz7Bm3R5PzDLH7LddtsVkdEWWmihwnTrhz/8YWFCFvcxtWt3QRlhxQMuKBy9Sa6UNKrI9Fam9yUgAQlIQAISGDwCrpgMHtthUzImQSgdyFJLLZVmmmmmLnVn48JTTjmluIYTPP4n41swVcoFR/A333yzi79H3N9xxx2L3eD5zuoC0blYAUERyVdSIv3IkSPT8ssvX9sgMjcJu/feeyNZ4aMQSlpcRFlBadhpp53iUpfj6aefXvu+6667Jp6VC7vXk5/oZwgrJPiNIDjZh7z33ntxWjuiYKFUzjLLLGmuueaqXW/nExSMUDg41lM4Ig2KTL007czJtklAAhKQgASGIwEVk+HYawNc5wgRTLGYBJUFn4tQTHDeRokhlPD4FFYuehNWSrbffvsuzuDUk9WUesI+KA899FB65plnaknyKF25wzkrHFWC4sMKTa7EkA7FKZQcHNXLCl+UNfXUUxerLqEgooRMOumkxbULLrigSHb00UcX+7Xg6M5qzQwzzFCkwSys06Q35USlpNPeCNsrAQlIQALtQkDFpF16so/teOutt2qz9RTxwAMPpCeffLLH0lBkxveAuGqlY/LJJ0/4bLBiMNtssxXhjcsrEnlDCA+MKRrtQxEhOldV6F3Mv0LgEYLiU09mn332booJZmEhhC9ef/3142uPxxdeeKFY5VlsscVqpktkIJwzHwQe+MIQ0Wu++eYrrnXSP/WUE5WSTnoLbKsEJCABCbQbARWTduvRJttzww03dMlxySWXdPle9YUoXd/61rdqTtpVaQb62rHHHtvnIjGJwrcjdodvtCAUlHBqx2SrJ6lSWthzpC/CihSrMChZ+++/fzr11FNrAQiiPOp1zjnnFB9WtDB1Y5Wlk6SsnND2iL6l+VYnvQm2VQISkIAE2oWAikm79GQf25FvnNjb4DvMklhluPXWW9OKK67Yx6eOv2yE7iXaVe5IzirL/PPPX2zIyL4l+J4wyL/ooou6VIzwu5iCoSjQdvw5iORVJa+99lq3y/leJji74xPSiMwzzzy1ZPig/OAHPygichGJi+hit9xyS5eVnjFjxhRmY0T/6jTJlRPark9Jp70BtlcCEpCABNqJgIpJO/Vmk2157LHHUvhuMOOPo3YeJrdcHDP3EeGKDf+Gg2KC30YoJShe++23Xy1iV96+WBnhGgpICCsXERiA48wzzxy3uhxzH5W4gQIUwurHKqusEl+bOuLzMsUUUxT5KYOVHMzRiOAVe8ywBw1mebky1NRDhnHiUE5ogislw7gjrboEJCABCXQ8gerp347H0hkA2DAxBKf3npQS0rGnSQgD4QiDG9da8Zg7pG+22WaVSgkD/0ceeaRW/VwxWXDBBWvX89Wl2sVPT/AfYS+SsuQBAuAVCk45Hc8jYhf7lOy5554JEzCUD1ZAuEa986hcrOTMPffcRTQvwgeH5I76/6+9O4GSq6rzOP7vLb1kDyQIgbCLIbiELQeQJYyyg8gi44pRHFRU9nGAYXMQBWQVyAgooIIiQmSR5ACShEEispggEDWESCQhBMiedHd6m/d7nVt1u7qqu1LV1a/e6+89p63Xb73vc2+w/n03t2+gfCogISgZKKXNeyKAAAIIJFWAwCSpJdvLe23cuNEef/zx1FluLY3Ujiwb+jKs2aVc8q93+8rtU+ucuKTB75lJAcAtt9zSpWuUf42bulfXaSpf1/ri7qMuXFOnTnW/dvlUoHfkkUem9mkNFH/GL3dAAY+CCnWRW7VqVTh7l4IPdR/TPn3mCooGDRrkbhMuvpj6hQ0EEEAAAQQQQCBmAnTlilmB9VV2NU7BjRnRDE8KOvJJWhVeLQRK+rKsFbl7mgkrn3uW8hyNJXFJ+dV77r333uE6J2rlUKuRxmj4SdP8uqQubnrHe++9N9ylWZ+0QKK6eOk8rbqebWYvd71aPGbNmhVaa0at888/30499VTbdtttw2502ucHHaeccoopKFHSc1wgpG50Wml+n332CVedV0CkqYTdcY1hyTYA3+WDTwQQQAABBBBAoNwFCEzKvYRKlD99oXbpsMMOc5u9fmqMg2a4UlJg8+yzz4YrmPd6YUQnaN0PtfK4YCpX68akSZNSU/HOnz+/yzspWFBLx3333Re+xR/+8Icub6MuW5r5ywV6GrDuktYoUTByzTXXhMeVj1zrqmimM3+tFHWde+GFF1KziWnGtGyzpun5Wr+FhAACCCCAAAIIxFmArlxxLr0i8q7ZnVw68MAD3WavnxqErb/ku+TGqfjjU/yZq/z9/ra7vtSf1dXVdskll2RdOFLP1orvt912Wzi2w+VFLRzq4uWS3kctH+4+bk0Vje848cQT7aabbjK1WLiUObuZWjnUjSvX4Hfd74ILLrAvfelL7hbhp1pOzj77bJsyZYpl3lMnaJ+64N14441hK0qXi/kFAQQQQAABBBCImUBF8AUs/Q0sZpknu90Fli5dGu7Ugn+krgLr1q0LB5arG5RblLG3YMmNN1GA01P65je/mVrzJFurhrtWA901uF3jXbRApGb5GjFiRKr7ljsv81P/TN112lYw4w+uzzyf3zdPgH83m+fF2QgggAACCBQj4HqyqEeK/gCs3iYaGtDzt61insi1CJSZwJAhQ0w/m5PU5U2LO2rqXwUfEydO7Ha5Zv5y0w1PmDCh23F/h/7x6V7+VML+8Vzbaj1RMKUfEgIIIIAAAgggkEQBunIlrFTdwGkawvqmYF3L07Jly+z222+35ubmLjfW2iE33HBDap8G1pPiJeD+rbh/O/HKPblFAAEEEEAgOQK0mCSnLMM3UdckdT/Sjz8IO2Gv2W+vo4Hzat1QYKJWEQ1Q33PPPW3cuHGmQfL++iXqWuVPD9xvmeRBRQm47nq9desr6iFcjAACCCCAAAK9CjDGpFeieJ2gqWs1Q5S6LGlGKFLxAlpl/aKLLupxWmBNQ6yphLfeeuviH8gd+lVA0z5r/JEmdmDK5X6l52EIIIAAAgNUINcYEwKThFUILZzoVhgfPXo0rSZ9VL5ynT17ts2bNy9sPVEAOHLkyLA15YADDrC99trLehsg30dZ4TZ9KNDS0hKuD6NbqsXLX7CyDx/DrRBAAAEEEEDAEyAw8TCSvulaTfRFWV+e6dKV9BLn/QoRUFCiGdrUlYvWkkIEuQYBBBBAAIHCBHIFJowxKcyzrK9Sd5S21jZram4K/xqsbl1a80KBCgN8y7royFyJBTTQXYGIFsNU9y2luto6unCV2J3bI4AAAgggkI8AgUk+SjE8Z9QWo8IxERpvoi9g7ktYDF+FLCNQMgFaSkpGy40RQAABBBDYbAECk80mi88FajlRS4n+OqxpbrWIjZsaNT5vQU4R6DsBtRhq9i0t4qR/G4wp6Ttb7oQAAggggECxAgQmxQqW+fX64sWXrzIvJLKHAAIIIIAAAgggYCywSCVAAAEEEEAAAQQQQACByAUITCIvAjKAAAIIIIAAAggggAACBCbUAQQQQAABBBBAAAEEEIhcgMAk8iIgAwgggAACCCCAAAIIIEBgQh1AAAEEEEAAAQQQQACByAUITCIvAjKAAAIIIIAAAggggAACBCbUAQQQQAABBBBAAAEEEIhcgMAk8iIgAwgggAACCCCAAAIIIEBgQh1AAAEEEEAAAQQQQACByAUITCIvAjKAAAIIIIAAAggggAACBCbUAQQQQAABBBBAAAEEEIhcgMAk8iIgAwgggAACCCCAAAIIIEBgQh1AAAEEEEAAAQQQQACByAUITCIvAjKAAAIIIIAAAggggAACBCbUAQQQQAABBBBAAAEEEIhcgMAk8iIgAwgggAACCCCAAAIIIEBgQh1AAAEEEEAAAQQQQACByAUITCIvAjKAAAIIIIAAAggggAACBCbUAQQQQAABBBBAAAEEEIhcgMAk8iIgAwgggAACCCCAAAIIIEBgQh1AAAEEEEAAAQQQQACByAUITCIvAjKAAAIIIIAAAggggAACBCbUAQQQQAABBBBAAAEEEIhcgMAk8iIgAwgggAACCCCAAAIIIEBgQh1AAAEEEEAAAQQQQACByAUITCIvAjKAAAIIIIAAAggggAACBCbUAQQQQAABBBBAAAEEEIhcgMAk8iIgAwgggAACCCCAAAIIIEBgQh1AAAEEEEAAAQQQQACByAUITCIvAjKAAAIIIIAAAggggAACBCbUAQQQQAABBBBAAAEEEIhcgMAk8iIgAwgggAACCCCAAAIIIEBgQh1AAAEEEEAAAQQQQACByAUITCIvAjKAAAIIIIAAAggggAACBCbUAQQQQAABBBBAAAEEEIhcgMAk8iIgAwgggAACCCCAAAIIIEBgQh1AAAEEEEAAAQQQQACByAUITCIvAjKAAAIIIIAAAggggAACBCbUAQQQQAABBBBAAAEEEIhcgMAk8iIgAwgggAACCCCAAAIIIEBgQh1AAAEEEEAAAQQQQACByAUITCIvAjKAAAIIIIAAAggggAACBCbUAQQQQAABBBBAAAEEEIhcgMAk8iIgAwgggAACCCCAAAIIIEBgQh1AAAEEEEAAAQQQQACByAUITCIvAjKAAAIIIIAAAggggAACBCbUAQQQQAABBBBAAAEEEIhcgMAk8iIgAwgggAACCCCAAAIIIEBgQh1AAAEEEEAAAQQQQACByAUITCIvAjKAAAIIIIAAAggggAACBCbUAQQQQAABBBBAAAEEEIhcgMAk8iIgAwgggAACCCCAAAIIIEBgQh1AAAEEEEAAAQQQQACByAUITCIvAjKAAAIIIIAAAggggAACBCbUAQQQQAABBBBAAAEEEIhcgMAk8iIgAwgggAACCCCAAAIIIEBgQh1AAAEEEEAAAQQQQACByAUITCIvAjKAAAIIIIAAAggggAACBCbUAQQQQAABBBBAAAEEEIhcgMAk8iIgAwgggAACCCCAAAIIIEBgQh1AAAEEEEAAAQQQQACByAUITCIvAjKAAAIIIIAAAggggAACBCbUAQQQQAABBBBAAAEEEIhcgMAk8iIgAwgggAACCCCAAAIIIEBgQh1AAAEEEEAAAQQQQACByAUITCIvAjKAAAIIIIAAAggggAACBCbUAQQQQAABBBBAAAEEEIhcgMAk8iIgAwgggAACCCCAAAIIIEBgQh1AAAEEEEAAAQQQQACByAUITCIvAjKAAAIIIIAAAggggAACBCbUAQQQQAABBBBAAAEEEIhcgMAk8iIgAwgggAACCCCAAAIIIEBgQh1AAAEEEEAAAQQQQACByAUITCIvAjKAAAIIIIAAAggggAACBCbUAQQQQAABBBBAAAEEEIhcgMAk8iIgAwgggAACCCCAAAIIIEBgQh1AAAEEEEAAAQQQQACByAUITCIvAjKAAAIIIIAAAggggAACBCbUAQQQQAABBBBAAAEEEIhcgMAk8iIgAwgggAACCCCAAAIIIEBgQh1AAAEEEEAAAQQQQACByAUITCIvAjKAAAIIIIAAAggggAACBCbUAQQQQAABBBBAAAEEEIhcgMAk8iIgAwgggAACCCCAAAIIIEBgQh1AAAEEEEAAAQQQQACByAUITCIvAjKAAAIIIIAAAggggAACBCbUAQQQQAABBBBAAAEEEIhcgMAk8iIgAwgggAACCCCAAAIIIEBgQh1AAAEEEEAAAQQQQACByAUITCIvAjKAAAIIIIAAAggggAACBCbUAQQQQAABBBBAAAEEEIhcoDryHJABBBBAAAEESiDQ1NRka9asscbGRmtpabGOjo4SPIVbxkWgoqLCampqrL6+3oYNG2Z1dXUlzfr8VW02Y0mrzVnRags2tNvG9oqSPo+bl7fAoMoO27Wh0vYbVW1HjK228SOqyjvDEeWuIvgPNf+ljgifxyKAAAIIlEZg+fLltnr16tLcnLsmQmD48OE2ZsyYkrzL9a822x2LW0pyb26aDIHTxtXY2RNqk/EyBbzFggULwqva2tqssrIy/KNBbW2t0WJSACaXIIAAAgiUr8CSJUtsw4YNYQb11/Hw/+yq+b+78i2x/stZa2urNTc3h61oClzVkjZ27Ng+zcB5zzfZ9Pda+/Se3Cx5Agpcl2zosB/tU9qWu7jJMcYkbiVGfhFAAAEEcgqopURBSVVVlY0YMcIGDx5s1QQlOb0G2gHVBdUJ1Q3VEdUV1Zm+SmopISjpK83k30d1RXWGlBYgMElbsIUAAgggEGMBjSlx3beGDh1KQBLjsix11hWgqI4oqc6o7hSbNKaE7lvFKg6861VnVHdInQIEJtQEBBBAAIFECGigu5K6b9FKkogiLelLqI6orii5ulPMAzXQnYRAIQLUnbQagUnagi0EEEAAgRgLaPYtJY0pISGQj4CrK67u5HNNrnM0+xYJgUIEqDtpNQKTtAVbCCCAAAIxFtBAZiVaS2JciP2cdVdXXN0p5vGaEpiEQCEC1J20GoFJ2oItBBBAAIEYCzD7fYwLL+Ks90XdYZ2SiAsxxo+n7qQLj8AkbcEWAggggAACCCCAAAIIRCRAYBIRPI9FAAEEEEAAAQQQQACBtACBSdqCLQQQQAABBBBAAAEEEIhIgMAkIngeiwACCCCAAAIIIIAAAmkBApO0BVsIIIAAAggggAACCCAQkUB1RM/lsQgggAACMRH4xz/+0SWnH/zgB7v8zi8IIIAAAgj0hQCBSV8ocg8EEEAgQQIKRP7+97+bPjODEveaCk70c+yxx7pdfCKAAAIIIFCUAIFJUXxcjAACCCRL4JFHHrFHH32015dyQYvOPeaYYwhQehXjBAQQQACB3gQITHoT4jgCCCAwAAQUaCgoyWwhcd221DKiVhQlF5Q4FhfI0HriRPhEAAEEEChEgMCkEDWuQQABBBIkkK2V5Nxzzw27avmv6YIUt8+/TsEJrSdOxmzjxo02c+ZMe+211+ytt96ylStX2vbbb2877LCD7b333jZhwoT0yQN8q7m52WbMmBEqjBs3ziZOnDjARQp//ckjq2zyB6oKusH0pa02Z3V7QddyEQJ9JUBg0leS3AcBBBCIqYBr8VD2FXwoKMknqYVEP5kBym677dYtqMnnfkk4p6mpyW644Qa79dZbbd26dTlf6aijjrILLriAACUQWrFihU2ZMiW0OuWUU2zq1Kk53TjQs8BJ29fYIVsX/tVuzuqNPT8gIUerKzrsqj3qbGxDpf37c40JeatkvEbhtTcZ789bIIAAAgNaQEGFS9nGimR28VLgoh+/25bbdgGO7plvcOOenYTPRYsW2Ve+8hWbN29et9cZMmRIl0DlscceM/2opWDfffftdj47EECgNALb1VbYtIMGW311hS3d0FGah3DXggUITAqm40IEEEAg3gJ+S0e2oMQ/7t7UjS/Rpx98KDjxj+laF7C4a5P8uWrVKjviiCPs3XffTb3mWWedZV/4whdM3ZOqq6ttzZo1YSDywx/+0P75z3+G55100kn2xBNPmFqZSAj0pcC7jR322JKWvG/55LLWvM+N84lbB4GJghJSeQoQmJRnuZArBBBAoOQCroVDD8oWRLjjrpVE5/nBh7Z1zCUFKqeffnr4q64dSF26zjnnnFRQMnr0aPv9739vu+yyi6MJP4cNG2af+cxnbPLkyXb44YeHwYm6eylQufPOO7ucyy8IFCuwpLHdrl4wMLpmFWvF9eUjwMrv5VMW5AQBBBDoNwG1aLik1pLMpKDDJQUcClz047eS+Pfwz3XbbhYv93tSP//yl7/Y7373u9TrPfjgg92CktTBYEOBix+IPPTQQ6ZuYD2l1tZWe/PNN23x4sXW2FhYn/jly5fb+++/39Njsh5Ta9Abb7xhGzZsyHo8186WlpYw+NLgdtLAFqiv7DANzN+xbvNbKj4wyOzQLapsiwL+lF4bjCX5+IjCJgMY2CUW3dsXUMzRZZYnI4AAAgj0jYAfeGRrLVFLyE9+8pNu0wf7T/dbS9x+f5//DHc8iZ8PPPBA6rU+97nP5TWg/aMf/agdcsgh9uqrr4YtKGvXrk3dw228/PLLdvPNN9tf//rX1FTN7piuP/vss+24445zu8JPBS2HHXaYKZA577zzbL/99rMrr7zSZs2aZUuXLg3P2WabbeyTn/ykXXbZZTZ8+PAu17tfFMTcdttt9otf/CLVEqRjCqq+9a1v2Ve/+lVraGhwp6c+NRvZTTfdFLYY+WNtNAuZBvyrZam2tjZ1PhvlJ3DIqCq7cZ/6VMZ+/vpGu3Zh95aX6Qc22DbB4HGl19e22YnPNto2QRDx+8mDrdIq7ImgG9lfVrTZGePrbHiw36W2YFjH/wXdxs57udEa27MHKjsHAczVe9bZrsOqrMo7ZWN7hy1c027febHRlmZkSdc8ePDg8DHTFm+0reoq7cCtqq0iuF7PXLCmzbYL8lvndePapqHC5h0+JLzm1Gc32Ny1zErmyimqTwKTqOR5LgIIIBChgAsa/EAiW3Yyj2drJcm8Ttfo/u4ZmceT9vv999+feqVsrU+pgxkbv/rVr3J+Sb/iiivsuuuuy7gi/au+9H/5y1+2r33ta3bVVVelDqiVQsGO0uzZs+3SSy9NBSTuJAUod999d3hcXe4UqPjpxRdfNAVY/ngZd1z7dM/f/OY3Nn36dNOgfpdef/31MD9+QOKOKU/6efjhh8NnZ9Yrdx6f0QvMCoKJN9e1287DOoOOKbsOst8FQcbCpuDb/aZ01YRaGzek87j2Xv9aZ5RQX1lhg4IfpYOD2cGO3K4m3Pb/R4GGZg77RX2DnTSne+vffwQzi31n99ogtOmedO/xQQvIjEOH2FUvN9k9wRTHLg0JAo7qzizZ0dvWWIMXgOiZuwVBjpICFT+5a4b4EZB/Atv9KrCpCPv1mTwMAQQQQCBCAT9g2JwviLrOjTvJNlg+2yv5z8p2PO771NLhf4HPHFfS0/vlajnQF3g/KDnzzDNt2rRp9vjjj4df6g899NDUbW+//fac3cB++ctfhkHJzjvvHLaa6FwFMi79MxiA/9Of/tT9Gn6q25YflOjaH//4x+HzNZhfLSZKyqNaP1xSQPTZz342NSOZ1mtRa4+CF03/q7VblNS97/Of/7zpfFL5CnztzxusdVPjgb7I3+y1oKhb1THj0gHHvQtb7JlVbd1exgUGzUFzxd1Bq8uFLzXak14goQDj0g95TSnBHT42tNK+Mz4dlKiF5PG3Wu2W+c3htS5PiiEu+Ehdzq5h7tnKlLvmlZVt9utFLTbnnXRem4K8PbK4JfxZsD69v9vLsKPfBGgx6TdqHoQAAgjEV0ABxrXXXhu+gIKZbN2/3NvpmDvX7Uvqp7o8+UmLKBabfvazn6VuoS/3ChT8JF9NS+zGtahlZMcdd/RPSW1/4hOfCLtjuSDoxBNPtEmTJtlpp50WnqPg5eKLL06dr+57LtBSVzMdd122Dj74YDv55JPtgAMOCM//7W9/a9///vfDYEUtMAsXLgz3H3TQQabWoPr6zu5Aet7xxx9v3/72t03X6Dyd7/KQejgbfSrw0aBLluum1NuN/7qy3b4QBCMuvRPEjf8zr8kun1gX7lLryDd3qLG7gy/x6mLl0qKg69OV/8g9hmh9S4cd//T6VLerh4Kg4NPLquyKPTvrxmd2HGSPLGm1lzZ1obphr/pUi8aK5g47+Zn1tizVZavFtv9bhf3q44PDrmEKmHT+p/6YzrfLlz4bWzvsuNmdz1bAsy74/fVgprJ9g5ag/bbq7Ia4Isj6f72aO//+/djuHwFaTPrHmacggAACZSmQ7zS1LtBQUOIPgM/2UgNl0Lve3R9MrlaCmpr0X5Kz2eSzT4PFNYZErRWaxStb8gNDTUOcK2nGLxeUuHNOOOGEVBcsBSF+68Vzzz3nTjN1J3NBids5fvx4O/XUU8Nf1QVMK9srfe973ws/9T8KplxQ4nYqDz/4wQ/cr+EilKlf2CiJQPC9PezapK5Kvf2MzDLs57fBOJA5y9OtCKfvVmt3TapPTbWr1oyvPpc9KHAvdN1rzamgxO2bFgQnb3hjOQ77QOe/mZHBn8pH1yvXnek/g3Ek6aCkc9+bQbDy33PT3b92CYKM0Tn+xH7Z3PSzNXZEQQmp/AUITMq/jMghAgggUDKBfMaM+N2xNqfrV8kyXUY3Hjy4c7CtsqSuUR0dxX/50Rf7mTNn2vPPPx+uf+K/roIWzQL2pz/9KbVbA92zJXW72mmnnbIdsl133TW1312vvL/wwgvh/okTJ9ruu++eOsffULCzZMkSe+WVV0ytKArO3Cr3um7bbbf1T09tb7HFFqbWFCWNc9ncWb5SN2IjLwHVRHVVyudnWY6FBs94aYOtC1o9lBTc7O7NcHXhi82mlpVcSS0Wv/a6bvnn/XpRqhnE9ghm61I6Nhio7tKyIIiYszr7QPSn3m+z973xLpMU0WRJj76b/d9FllPZVUYC2UuzjDJIVhBAAAEE+lagkODCXZNPC8tACmTcmAtXQm+//Xa3weTu2OZ+aryHFl/UeA4NLFfrhIKfzJQrGMoVlOh6P9/t7Z1fABVsuABDrTW5UmYLjKYxdklB06hRo9yvPX7qOrXAkEojMC8YxP7559KtC4U8pbmjws59ocn+d7+gi5V3g+n/arHp7/X8xX/FxtxB+vxgZi2Xth/Seee9tkx/Jc0VKLlr3mlqty3qOgOajwSBTWYQonEtpHgKpGtBPPNPrhFAAAEEChBQoKEAwg8ict1G5/bWfcu/1t3TBTP+saRtZ34JX7BgQd6BiQIPBRwf/vCHu3S3UqBx9dVXd5ltqxA3tVDkSpWV3TtMuDEiumbMmDG5Lu22/1//+le3ffnsUKsJgUk+UtGeo4Hta4IGDn/K36eX9xyUKMdrN7W0ZMv9gg3pwGRYTWdg4k2iZas3po9nu/49r8XkA1nWRlnXQ0tOtvuxr3wECEzKpyzICQIIINBvAi4w0QMVSPQWRORzju7ldw3r7Z46P+6purrajjjiCJsxY0b4KnJS96Z80l133ZUam6GB4Zdffnl4mcZi/OhHP0rdQlPy7r///mHXqj322CNcm2Tu3Lnh7Fapk/pgY8SIEam7KGjKN/nXaaD717/+9bwu1dompPIXuGz8oC5BiXKsQfF//MN6e7+H+MRNG5ztDccPTgfGK4NxI0p+C8uQTcFKtmu1b4vadPvNipbuQUww/IUUUwECk5gWHNlGAAEEihFQlyw39a8Gtms2plxJwYY7Vy0nPQUc7jzdyx+gneveSdivhQNdYPLzn//cpkyZ0m1sSOZ7qlXknnvuSe120wyvXr26S1CiaYO/+MUvWlVVZ7cVd4Fmt3KprS09QNntK+TTn1HsrbfeynmLd955JxzgrsHv++yzj2nQv0sa9P6pT33K/cpnzAX2G15pJ+2QntJXPaQ0Va+Cjtv2rQ8XVcz1iiMHpYOHzHM+FMyS5dLCTQPh/6Yph4M1TJTGeIPg3Xn+55b16euXM6jdp4n9drpkY/8qvAACCCCAQL4CCi78xQDdrFvZrndds3Sspxm3/NYS/97Z7pmkfUcffXRqliuNB7nzzjt7fb3rr78+Nb2uTtZ0ukpu8Lm2tYK7FlHMDEp0TKvBu5RrjIk7nu+nWj7cgolPP/20LVu2LOulGph/yy232EUXXWRz5syxsWPHps7TCvMaq5It6xa3NQAADlBJREFUKYCaPHmyKSiWWaFdwLLdm319L1Bd0WHXBeuXuPAiXHH9z+kxKx8aXmXfCKYQzpVGBq0ae3gtI/55JwfTBLuksTBKL3lroWwbXLdLjuBEU/9u5XXfevrdwgPzTWtBuqzwWQYCBCZlUAhkAQEEEIhCQC0arvVDwYcfWPj5cefp3FytIH6rSr6LL/rPiPP2yJEjU92w9B7f/e53w+lw3WxX/rtpnxY11FS8LmnhwqFDh4a/+lP3asyHG5juztXnvffeG64H4vY1NTW5zaI/3VTAutE111zTbZaxxsbGLmvUqBuburOplcglvX+2d1fAplXhNUWx1n/xAxp3LZ/lIzB1YoO58R9qKfn68xtMq8LPejvdf+uMD9Xarg0udOme9ys3rYPiHzk2mN93J6/F5IlNU3vND2YG09olSrrjdcEaJZmBg4Klq7x7rg3GvryyvntXrvAmOf5nbTBbmEuDWe3dUZTNJ125yqYoyAgCCCDQ/wIKNFxrieuGlRl8KCDpafC7rvdbVTKv7/+36v8nqruVVjl/8sknw4drXY877rgjbPFQC4EGmyvQ0MKDfquTWkUuvPDCVIb9cRc6/5JLLgnXMtH0vmoleeqpp8KB8akLgg1/LRV/fyHbKmctfqjZuRRIrFy50s444wwbN25cmH+Ng3GD5NWFzU07rHe4//77w+see+wxO/zww8O8q+6oFUk2fkvS+eefH5oUkkeuyU/gw8FsVbMOSU9n3dtV7zW320lzOltETtiqyvYPfly6OVh5femmGX7PnNdoc0YPMa2urkUOfzKpwQ6dud6d2uVz5yAAeeLgwXZHsAjj0mDA+rFjq+2o7dKtLHODQEcBiUsXz22yW4K1UpR07ezJg+2uBRtt7uo22zOYqvjLu9TaiE1rrmhm7gu9NU3cPXr7XO7NFjY0aLh5YP/6YPphs+v/1tQlL73dh+OlESAwKY0rd0UAAQRiIaAvjmrhcEGJPvWTT6uHghEX1LiXHUhduNw761OtBlol/cwzz7T77rsvPKRZp6688kr/tC7bWlldwYuudWm77bazb3zjGzZ16tRw16233mr6yUxaJPHBBx8Mdz/zzDNhy0aFviUWmdSdS3nSquwKTrS6vFth3r+1xpWoO5dLmgHMv07TBn/60592h7t8qoUo18KRXU7kl6IE1BjgL1jY282G13Z2otGChZd+rDM40DXqwnXbm+lprlqDKYQvfKnJbgjGmCipW9UVE2rtv3OsoL5N0KJyycfSq8WHFwX/o9aRs4JFFP2kFpmHg2cdt2msyaigO9g5e3Rf/VFByTnPN5nWNNncpAH7WmOlftM0YOqSZsPNXl1VY/Pf2BR9be5NOb/PBOjK1WeU3AgBBBCIp4BaODT43Q8qFJycfvrpYeChblr6cYGIghF3zL2xa1UZiK0lzmDQoEFhEPHQQw91sXTH3acWIXzggQfCwMKN6XDH9KlWEv1kS2pRmTZtWhgEqLVFSWubuFYYfzyKv515L3+6YH9b5+m+Gjvi7p95rYKv2bNn2/Dhwbc5L+l8LQrpxst4h8JNtRypNebiiy/ucsh/vh+kdTmJX/IS8Hop5XW+f5K+7Ctdv2dDuJiitl0XLm376YkgIPhjsIK7S8ePq+k2JkSzbT26uMXS7SGdZ+s5zwbXfmLmOsu2BuIFwWrx3w7GsqibVrakxRXPD9ZWeTxjSjCtRO9Sey8x+llBUJO51skHg1XkSdELVASD5tIlGX1+yAECCCCAQIQC/liRfLORT+tKvvcq5jytIaK05ZZbFnObPrtW4zE0gFw/69evD1dE18xXmrkqn6SxI4sXLw4Hk2u9FAV/+V6bz/3zOUdjXt54441wpXbNwqWWkswFFrPdRwPdNbh90aJF4fgZdQXToo590aqT7XnF7HvvvffCy123tELvNWH6ukIvTcx1OwetJw8H3a+UFJh8/Kn14TiRfxtVZXsEXbEWrm2zmUFQE3zklYYGjRkHj6q23YKg4e3GdnsxGCD/d6/rV1436eGkfYP7amriZcGCjX8L7uvFNj1cVZpDrx45pDQ3LtO7uv9e678V+uNETU1N+N8WApMyLTCyhQACCEQp4FpI/LEjfn70JVk/+iu4Psshuf+jK5fApBxMyEPvAgQmvRvle0a2wCTfawf6eQQmnYFJumPrQK8RvD8CCCCAQErA75KVGZyUSyCSyiwbCCCAAAKJECAwSUQx8hIIIIBA6QQIREpny50RQAABBNICjPRJW7CFAAIIIIAAAggggAAC/Sig4e5as0njTWgx6Ud4HoUAAggggAACCCRVYEUwLdj8TSu4vx5MM0xCYHMEFKAQmGyOGOcigAACCCCAAAIIZBVYGawR4hZpzHoCOxHIIqDZ+jQzl6Y4pytXFiB2IYAAAggggAACCCCAQP8JhAFK/z2OJyGAAAIIIIAAAggggAAC2QVoMcnuwl4EEEAAAQQQQAABBBDoRwECk37E5lEIIIAAAggggAACCCCQXYDAJLsLexFAAAEEEEAAAQQQQKAfBQhM+hGbRyGAAAIIIIAAAggggEB2AQKT7C7sRQABBBCImYBmdCEhUIhAX9SdQZUdhTyaaxAw6k66EhCYpC3YQgABBBCIsUBNTU2Y+9bWYDEFEgJ5CLi64upOHpfkPGXXBr5S5cThQI8C1J00D/+K0hZsIYAAAgjEWKC+vj7MfXNzc4zfgqz3p4CrK67uFPPs/UaxZnUxfgP5WupOuvQJTNIWbCGAAAIIxFhg2LBhYe4bGxvN/SU8xq9D1kssoDqiuqLk6k4xjzxiLIFJMX4D+VrqTrr0CUzSFmwhgAACCMRYoK6uzoYPHx6+wdq1awlOYlyWpc66ghLVESXVGdWdYtP4EVV22rjO7oTF3ovrB46A6ozqDqlTgMCEmoAAAgggkBiBMWPGWENDg7W1tdmqVats/fr1BCiJKd3iX0QBieqE6obqiOqK6kxfpbMn1NqRW9Jy0leeSb+P6orqDCktUNERpPSvbCGAAAIIIBB/geXLl9vq1avj/yK8QckE1FLSl0GJn9HrX222Oxa3+LvYRqCLgFpKBnJQsmDBgtBDfyCorKw0TUBRW1trBCZdqgm/IIAAAggkRaCpqcnWrFkTjiNoaWkx/g6XlJIt7D00JbC+/Gigu8aU9EX3rZ5yMn9Vm81Y0mpzVrTagg3ttrGd6ax78kr6MU0JrNm3NNBdY0oGevctApOk13jeDwEEEEAAAQQQQACBGAjkCkwYYxKDwiOLCCCAAAIIIIAAAggkXYDAJOklzPshgAACCCCAAAIIIBADAQKTGBQSWUQAAQQQQAABBBBAIOkCBCZJL2HeDwEEEEAAAQQQQACBGAgQmMSgkMgiAggggAACCCCAAAJJFyAwSXoJ834IIIAAAggggAACCMRAgMAkBoVEFhFAAAEEEEAAAQQQSLoAgUnSS5j3QwABBBBAAAEEEEAgBgIEJjEoJLKIAAIIIIAAAggggEDSBQhMkl7CvB8CCCCAAAIIIIAAAjEQIDCJQSGRRQQQQAABBBBAAAEEki5AYJL0Eub9EEAAAQQQQAABBBCIgQCBSQwKiSwigAACCCCAAAIIIJB0AQKTpJcw74cAAggggAACCCCAQAwECExiUEhkEQEEEEAAAQQQQACBpAsQmCS9hHk/BBBAAAEEEEAAAQRiIEBgEoNCIosIIIAAAggggAACCCRdgMAk6SXM+yGAAAIIIIAAAgggEAMBApMYFBJZRAABBBBAAAEEEEAg6QIEJkkvYd4PAQQQQAABBBBAAIEYCBCYxKCQyCICCCCAAAIIIIAAAkkXIDBJegnzfggggAACCCCAAAIIxECAwCQGhUQWEUAAAQQQQAABBBBIugCBSdJLmPdDAAEEEEAAAQQQQCAGAgQmMSgksogAAggggAACCCCAQNIFCEySXsK8HwIIIIAAAggggAACMRAgMIlBIZFFBBBAAAEEEEAAAQSSLkBgkvQS5v0QQAABBBBAAAEEEIiBAIFJDAqJLCKAAAIIIIAAAgggkHQBApOklzDvhwACCCCAAAIIIIBADAQITGJQSGQRAQQQQAABBBBAAIGkCxCYJL2EeT8EEEAAAQQQQAABBGIgQGASg0IiiwgggAACCCCAAAIIJF2AwCTpJcz7IYAAAggggAACCCAQAwECkxgUEllEAAEEEEAAAQQQQCDpAgQmSS9h3g8BBBBAAAEEEEAAgRgIEJjEoJDIIgIIIIAAAggggAACSRcgMEl6CfN+CCCAAAIIIIAAAgjEQIDAJAaFRBYRQAABBBBAAAEEEEi6AIFJ0kuY90MAAQQQQAABBBBAIAYCBCYxKCSyiAACCCCAAAIIIIBA0gUITJJewrwfAggggAACCCCAAAIxECAwiUEhkUUEEEAAAQQQQAABBJIuQGCS9BLm/RBAAAEEEEAAAQQQiIEAgUkMCoksIoAAAggggAACCCCQdAECk6SXMO+HAAIIIIAAAggggEAMBAhMYlBIZBEBBBBAAAEEEEAAgaQLEJgkvYR5PwQQQAABBBBAAAEEYiBAYBKDQiKLCCCAAAIIIIAAAggkXYDAJOklzPshgAACCCCAAAIIIBADAQKTGBQSWUQAAQQQQAABBBBAIOkCBCZJL2HeDwEEEEAAAQQQQACBGAgQmMSgkMgiAggggAACCCCAAAJJFyAwSXoJ834IIIAAAggggAACCMRAgMAkBoVEFhFAAAEEEEAAAQQQSLoAgUnSS5j3QwABBBBAAAEEEEAgBgIEJjEoJLKIAAIIIIAAAggggEDSBQhMkl7CvB8CCCCAAAIIIIAAAjEQIDCJQSGRRQQQQAABBBBAAAEEki5AYJL0Eub9EEAAAQQQQAABBBCIgQCBSQwKiSwigAACCCCAAAIIIJB0gf8HhU27sUuFyvAAAAAASUVORK5CYII=;imageBorder=default;" parent="e7-qo8ZN-_znc6MmdAON-1" vertex="1">
          <mxGeometry x="29" y="34" width="240.51" height="262" as="geometry" />
        </mxCell>
        <mxCell id="e7-qo8ZN-_znc6MmdAON-2" value="stream &quot;course-c2&quot;" style="line;strokeWidth=1;html=1;dashed=1;dashPattern=1 1;labelPosition=left;verticalLabelPosition=middle;align=right;verticalAlign=middle;spacingTop=0;spacingRight=2;strokeColor=#808080;" parent="1" vertex="1">
          <mxGeometry y="662.87" width="380" height="10" as="geometry" />
        </mxCell>
        <mxCell id="e7-qo8ZN-_znc6MmdAON-5" value="&lt;b&gt;course&lt;/b&gt;&lt;div&gt;&lt;b&gt;defined&lt;/b&gt;&lt;/div&gt;&lt;div style=&quot;text-align: left;&quot;&gt;&lt;font style=&quot;font-size: 6px;&quot;&gt;global pos: 2&lt;/font&gt;&lt;/div&gt;&lt;div style=&quot;text-align: left;&quot;&gt;&lt;font style=&quot;font-size: 6px;&quot;&gt;stream pos: 1&lt;/font&gt;&lt;/div&gt;" style="whiteSpace=wrap;html=1;aspect=fixed;rounded=1;fillColor=#FFB570;strokeColor=#CF935B;fontColor=#000000;fontFamily=Helvetica;fontSize=8;arcSize=5;imageHeight=24;" parent="1" vertex="1">
          <mxGeometry x="70" y="646.87" width="42" height="42" as="geometry" />
        </mxCell>
        <mxCell id="e7-qo8ZN-_znc6MmdAON-6" value="stream &quot;course-c1&quot;" style="line;strokeWidth=1;html=1;dashed=1;dashPattern=1 1;labelPosition=left;verticalLabelPosition=middle;align=right;verticalAlign=middle;spacingTop=0;spacingRight=2;strokeColor=#808080;fillColor=#999999;" parent="1" vertex="1">
          <mxGeometry y="587.87" width="380" height="10" as="geometry" />
        </mxCell>
        <mxCell id="e7-qo8ZN-_znc6MmdAON-8" value="&lt;b&gt;course&lt;/b&gt;&lt;div&gt;&lt;b&gt;defined&lt;/b&gt;&lt;/div&gt;&lt;div style=&quot;text-align: left;&quot;&gt;&lt;font style=&quot;font-size: 6px;&quot;&gt;global pos: 1&lt;/font&gt;&lt;/div&gt;&lt;div style=&quot;text-align: left;&quot;&gt;&lt;font style=&quot;font-size: 6px;&quot;&gt;stream pos: 1&lt;/font&gt;&lt;/div&gt;" style="whiteSpace=wrap;html=1;aspect=fixed;rounded=1;fillColor=#FFB570;strokeColor=#CF935B;fontFamily=Helvetica;fontSize=8;arcSize=5;imageHeight=24;" parent="1" vertex="1">
          <mxGeometry x="10" y="571.87" width="42" height="42" as="geometry" />
        </mxCell>
        <mxCell id="e7-qo8ZN-_znc6MmdAON-20" value="&lt;b&gt;course&lt;/b&gt;&lt;div&gt;&lt;b&gt;renamed&lt;/b&gt;&lt;/div&gt;&lt;div style=&quot;text-align: left;&quot;&gt;&lt;font style=&quot;font-size: 6px;&quot;&gt;global pos: 3&lt;/font&gt;&lt;/div&gt;&lt;div style=&quot;text-align: left;&quot;&gt;&lt;font style=&quot;font-size: 6px;&quot;&gt;stream pos: 2&lt;/font&gt;&lt;/div&gt;" style="whiteSpace=wrap;html=1;aspect=fixed;rounded=1;fillColor=#FFB570;strokeColor=#CF935B;fontFamily=Helvetica;fontSize=8;arcSize=5;imageHeight=24;" parent="1" vertex="1">
          <mxGeometry x="130" y="571.87" width="42" height="42" as="geometry" />
        </mxCell>
        <mxCell id="e7-qo8ZN-_znc6MmdAON-21" value="&lt;b&gt;course&lt;/b&gt;&lt;div&gt;&lt;b&gt;archived&lt;/b&gt;&lt;/div&gt;&lt;div style=&quot;text-align: left;&quot;&gt;&lt;font style=&quot;font-size: 6px;&quot;&gt;global pos: 4&lt;/font&gt;&lt;/div&gt;&lt;div style=&quot;text-align: left;&quot;&gt;&lt;font style=&quot;font-size: 6px;&quot;&gt;stream pos: 3&lt;/font&gt;&lt;/div&gt;" style="whiteSpace=wrap;html=1;aspect=fixed;rounded=1;fillColor=#FFB570;strokeColor=#CF935B;fontFamily=Helvetica;fontSize=8;arcSize=5;imageHeight=24;" parent="1" vertex="1">
          <mxGeometry x="190" y="571.87" width="42" height="42" as="geometry" />
        </mxCell>
        <mxCell id="e7-qo8ZN-_znc6MmdAON-22" value="&lt;b&gt;course&lt;/b&gt;&lt;div&gt;&lt;b&gt;renamed&lt;/b&gt;&lt;/div&gt;&lt;div style=&quot;text-align: left;&quot;&gt;&lt;font style=&quot;font-size: 6px;&quot;&gt;global pos: 5&lt;/font&gt;&lt;/div&gt;&lt;div style=&quot;text-align: left;&quot;&gt;&lt;font style=&quot;font-size: 6px;&quot;&gt;stream pos: 2&lt;/font&gt;&lt;/div&gt;" style="whiteSpace=wrap;html=1;aspect=fixed;rounded=1;fillColor=#FFB570;strokeColor=#CF935B;fontColor=#000000;fontFamily=Helvetica;fontSize=8;arcSize=5;imageHeight=24;" parent="1" vertex="1">
          <mxGeometry x="250" y="646.87" width="42" height="42" as="geometry" />
        </mxCell>
        <mxCell id="e7-qo8ZN-_znc6MmdAON-23" value="1" style="text;html=1;align=center;verticalAlign=middle;resizable=0;points=[];autosize=1;strokeColor=none;fillColor=none;fontSize=16;fontStyle=2;fontColor=#999999;" parent="1" vertex="1">
          <mxGeometry x="14" y="530" width="27" height="31" as="geometry" />
        </mxCell>
        <mxCell id="e7-qo8ZN-_znc6MmdAON-24" value="2" style="text;html=1;align=center;verticalAlign=middle;resizable=0;points=[];autosize=1;strokeColor=none;fillColor=none;fontSize=16;fontStyle=2;fontColor=#999999;" parent="1" vertex="1">
          <mxGeometry x="74" y="530" width="27" height="31" as="geometry" />
        </mxCell>
        <mxCell id="e7-qo8ZN-_znc6MmdAON-25" value="3" style="text;html=1;align=center;verticalAlign=middle;resizable=0;points=[];autosize=1;strokeColor=none;fillColor=none;fontSize=16;fontStyle=2;fontColor=#999999;" parent="1" vertex="1">
          <mxGeometry x="134" y="530" width="27" height="31" as="geometry" />
        </mxCell>
        <mxCell id="e7-qo8ZN-_znc6MmdAON-26" value="4" style="text;html=1;align=center;verticalAlign=middle;resizable=0;points=[];autosize=1;strokeColor=none;fillColor=none;fontSize=16;fontStyle=2;fontColor=#999999;" parent="1" vertex="1">
          <mxGeometry x="194" y="530" width="27" height="31" as="geometry" />
        </mxCell>
        <mxCell id="e7-qo8ZN-_znc6MmdAON-27" value="5" style="text;html=1;align=center;verticalAlign=middle;resizable=0;points=[];autosize=1;strokeColor=none;fillColor=none;fontSize=16;fontStyle=2;fontColor=#999999;" parent="1" vertex="1">
          <mxGeometry x="254" y="530" width="27" height="31" as="geometry" />
        </mxCell>
        <mxCell id="e7-qo8ZN-_znc6MmdAON-33" value="" style="endArrow=none;dashed=1;html=1;rounded=0;fontSize=12;startSize=8;endSize=8;curved=0;strokeColor=#DEDEDE;" parent="1" edge="1">
          <mxGeometry width="50" height="50" relative="1" as="geometry">
            <mxPoint x="1" y="530" as="sourcePoint" />
            <mxPoint x="1" y="700" as="targetPoint" />
          </mxGeometry>
        </mxCell>
        <mxCell id="e7-qo8ZN-_znc6MmdAON-34" value="" style="endArrow=none;dashed=1;html=1;rounded=0;fontSize=12;startSize=8;endSize=8;curved=0;strokeColor=#DEDEDE;" parent="1" edge="1">
          <mxGeometry width="50" height="50" relative="1" as="geometry">
            <mxPoint x="61" y="530" as="sourcePoint" />
            <mxPoint x="61" y="700" as="targetPoint" />
          </mxGeometry>
        </mxCell>
        <mxCell id="e7-qo8ZN-_znc6MmdAON-35" value="" style="endArrow=none;dashed=1;html=1;rounded=0;fontSize=12;startSize=8;endSize=8;curved=0;strokeColor=#DEDEDE;" parent="1" edge="1">
          <mxGeometry width="50" height="50" relative="1" as="geometry">
            <mxPoint x="121" y="530" as="sourcePoint" />
            <mxPoint x="121" y="700" as="targetPoint" />
          </mxGeometry>
        </mxCell>
        <mxCell id="e7-qo8ZN-_znc6MmdAON-36" value="" style="endArrow=none;dashed=1;html=1;rounded=0;fontSize=12;startSize=8;endSize=8;curved=0;strokeColor=#DEDEDE;" parent="1" edge="1">
          <mxGeometry width="50" height="50" relative="1" as="geometry">
            <mxPoint x="181" y="530" as="sourcePoint" />
            <mxPoint x="181" y="700" as="targetPoint" />
          </mxGeometry>
        </mxCell>
        <mxCell id="e7-qo8ZN-_znc6MmdAON-37" value="" style="endArrow=none;dashed=1;html=1;rounded=0;fontSize=12;startSize=8;endSize=8;curved=0;strokeColor=#DEDEDE;" parent="1" edge="1">
          <mxGeometry width="50" height="50" relative="1" as="geometry">
            <mxPoint x="241" y="530" as="sourcePoint" />
            <mxPoint x="241" y="700" as="targetPoint" />
          </mxGeometry>
        </mxCell>
        <mxCell id="e7-qo8ZN-_znc6MmdAON-38" value="" style="endArrow=none;dashed=1;html=1;rounded=0;fontSize=12;startSize=8;endSize=8;curved=0;strokeColor=#DEDEDE;" parent="1" edge="1">
          <mxGeometry width="50" height="50" relative="1" as="geometry">
            <mxPoint x="301" y="530" as="sourcePoint" />
            <mxPoint x="301" y="710" as="targetPoint" />
          </mxGeometry>
        </mxCell>
        <mxCell id="e7-qo8ZN-_znc6MmdAON-39" value="global sequence" style="text;html=1;align=center;verticalAlign=middle;resizable=0;points=[];autosize=1;strokeColor=none;fillColor=none;fontSize=12;fontStyle=2;fontColor=#999999;" parent="1" vertex="1">
          <mxGeometry x="-115" y="532.5" width="105" height="26" as="geometry" />
        </mxCell>
        <mxCell id="e7-qo8ZN-_znc6MmdAON-40" value="6 ..." style="text;html=1;align=center;verticalAlign=middle;resizable=0;points=[];autosize=1;strokeColor=none;fillColor=none;fontSize=16;fontStyle=2;fontColor=#999999;" parent="1" vertex="1">
          <mxGeometry x="314" y="530" width="45" height="31" as="geometry" />
        </mxCell>
        <mxCell id="TNLdKFddaoTVygyAMJ7R-1" value="P1" parent="0" />
      </root>
    </mxGraphModel>
  </diagram>
</mxfile>
